SplineFontDB: 3.2
FontName: IRMitra-Bold
FullName: IRMitra-Bold
FamilyName: IRMitra
Weight: Bold
Copyright: Copyright (c) 2022, Information Technology Organization of Iran (ito.gov.ir)
Version: 1.000
ItalicAngle: 0
UnderlinePosition: -730
UnderlineWidth: 60
Ascent: 1638
Descent: 410
InvalidEm: 0
sfntRevision: 0x00010000
LayerCount: 2
Layer: 0 1 "Back" 1
Layer: 1 1 "Fore" 0
XUID: [1021 420 722297922 348030]
StyleMap: 0x0020
FSType: 0
OS2Version: 3
OS2_WeightWidthSlopeOnly: 0
OS2_UseTypoMetrics: 0
CreationTime: 1356341819
ModificationTime: 1662628553
PfmFamily: 17
TTFWeight: 700
TTFWidth: 5
LineGap: 100
VLineGap: 0
Panose: 2 0 8 3 0 0 0 2 0 2
OS2TypoAscent: 1896
OS2TypoAOffset: 0
OS2TypoDescent: -959
OS2TypoDOffset: 0
OS2TypoLinegap: 300
OS2WinAscent: 1896
OS2WinAOffset: 0
OS2WinDescent: 959
OS2WinDOffset: 0
HheadAscent: 1896
HheadAOffset: 0
HheadDescent: -959
HheadDOffset: 0
OS2SubXSize: 1434
OS2SubYSize: 1331
OS2SubXOff: 0
OS2SubYOff: 293
OS2SupXSize: 1434
OS2SupYSize: 1331
OS2SupXOff: 0
OS2SupYOff: 928
OS2StrikeYSize: 50
OS2StrikeYPos: 250
OS2CapHeight: -1
OS2XHeight: -1
OS2FamilyClass: 2048
OS2Vendor: 'PARS'
OS2CodePages: 20000041.00000000
OS2UnicodeRanges: 00002003.00000000.00000000.00000000
Lookup: 1 1 0 "'isol' Isolated Forms in Arabic lookup 0" { "'isol' Isolated Forms in Arabic lookup 0 subtable"  } ['isol' ('arab' <'dflt' > ) ]
Lookup: 1 1 0 "'init' Initial Forms in Arabic lookup 1" { "'init' Initial Forms in Arabic lookup 1 subtable"  } ['init' ('arab' <'dflt' > ) ]
Lookup: 1 1 0 "'medi' Medial Forms in Arabic lookup 2" { "'medi' Medial Forms in Arabic lookup 2 subtable"  } ['medi' ('arab' <'dflt' > ) ]
Lookup: 1 1 0 "'fina' Terminal Forms in Arabic lookup 3" { "'fina' Terminal Forms in Arabic lookup 3 subtable"  } ['fina' ('arab' <'dflt' > ) ]
Lookup: 4 1 0 "'ccmp' Glyph Composition/Decomposition in Arabic lookup 4" { "'ccmp' Glyph Composition/Decomposition in Arabic lookup 4 subtable"  } ['ccmp' ('arab' <'dflt' > ) ]

StartChar: quotedbl
Encoding: 34 34 1
Width: 461
Flags: W
LayerCount: 2
Fore
SplineSet
267 1272 m 2,0,1
 264 1291 264 1291 273 1304 c 128,-1,2
 282 1317 282 1317 297 1324 c 128,-1,3
 312 1331 312 1331 330 1331 c 128,-1,4
 348 1331 348 1331 362.5 1324.5 c 128,-1,5
 377 1318 377 1318 385.5 1305 c 128,-1,6
 394 1292 394 1292 391 1272 c 2,7,-1
 366 963 l 1,8,-1
 294 963 l 1,9,-1
 267 1272 l 2,0,1
75 1272 m 2,10,11
 72 1291 72 1291 81 1304 c 128,-1,12
 90 1317 90 1317 105 1324 c 128,-1,13
 120 1331 120 1331 138 1331 c 128,-1,14
 156 1331 156 1331 170.5 1324.5 c 128,-1,15
 185 1318 185 1318 193.5 1305 c 128,-1,16
 202 1292 202 1292 199 1272 c 2,17,-1
 174 963 l 1,18,-1
 102 963 l 1,19,-1
 75 1272 l 2,10,11
EndSplineSet
EndChar

StartChar: numbersign
Encoding: 35 35 2
Width: 875
Flags: W
LayerCount: 2
Fore
SplineSet
77 -23 m 1,0,-1
 150 338 l 1,1,-1
 34 338 l 1,2,-1
 34 452 l 1,3,-1
 173 452 l 1,4,-1
 223 701 l 1,5,-1
 34 701 l 1,6,-1
 34 813 l 1,7,-1
 246 813 l 1,8,-1
 320 1182 l 1,9,-1
 433 1182 l 1,10,-1
 357 813 l 1,11,-1
 609 813 l 1,12,-1
 683 1182 l 1,13,-1
 796 1182 l 1,14,-1
 720 813 l 1,15,-1
 839 813 l 1,16,-1
 839 701 l 1,17,-1
 699 701 l 1,18,-1
 647 452 l 1,19,-1
 839 452 l 1,20,-1
 839 338 l 1,21,-1
 626 338 l 1,22,-1
 554 -23 l 1,23,-1
 439 -23 l 1,24,-1
 513 338 l 1,25,-1
 263 338 l 1,26,-1
 187 -23 l 1,27,-1
 77 -23 l 1,0,-1
287 452 m 1,28,-1
 538 452 l 1,29,-1
 587 701 l 1,30,-1
 336 701 l 1,31,-1
 287 452 l 1,28,-1
EndSplineSet
EndChar

StartChar: dollar
Encoding: 36 36 3
Width: 875
Flags: W
LayerCount: 2
Fore
SplineSet
484 714 m 1,0,1
 688 584 688 584 744 519 c 0,2,3
 819 429 819 429 819 310 c 0,4,5
 819 177 819 177 730.5 86.5 c 128,-1,6
 642 -4 642 -4 484 -18 c 1,7,-1
 484 -117 l 1,8,-1
 409 -117 l 1,9,-1
 409 -23 l 1,10,11
 319 -22 319 -22 248.5 -9 c 128,-1,12
 178 4 178 4 87 39 c 1,13,-1
 87 315 l 1,14,-1
 124 315 l 1,15,16
 141 221 141 221 177.5 163 c 128,-1,17
 214 105 214 105 270.5 75.5 c 128,-1,18
 327 46 327 46 409 39 c 1,19,-1
 409 461 l 1,20,21
 203 591 203 591 135.5 668.5 c 128,-1,22
 68 746 68 746 68 848 c 0,23,24
 68 959 68 959 153.5 1044 c 128,-1,25
 239 1129 239 1129 409 1150 c 1,26,-1
 409 1190 l 1,27,-1
 484 1190 l 1,28,-1
 484 1150 l 1,29,30
 629 1139 629 1139 775 1061 c 1,31,-1
 775 813 l 1,32,-1
 742 813 l 1,33,34
 717 897 717 897 682.5 951 c 128,-1,35
 648 1005 648 1005 594 1043 c 0,36,37
 552 1072 552 1072 484 1090 c 1,38,-1
 484 714 l 1,0,1
409 1093 m 1,39,40
 347 1088 347 1088 310 1058 c 0,41,42
 250 1014 250 1014 250 950 c 0,43,44
 250 910 250 910 277.5 869.5 c 128,-1,45
 305 829 305 829 409 760 c 1,46,-1
 409 1093 l 1,39,40
484 39 m 1,47,48
 557 57 557 57 591.5 98 c 128,-1,49
 626 139 626 139 626 202 c 0,50,51
 626 255 626 255 595.5 302 c 128,-1,52
 565 349 565 349 484 409 c 1,53,-1
 484 39 l 1,47,48
EndSplineSet
EndChar

StartChar: percent
Encoding: 37 37 4
Width: 1750
Flags: W
LayerCount: 2
Fore
SplineSet
1344 1185 m 1,0,-1
 522 -49 l 1,1,-1
 407 -49 l 1,2,-1
 1228 1185 l 1,3,-1
 1344 1185 l 1,0,-1
408 1185 m 0,4,5
 530 1185 530 1185 613 1099.5 c 128,-1,6
 696 1014 696 1014 696 878 c 0,7,8
 696 738 696 738 612.5 651.5 c 128,-1,9
 529 565 529 565 405 565 c 0,10,11
 283 565 283 565 202.5 648.5 c 128,-1,12
 122 732 122 732 122 870 c 0,13,14
 122 1010 122 1010 204.5 1097.5 c 128,-1,15
 287 1185 287 1185 408 1185 c 0,4,5
408 1139 m 0,16,17
 390 1139 390 1139 378 1129 c 0,18,19
 357 1109 357 1109 346.5 1061 c 128,-1,20
 336 1013 336 1013 336 861 c 0,21,22
 336 741 336 741 349 675 c 0,23,24
 358 637 358 637 378 619 c 0,25,26
 391 608 391 608 408 608 c 0,27,28
 427 608 427 608 438 618 c 0,29,30
 458 635 458 635 468 676 c 0,31,32
 481 741 481 741 481 858 c 0,33,34
 481 1002 481 1002 468 1066 c 0,35,36
 459 1110 459 1110 438 1130 c 0,37,38
 427 1139 427 1139 408 1139 c 0,16,17
1339 573 m 0,39,40
 1462 573 1462 573 1545.5 488.5 c 128,-1,41
 1629 404 1629 404 1629 266 c 0,42,43
 1629 126 1629 126 1544 39 c 128,-1,44
 1459 -48 1459 -48 1339 -48 c 0,45,46
 1221 -48 1221 -48 1137.5 39 c 128,-1,47
 1054 126 1054 126 1054 263 c 256,48,49
 1054 400 1054 400 1135.5 486.5 c 128,-1,50
 1217 573 1217 573 1339 573 c 0,39,40
1340 529 m 0,51,52
 1323 529 1323 529 1312 519 c 0,53,54
 1291 500 1291 500 1280 453.5 c 128,-1,55
 1269 407 1269 407 1269 276 c 0,56,57
 1269 134 1269 134 1282 74 c 0,58,59
 1291 30 1291 30 1314 11 c 0,60,61
 1324 0 1324 0 1342 0 c 0,62,63
 1358 0 1358 0 1369 10 c 0,64,65
 1390 28 1390 28 1400 74 c 0,66,67
 1415 135 1415 135 1415 263 c 0,68,69
 1415 395 1415 395 1401 457 c 0,70,71
 1390 502 1390 502 1371 519 c 0,72,73
 1361 529 1361 529 1340 529 c 0,51,52
EndSplineSet
EndChar

StartChar: ampersand
Encoding: 38 38 5
Width: 1458
Flags: W
LayerCount: 2
Fore
SplineSet
997 693 m 1,0,-1
 1352 693 l 1,1,-1
 1352 660 l 1,2,3
 1292 651 1292 651 1258 624 c 128,-1,4
 1224 597 1224 597 1169 498.5 c 128,-1,5
 1114 400 1114 400 1015 279 c 1,6,7
 1102 201 1102 201 1157 170 c 0,8,9
 1195 149 1195 149 1233 149 c 0,10,11
 1296 149 1296 149 1347 231 c 1,12,-1
 1382 213 l 1,13,14
 1312 75 1312 75 1233 17 c 0,15,16
 1171 -27 1171 -27 1094 -27 c 0,17,18
 1027 -27 1027 -27 967 2 c 128,-1,19
 907 31 907 31 821 109 c 1,20,21
 714 37 714 37 619.5 5 c 128,-1,22
 525 -27 525 -27 424 -27 c 0,23,24
 262 -27 262 -27 166 61.5 c 128,-1,25
 70 150 70 150 70 268 c 0,26,27
 70 396 70 396 161.5 491.5 c 128,-1,28
 253 587 253 587 427 656 c 1,29,30
 405 711 405 711 394 764 c 128,-1,31
 383 817 383 817 383 866 c 0,32,33
 383 1003 383 1003 479 1094 c 128,-1,34
 575 1185 575 1185 724 1185 c 0,35,36
 845 1185 845 1185 915.5 1124.5 c 128,-1,37
 986 1064 986 1064 986 984 c 0,38,39
 986 887 986 887 914 818 c 128,-1,40
 842 749 842 749 685 693 c 1,41,42
 781 523 781 523 967 327 c 1,43,44
 1094 468 1094 468 1094 568 c 0,45,46
 1094 604 1094 604 1069.5 629.5 c 128,-1,47
 1045 655 1045 655 997 660 c 1,48,-1
 997 693 l 1,0,-1
656 744 m 1,49,50
 746 778 746 778 776.5 816 c 128,-1,51
 807 854 807 854 807 908 c 0,52,53
 807 1003 807 1003 757 1069 c 0,54,55
 724 1112 724 1112 675 1112 c 0,56,57
 635 1112 635 1112 606.5 1080 c 128,-1,58
 578 1048 578 1048 578 995 c 0,59,60
 578 954 578 954 591 906 c 128,-1,61
 604 858 604 858 656 744 c 1,49,50
450 600 m 1,62,63
 383 571 383 571 354 539 c 0,64,65
 314 491 314 491 314 433 c 0,66,67
 314 352 314 352 361 272.5 c 128,-1,68
 408 193 408 193 473.5 149.5 c 128,-1,69
 539 106 539 106 604 106 c 0,70,71
 637 106 637 106 678 120 c 128,-1,72
 719 134 719 134 767 162 c 1,73,74
 561 374 561 374 450 600 c 1,62,63
EndSplineSet
EndChar

StartChar: quotesingle
Encoding: 39 39 6
Width: 344
Flags: W
LayerCount: 2
Fore
SplineSet
119 1272 m 2,0,1
 116 1291 116 1291 125 1304 c 128,-1,2
 134 1317 134 1317 149 1324 c 128,-1,3
 164 1331 164 1331 182 1331 c 128,-1,4
 200 1331 200 1331 214.5 1324.5 c 128,-1,5
 229 1318 229 1318 237.5 1305 c 128,-1,6
 246 1292 246 1292 243 1272 c 2,7,-1
 218 963 l 1,8,-1
 146 963 l 1,9,-1
 119 1272 l 2,0,1
EndSplineSet
EndChar

StartChar: asterisk
Encoding: 42 42 7
Width: 743
Flags: W
LayerCount: 2
Fore
SplineSet
413 684 m 1,0,-1
 413 546 l 2,1,2
 413 533 413 533 405 523.5 c 128,-1,3
 397 514 397 514 383 514 c 2,4,-1
 334 514 l 2,5,6
 326 514 326 514 316 523.5 c 128,-1,7
 306 533 306 533 306 546 c 2,8,-1
 306 684 l 1,9,-1
 212 588 l 1,10,11
 185 570 185 570 157 588 c 1,12,-1
 128 619 l 2,13,14
 110 641 110 641 133 666 c 2,15,-1
 230 765 l 1,16,-1
 92 765 l 2,17,18
 79 765 79 765 67 773.5 c 128,-1,19
 55 782 55 782 55 798 c 2,20,-1
 55 846 l 2,21,22
 55 855 55 855 67 864 c 128,-1,23
 79 873 79 873 92 873 c 2,24,-1
 222 873 l 1,25,-1
 128 970 l 2,26,27
 114 981 114 981 113 995 c 128,-1,28
 112 1009 112 1009 122 1022 c 2,29,-1
 157 1052 l 2,30,31
 167 1062 167 1062 179 1061 c 128,-1,32
 191 1060 191 1060 203 1046 c 2,33,-1
 306 946 l 1,34,-1
 306 1095 l 2,35,36
 306 1107 306 1107 316 1118 c 128,-1,37
 326 1129 326 1129 334 1129 c 2,38,-1
 383 1129 l 2,39,40
 397 1129 397 1129 405 1118 c 128,-1,41
 413 1107 413 1107 413 1095 c 2,42,-1
 413 951 l 1,43,-1
 516 1052 l 2,44,45
 527 1066 527 1066 538.5 1067 c 128,-1,46
 550 1068 550 1068 568 1060 c 1,47,-1
 593 1022 l 1,48,49
 604 1015 604 1015 604 1003 c 128,-1,50
 604 991 604 991 591 975 c 2,51,-1
 492 873 l 1,52,-1
 641 873 l 2,53,54
 651 873 651 873 662.5 864 c 128,-1,55
 674 855 674 855 674 846 c 2,56,-1
 674 798 l 2,57,58
 674 782 674 782 662.5 773.5 c 128,-1,59
 651 765 651 765 641 765 c 2,60,-1
 484 765 l 1,61,-1
 591 666 l 1,62,63
 610 641 610 641 591 612 c 1,64,-1
 563 582 l 1,65,66
 540 564 540 564 516 588 c 2,67,-1
 413 684 l 1,0,-1
EndSplineSet
EndChar

StartChar: plus
Encoding: 43 43 8
Width: 961
Flags: W
LayerCount: 2
Fore
SplineSet
420 424 m 1,0,-1
 149 424 l 1,1,-1
 149 564 l 1,2,-1
 420 564 l 1,3,-1
 420 840 l 1,4,-1
 560 840 l 1,5,-1
 560 564 l 1,6,-1
 846 564 l 1,7,-1
 846 424 l 1,8,-1
 560 424 l 1,9,-1
 560 149 l 1,10,-1
 420 149 l 1,11,-1
 420 424 l 1,0,-1
EndSplineSet
EndChar

StartChar: hyphen
Encoding: 45 45 9
Width: 987
Flags: W
LayerCount: 2
Fore
SplineSet
149 424 m 1,0,-1
 149 564 l 1,1,-1
 846 564 l 1,2,-1
 846 424 l 1,3,-1
 149 424 l 1,0,-1
EndSplineSet
EndChar

StartChar: period
Encoding: 46 46 10
Width: 584
Flags: W
LayerCount: 2
Fore
SplineSet
540 136 m 0,0,1
 540 81 540 81 500 42 c 128,-1,2
 460 3 460 3 407 3 c 0,3,4
 351 3 351 3 312.5 43 c 128,-1,5
 274 83 274 83 274 136 c 0,6,7
 274 192 274 192 312.5 230.5 c 128,-1,8
 351 269 351 269 407 269 c 256,9,10
 463 269 463 269 501.5 230.5 c 128,-1,11
 540 192 540 192 540 136 c 0,0,1
EndSplineSet
EndChar

StartChar: slash
Encoding: 47 47 11
Width: 833
Flags: W
LayerCount: 2
Fore
SplineSet
698 1007 m 1,0,-1
 313 -118 l 1,1,-1
 165 -118 l 1,2,-1
 550 1007 l 1,3,-1
 698 1007 l 1,0,-1
EndSplineSet
EndChar

StartChar: zero
Encoding: 48 48 12
Width: 875
Flags: W
LayerCount: 2
Fore
SplineSet
811 578 m 0,0,1
 811 406 811 406 763 255 c 0,2,3
 732 164 732 164 683.5 104 c 128,-1,4
 635 44 635 44 573 10.5 c 128,-1,5
 511 -23 511 -23 437 -23 c 0,6,7
 352 -23 352 -23 285 19.5 c 128,-1,8
 218 62 218 62 166 141 c 0,9,10
 128 198 128 198 101 295 c 0,11,12
 63 426 63 426 63 566 c 0,13,14
 63 754 63 754 117 912 c 0,15,16
 160 1043 160 1043 248.5 1112.5 c 128,-1,17
 337 1182 337 1182 437 1182 c 0,18,19
 538 1182 538 1182 625 1113.5 c 128,-1,20
 712 1045 712 1045 754 929 c 0,21,22
 811 769 811 769 811 578 c 0,0,1
548 581 m 2,23,24
 548 886 548 886 545 935 c 0,25,26
 536 1054 536 1054 503 1096 c 0,27,28
 481 1123 481 1123 433 1123 c 0,29,30
 397 1123 397 1123 376 1104 c 0,31,32
 344 1073 344 1073 333 997.5 c 128,-1,33
 322 922 322 922 322 470 c 0,34,35
 322 224 322 224 340 140 c 0,36,37
 352 79 352 79 376 58.5 c 128,-1,38
 400 38 400 38 439 38 c 0,39,40
 481 38 481 38 503 66 c 0,41,42
 539 113 539 113 545 214 c 1,43,-1
 548 581 l 2,23,24
EndSplineSet
EndChar

StartChar: one
Encoding: 49 49 13
Width: 875
Flags: W
LayerCount: 2
Fore
SplineSet
570 1182 m 1,0,-1
 570 235 l 2,1,2
 570 128 570 128 579 98.5 c 128,-1,3
 588 69 588 69 618 50.5 c 128,-1,4
 648 32 648 32 715 32 c 2,5,-1
 741 32 l 1,6,-1
 741 0 l 1,7,-1
 130 0 l 1,8,-1
 130 32 l 1,9,-1
 161 32 l 2,10,11
 236 32 236 32 267.5 49 c 128,-1,12
 299 66 299 66 310 96 c 128,-1,13
 321 126 321 126 321 235 c 2,14,-1
 321 835 l 2,15,16
 321 917 321 917 313 936.5 c 128,-1,17
 305 956 305 956 284 970 c 128,-1,18
 263 984 263 984 237 984 c 0,19,20
 193 984 193 984 130 957 c 1,21,-1
 116 988 l 1,22,-1
 541 1182 l 1,23,-1
 570 1182 l 1,0,-1
EndSplineSet
EndChar

StartChar: two
Encoding: 50 50 14
Width: 875
Flags: W
LayerCount: 2
Fore
SplineSet
724 0 m 1,0,-1
 43 0 l 1,1,-1
 43 20 l 1,2,3
 357 392 357 392 423.5 521.5 c 128,-1,4
 490 651 490 651 490 773 c 0,5,6
 490 863 490 863 434.5 922.5 c 128,-1,7
 379 982 379 982 299 982 c 0,8,9
 167 982 167 982 95 850 c 1,10,-1
 63 861 l 1,11,12
 109 1025 109 1025 203 1103.5 c 128,-1,13
 297 1182 297 1182 421 1182 c 0,14,15
 508 1182 508 1182 580.5 1141 c 128,-1,16
 653 1100 653 1100 694.5 1029 c 128,-1,17
 736 958 736 958 736 895 c 0,18,19
 736 781 736 781 673 664 c 0,20,21
 587 506 587 506 295 224 c 1,22,-1
 546 224 l 2,23,24
 639 224 639 224 666.5 231.5 c 128,-1,25
 694 239 694 239 712 257.5 c 128,-1,26
 730 276 730 276 758 336 c 1,27,-1
 789 336 l 1,28,-1
 724 0 l 1,0,-1
EndSplineSet
EndChar

StartChar: three
Encoding: 51 51 15
Width: 875
Flags: W
LayerCount: 2
Fore
SplineSet
258 581 m 1,0,-1
 258 611 l 1,1,2
 357 639 357 639 394.5 663.5 c 128,-1,3
 432 688 432 688 459 738.5 c 128,-1,4
 486 789 486 789 486 839 c 0,5,6
 486 910 486 910 434.5 960.5 c 128,-1,7
 383 1011 383 1011 305 1011 c 0,8,9
 186 1011 186 1011 102 886 c 1,10,-1
 70 896 l 1,11,12
 133 1040 133 1040 229 1111 c 128,-1,13
 325 1182 325 1182 442 1182 c 0,14,15
 562 1182 562 1182 641 1109 c 128,-1,16
 720 1036 720 1036 720 938 c 0,17,18
 720 874 720 874 683.5 814 c 128,-1,19
 647 754 647 754 570 709 c 1,20,21
 668 660 668 660 721 589 c 128,-1,22
 774 518 774 518 774 410 c 0,23,24
 774 229 774 229 643 102 c 128,-1,25
 512 -25 512 -25 292 -25 c 0,26,27
 144 -25 144 -25 77 23 c 0,28,29
 28 58 28 58 28 112 c 0,30,31
 28 151 28 151 56.5 179 c 128,-1,32
 85 207 85 207 122 207 c 0,33,34
 150 207 150 207 174 194 c 0,35,36
 188 188 188 188 271 120.5 c 128,-1,37
 354 53 354 53 427 53 c 0,38,39
 490 53 490 53 535.5 102 c 128,-1,40
 581 151 581 151 581 229 c 0,41,42
 581 346 581 346 499 445 c 128,-1,43
 417 544 417 544 258 581 c 1,0,-1
EndSplineSet
EndChar

StartChar: four
Encoding: 52 52 16
Width: 875
Flags: W
LayerCount: 2
Fore
SplineSet
44 437 m 1,0,-1
 594 1182 l 1,1,-1
 699 1182 l 1,2,-1
 699 437 l 1,3,-1
 805 437 l 1,4,-1
 805 260 l 1,5,-1
 699 260 l 1,6,-1
 699 0 l 1,7,-1
 464 0 l 1,8,-1
 464 260 l 1,9,-1
 44 260 l 1,10,-1
 44 437 l 1,0,-1
126 437 m 1,11,-1
 464 437 l 1,12,-1
 464 894 l 1,13,-1
 126 437 l 1,11,-1
EndSplineSet
EndChar

StartChar: five
Encoding: 53 53 17
Width: 875
Flags: W
LayerCount: 2
Fore
SplineSet
267 1159 m 1,0,-1
 810 1159 l 1,1,-1
 723 938 l 1,2,-1
 267 938 l 1,3,-1
 223 822 l 1,4,5
 518 812 518 812 677 676 c 0,6,7
 807 564 807 564 807 397 c 0,8,9
 807 290 807 290 746 188 c 128,-1,10
 685 86 685 86 575 31.5 c 128,-1,11
 465 -23 465 -23 335 -23 c 0,12,13
 192 -23 192 -23 117 28 c 0,14,15
 63 66 63 66 63 114 c 0,16,17
 63 151 63 151 90.5 179 c 128,-1,18
 118 207 118 207 156 207 c 0,19,20
 189 207 189 207 223 194 c 128,-1,21
 257 181 257 181 340 122 c 0,22,23
 392 86 392 86 429 73 c 0,24,25
 456 62 456 62 489 62 c 0,26,27
 560 62 560 62 609 113.5 c 128,-1,28
 658 165 658 165 658 237 c 0,29,30
 658 386 658 386 507.5 480.5 c 128,-1,31
 357 575 357 575 128 575 c 0,32,33
 105 575 105 575 59 575 c 1,34,-1
 267 1159 l 1,0,-1
EndSplineSet
EndChar

StartChar: six
Encoding: 54 54 18
Width: 875
Flags: W
LayerCount: 2
Fore
SplineSet
822 1159 m 1,0,1
 667 1120 667 1120 574 1057.5 c 128,-1,2
 481 995 481 995 426.5 906.5 c 128,-1,3
 372 818 372 818 342 688 c 1,4,5
 379 714 379 714 404 721 c 0,6,7
 459 738 459 738 516 738 c 0,8,9
 646 738 646 738 732.5 643.5 c 128,-1,10
 819 549 819 549 819 386 c 0,11,12
 819 271 819 271 772 175.5 c 128,-1,13
 725 80 725 80 639.5 28.5 c 128,-1,14
 554 -23 554 -23 455 -23 c 0,15,16
 348 -23 348 -23 257 35 c 128,-1,17
 166 93 166 93 115.5 206 c 128,-1,18
 65 319 65 319 65 450 c 0,19,20
 65 646 65 646 158.5 814 c 128,-1,21
 252 982 252 982 424 1081.5 c 128,-1,22
 596 1181 596 1181 822 1182 c 1,23,-1
 822 1159 l 1,0,1
331 619 m 1,24,25
 324 501 324 501 324 447 c 0,26,27
 324 328 324 328 346.5 218 c 128,-1,28
 369 108 369 108 408 63 c 0,29,30
 437 32 437 32 475 32 c 0,31,32
 514 32 514 32 545 77.5 c 128,-1,33
 576 123 576 123 576 263 c 0,34,35
 576 498 576 498 519 588 c 0,36,37
 481 647 481 647 420 647 c 0,38,39
 385 647 385 647 331 619 c 1,24,25
EndSplineSet
EndChar

StartChar: seven
Encoding: 55 55 19
Width: 875
Flags: W
LayerCount: 2
Fore
SplineSet
310 -23 m 1,0,-1
 626 933 l 1,1,-1
 385 933 l 2,2,3
 245 933 245 933 173 895 c 0,4,5
 124 870 124 870 92 799 c 1,6,-1
 59 799 l 1,7,-1
 143 1159 l 1,8,-1
 833 1159 l 1,9,-1
 444 -23 l 1,10,-1
 310 -23 l 1,0,-1
EndSplineSet
EndChar

StartChar: eight
Encoding: 56 56 20
Width: 875
Flags: W
LayerCount: 2
Fore
SplineSet
596 655 m 1,0,1
 719 565 719 565 766 487.5 c 128,-1,2
 813 410 813 410 813 310 c 0,3,4
 813 170 813 170 708 73.5 c 128,-1,5
 603 -23 603 -23 421 -23 c 0,6,7
 250 -23 250 -23 156 61 c 128,-1,8
 62 145 62 145 62 267 c 0,9,10
 62 361 62 361 116 431 c 128,-1,11
 170 501 170 501 297 559 c 1,12,13
 159 664 159 664 120 730.5 c 128,-1,14
 81 797 81 797 81 886 c 0,15,16
 81 1002 81 1002 180 1090 c 128,-1,17
 279 1178 279 1178 450 1178 c 0,18,19
 616 1178 616 1178 705.5 1100 c 128,-1,20
 795 1022 795 1022 795 912 c 0,21,22
 795 831 795 831 747 768 c 128,-1,23
 699 705 699 705 596 655 c 1,0,1
532 699 m 1,24,25
 562 741 562 741 578 794 c 128,-1,26
 594 847 594 847 594 910 c 0,27,28
 594 1021 594 1021 546 1080 c 0,29,30
 511 1126 511 1126 447 1126 c 0,31,32
 390 1126 390 1126 350 1084 c 128,-1,33
 310 1042 310 1042 310 981 c 0,34,35
 310 918 310 918 355 851 c 128,-1,36
 400 784 400 784 532 699 c 1,24,25
361 518 m 1,37,38
 335 493 335 493 322 474 c 0,39,40
 305 444 305 444 292 387 c 128,-1,41
 279 330 279 330 279 267 c 0,42,43
 279 187 279 187 299.5 133 c 128,-1,44
 320 79 320 79 357.5 55 c 128,-1,45
 395 31 395 31 436 31 c 0,46,47
 498 31 498 31 540.5 76.5 c 128,-1,48
 583 122 583 122 583 202 c 0,49,50
 583 368 583 368 361 518 c 1,37,38
EndSplineSet
EndChar

StartChar: nine
Encoding: 57 57 21
Width: 875
Flags: W
LayerCount: 2
Fore
SplineSet
53 0 m 1,0,1
 196 32 196 32 294.5 95.5 c 128,-1,2
 393 159 393 159 450.5 252 c 128,-1,3
 508 345 508 345 532 466 c 1,4,5
 479 439 479 439 441.5 428 c 128,-1,6
 404 417 404 417 363 417 c 0,7,8
 231 417 231 417 144 512.5 c 128,-1,9
 57 608 57 608 57 773 c 0,10,11
 57 886 57 886 104 982 c 128,-1,12
 151 1078 151 1078 239 1130 c 128,-1,13
 327 1182 327 1182 422 1182 c 0,14,15
 523 1182 523 1182 614 1124 c 128,-1,16
 705 1066 705 1066 759 955.5 c 128,-1,17
 813 845 813 845 813 705 c 0,18,19
 813 522 813 522 725 354.5 c 128,-1,20
 637 187 637 187 463.5 86 c 128,-1,21
 290 -15 290 -15 53 -23 c 1,22,-1
 53 0 l 1,0,1
545 538 m 1,23,24
 554 635 554 635 554 707 c 0,25,26
 554 862 554 862 517 997 c 0,27,28
 497 1070 497 1070 456 1105 c 0,29,30
 434 1125 434 1125 400 1125 c 0,31,32
 358 1125 358 1125 335 1088 c 0,33,34
 301 1037 301 1037 301 895 c 0,35,36
 301 659 301 659 357 570 c 0,37,38
 394 511 394 511 456 511 c 0,39,40
 489 511 489 511 545 538 c 1,23,24
EndSplineSet
EndChar

StartChar: less
Encoding: 60 60 22
Width: 1117
Flags: W
LayerCount: 2
Fore
SplineSet
955 58 m 1,0,-1
 150 444 l 1,1,-1
 150 534 l 1,2,-1
 955 918 l 1,3,-1
 955 784 l 1,4,-1
 331 489 l 1,5,-1
 955 192 l 1,6,-1
 955 58 l 1,0,-1
EndSplineSet
EndChar

StartChar: equal
Encoding: 61 61 23
Width: 1117
Flags: W
LayerCount: 2
Fore
SplineSet
973 586 m 1,0,-1
 144 586 l 1,1,-1
 144 706 l 1,2,-1
 973 706 l 1,3,-1
 973 586 l 1,0,-1
973 271 m 1,4,-1
 144 271 l 1,5,-1
 144 391 l 1,6,-1
 973 391 l 1,7,-1
 973 271 l 1,4,-1
EndSplineSet
EndChar

StartChar: greater
Encoding: 62 62 24
Width: 1117
Flags: W
LayerCount: 2
Fore
SplineSet
966 444 m 1,0,-1
 160 58 l 1,1,-1
 160 192 l 1,2,-1
 786 489 l 1,3,-1
 160 784 l 1,4,-1
 160 918 l 1,5,-1
 966 534 l 1,6,-1
 966 444 l 1,0,-1
EndSplineSet
EndChar

StartChar: question
Encoding: 63 63 25
Width: 875
Flags: W
LayerCount: 2
Fore
SplineSet
380 378 m 1,0,1
 378 472 378 472 389 519 c 128,-1,2
 400 566 400 566 444.5 649 c 128,-1,3
 489 732 489 732 503.5 781.5 c 128,-1,4
 518 831 518 831 518 904 c 0,5,6
 518 1019 518 1019 473.5 1072.5 c 128,-1,7
 429 1126 429 1126 368 1126 c 0,8,9
 322 1126 322 1126 290 1101 c 0,10,11
 267 1083 267 1083 267 1062 c 0,12,13
 267 1048 267 1048 283 1019 c 0,14,15
 320 954 320 954 320 908 c 0,16,17
 320 865 320 865 291.5 837.5 c 128,-1,18
 263 810 263 810 220 810 c 0,19,20
 172 810 172 810 139.5 843.5 c 128,-1,21
 107 877 107 877 107 933 c 0,22,23
 107 1032 107 1032 194 1108.5 c 128,-1,24
 281 1185 281 1185 438 1185 c 0,25,26
 603 1185 603 1185 689.5 1106 c 128,-1,27
 776 1027 776 1027 776 915 c 0,28,29
 776 834 776 834 732 765 c 128,-1,30
 688 696 688 696 561 613 c 0,31,32
 475 556 475 556 448 512 c 128,-1,33
 421 468 421 468 416 378 c 1,34,-1
 380 378 l 1,0,1
406 253 m 256,35,36
 464 253 464 253 504 213 c 128,-1,37
 544 173 544 173 544 116 c 0,38,39
 544 58 544 58 504 17.5 c 128,-1,40
 464 -23 464 -23 406 -23 c 256,41,42
 348 -23 348 -23 308 17.5 c 128,-1,43
 268 58 268 58 268 116 c 0,44,45
 268 173 268 173 308 213 c 128,-1,46
 348 253 348 253 406 253 c 256,35,36
EndSplineSet
EndChar

StartChar: at
Encoding: 64 64 26
Width: 1628
Flags: W
LayerCount: 2
Fore
SplineSet
1007 790 m 1,0,-1
 1216 799 l 1,1,-1
 1059 263 l 2,2,3
 1032 173 1032 173 1032 129 c 0,4,5
 1032 101 1032 101 1052.5 81.5 c 128,-1,6
 1073 62 1073 62 1102 62 c 0,7,8
 1161 62 1161 62 1254 130 c 128,-1,9
 1347 198 1347 198 1408.5 323.5 c 128,-1,10
 1470 449 1470 449 1470 592 c 0,11,12
 1470 828 1470 828 1319 979.5 c 128,-1,13
 1168 1131 1168 1131 924 1131 c 0,14,15
 714 1131 714 1131 541.5 1032.5 c 128,-1,16
 369 934 369 934 269 745.5 c 128,-1,17
 169 557 169 557 169 343 c 0,18,19
 169 47 169 47 357 -141.5 c 128,-1,20
 545 -330 545 -330 837 -330 c 0,21,22
 1077 -330 1077 -330 1267.5 -200.5 c 128,-1,23
 1458 -71 1458 -71 1537 141 c 1,24,-1
 1590 141 l 1,25,26
 1486 -110 1486 -110 1290.5 -244 c 128,-1,27
 1095 -378 1095 -378 835 -378 c 0,28,29
 506 -378 506 -378 292.5 -165.5 c 128,-1,30
 79 47 79 47 79 373 c 0,31,32
 79 596 79 596 184.5 787 c 128,-1,33
 290 978 290 978 481.5 1081.5 c 128,-1,34
 673 1185 673 1185 906 1185 c 0,35,36
 1095 1185 1095 1185 1236.5 1109.5 c 128,-1,37
 1378 1034 1378 1034 1448 897 c 128,-1,38
 1518 760 1518 760 1518 609 c 0,39,40
 1518 432 1518 432 1442 285.5 c 128,-1,41
 1366 139 1366 139 1252 69.5 c 128,-1,42
 1138 0 1138 0 1006 0 c 0,43,44
 922 0 922 0 877.5 42 c 128,-1,45
 833 84 833 84 833 150 c 0,46,47
 833 196 833 196 854 271 c 1,48,49
 783 151 783 151 743 107 c 0,50,51
 690 46 690 46 636 18 c 0,52,53
 603 0 603 0 559 0 c 0,54,55
 498 0 498 0 457 48 c 128,-1,56
 416 96 416 96 416 190 c 0,57,58
 416 285 416 285 443.5 377 c 128,-1,59
 471 469 471 469 518.5 549.5 c 128,-1,60
 566 630 566 630 629 694 c 128,-1,61
 692 758 692 758 771 801 c 0,62,63
 811 822 811 822 856 822 c 0,64,65
 904 822 904 822 935.5 792.5 c 128,-1,66
 967 763 967 763 978 689 c 1,67,-1
 1007 790 l 1,0,-1
878 762 m 0,68,69
 845 762 845 762 813 725 c 0,70,71
 771 677 771 677 723 562 c 0,72,73
 635 359 635 359 635 235 c 0,74,75
 635 198 635 198 651 177 c 128,-1,76
 667 156 667 156 685 156 c 256,77,78
 703 156 703 156 732 181 c 0,79,80
 776 214 776 214 826 293.5 c 128,-1,81
 876 373 876 373 907.5 469.5 c 128,-1,82
 939 566 939 566 939 648 c 0,83,84
 939 707 939 707 917 738 c 0,85,86
 901 762 901 762 878 762 c 0,68,69
EndSplineSet
EndChar

StartChar: A
Encoding: 65 65 27
Width: 1264
Flags: W
LayerCount: 2
Fore
SplineSet
728 330 m 1,0,-1
 319 330 l 1,1,-1
 271 217 l 2,2,3
 246 160 246 160 246 124 c 0,4,5
 246 75 246 75 285 53 c 0,6,7
 309 38 309 38 400 32 c 1,8,-1
 400 0 l 1,9,-1
 14 0 l 1,10,-1
 14 32 l 1,11,12
 76 41 76 41 116 83.5 c 128,-1,13
 156 126 156 126 215 258 c 2,14,-1
 630 1182 l 1,15,-1
 646 1182 l 1,16,-1
 1064 233 l 2,17,18
 1123 97 1123 97 1162 62 c 0,19,20
 1191 36 1191 36 1244 32 c 1,21,-1
 1244 0 l 1,22,-1
 684 0 l 1,23,-1
 684 32 l 1,24,-1
 707 32 l 2,25,26
 774 32 774 32 801 50 c 0,27,28
 821 64 821 64 821 90 c 0,29,30
 821 105 821 105 815 122 c 0,31,32
 813 129 813 129 789 186 c 2,33,-1
 728 330 l 1,0,-1
699 393 m 1,34,-1
 527 792 l 1,35,-1
 348 393 l 1,36,-1
 699 393 l 1,34,-1
EndSplineSet
EndChar

StartChar: B
Encoding: 66 66 28
Width: 1168
Flags: W
LayerCount: 2
Fore
SplineSet
779 614 m 1,0,1
 943 576 943 576 1010 522 c 0,2,3
 1105 443 1105 443 1105 320 c 0,4,5
 1105 189 1105 189 1000 103 c 0,6,7
 871 0 871 0 626 0 c 2,8,-1
 36 0 l 1,9,-1
 36 32 l 1,10,11
 117 32 117 32 145.5 47 c 128,-1,12
 174 62 174 62 186 85.5 c 128,-1,13
 198 109 198 109 198 203 c 2,14,-1
 198 955 l 2,15,16
 198 1048 198 1048 186 1073 c 128,-1,17
 174 1098 174 1098 145.5 1112.5 c 128,-1,18
 117 1127 117 1127 36 1127 c 1,19,-1
 36 1159 l 1,20,-1
 592 1159 l 2,21,22
 791 1159 791 1159 874 1123.5 c 128,-1,23
 957 1088 957 1088 1005 1017 c 128,-1,24
 1053 946 1053 946 1053 867 c 0,25,26
 1053 784 1053 784 992 718 c 128,-1,27
 931 652 931 652 779 614 c 1,0,1
468 637 m 1,28,29
 588 637 588 637 646 664.5 c 128,-1,30
 704 692 704 692 734.5 741.5 c 128,-1,31
 765 791 765 791 765 869 c 0,32,33
 765 945 765 945 735 994 c 128,-1,34
 705 1043 705 1043 648.5 1069 c 128,-1,35
 592 1095 592 1095 468 1094 c 1,36,-1
 468 637 l 1,28,29
468 198 m 1,37,-1
 466 156 l 2,38,39
 466 110 466 110 490 86.5 c 128,-1,40
 514 63 514 63 560 63 c 0,41,42
 628 63 628 63 685.5 93.5 c 128,-1,43
 743 124 743 124 774 181.5 c 128,-1,44
 805 239 805 239 805 310 c 0,45,46
 805 391 805 391 767.5 455.5 c 128,-1,47
 730 520 730 520 664 545.5 c 128,-1,48
 598 571 598 571 468 570 c 1,49,-1
 468 198 l 1,37,-1
EndSplineSet
EndChar

StartChar: C
Encoding: 67 67 29
Width: 1264
Flags: W
LayerCount: 2
Fore
SplineSet
1169 1185 m 1,0,-1
 1169 784 l 1,1,-1
 1134 784 l 1,2,3
 1096 941 1096 941 994 1025 c 128,-1,4
 892 1109 892 1109 763 1109 c 0,5,6
 653 1109 653 1109 562.5 1046 c 128,-1,7
 472 983 472 983 431 882 c 0,8,9
 377 754 377 754 377 596 c 0,10,11
 377 440 377 440 416 312.5 c 128,-1,12
 455 185 455 185 539 119 c 128,-1,13
 623 53 623 53 756 53 c 0,14,15
 865 53 865 53 956.5 101.5 c 128,-1,16
 1048 150 1048 150 1148 267 c 1,17,-1
 1148 166 l 1,18,19
 1051 65 1051 65 945 19 c 128,-1,20
 839 -27 839 -27 699 -27 c 0,21,22
 514 -27 514 -27 369.5 47.5 c 128,-1,23
 225 122 225 122 147 261 c 128,-1,24
 69 400 69 400 69 557 c 0,25,26
 69 724 69 724 155.5 872.5 c 128,-1,27
 242 1021 242 1021 390 1103 c 128,-1,28
 538 1185 538 1185 703 1185 c 0,29,30
 826 1185 826 1185 961 1132 c 0,31,32
 1040 1101 1040 1101 1062 1101 c 0,33,34
 1088 1101 1088 1101 1108.5 1121.5 c 128,-1,35
 1129 1142 1129 1142 1134 1185 c 1,36,-1
 1169 1185 l 1,0,-1
EndSplineSet
EndChar

StartChar: D
Encoding: 68 68 30
Width: 1264
Flags: W
LayerCount: 2
Fore
SplineSet
23 0 m 1,0,-1
 23 32 l 1,1,-1
 62 32 l 2,2,3
 112 32 112 32 139 47.5 c 128,-1,4
 166 63 166 63 178 91 c 0,5,6
 186 109 186 109 186 198 c 2,7,-1
 186 960 l 2,8,9
 186 1048 186 1048 176.5 1071 c 128,-1,10
 167 1094 167 1094 138.5 1110.5 c 128,-1,11
 110 1127 110 1127 62 1127 c 2,12,-1
 23 1127 l 1,13,-1
 23 1159 l 1,14,-1
 541 1159 l 2,15,16
 749 1159 749 1159 876 1102 c 0,17,18
 1031 1032 1031 1032 1110.5 892.5 c 128,-1,19
 1190 753 1190 753 1190 576 c 0,20,21
 1190 454 1190 454 1151 350.5 c 128,-1,22
 1112 247 1112 247 1049.5 180 c 128,-1,23
 987 113 987 113 905 72.5 c 128,-1,24
 823 32 823 32 706 11 c 0,25,26
 653 0 653 0 541 0 c 2,27,-1
 23 0 l 1,0,-1
465 189 m 2,28,29
 465 117 465 117 472 101 c 128,-1,30
 479 85 479 85 495 76 c 0,31,32
 518 63 518 63 562 63 c 0,33,34
 704 63 704 63 780 160 c 0,35,36
 882 293 882 293 882 570 c 0,37,38
 882 792 882 792 812 925 c 0,39,40
 756 1030 756 1030 668 1067 c 0,41,42
 608 1094 608 1094 465 1093 c 1,43,-1
 465 189 l 2,28,29
EndSplineSet
EndChar

StartChar: E
Encoding: 69 69 31
Width: 1168
Flags: W
LayerCount: 2
Fore
SplineSet
476 1091 m 1,0,-1
 476 620 l 1,1,-1
 500 620 l 2,2,3
 610 620 610 620 659.5 689 c 128,-1,4
 709 758 709 758 723 894 c 1,5,-1
 755 894 l 1,6,-1
 755 287 l 1,7,-1
 723 287 l 1,8,9
 712 386 712 386 679.5 449.5 c 128,-1,10
 647 513 647 513 603.5 534.5 c 128,-1,11
 560 556 560 556 476 556 c 1,12,-1
 476 230 l 2,13,14
 476 134 476 134 484.5 113 c 128,-1,15
 493 92 493 92 515.5 78 c 128,-1,16
 538 64 538 64 587 64 c 2,17,-1
 656 64 l 2,18,19
 818 64 818 64 916.5 139 c 128,-1,20
 1015 214 1015 214 1057 368 c 1,21,-1
 1088 368 l 1,22,-1
 1036 0 l 1,23,-1
 36 0 l 1,24,-1
 36 32 l 1,25,-1
 74 32 l 2,26,27
 124 32 124 32 155 49 c 0,28,29
 177 62 177 62 189 91 c 0,30,31
 198 111 198 111 198 198 c 2,32,-1
 198 960 l 2,33,34
 198 1040 198 1040 194 1057 c 0,35,36
 186 1088 186 1088 162 1104 c 0,37,38
 130 1127 130 1127 74 1127 c 2,39,-1
 36 1127 l 1,40,-1
 36 1159 l 1,41,-1
 1005 1159 l 1,42,-1
 1005 816 l 1,43,-1
 972 816 l 1,44,45
 947 942 947 942 902.5 996.5 c 128,-1,46
 858 1051 858 1051 775 1077 c 0,47,48
 728 1091 728 1091 596 1091 c 2,49,-1
 476 1091 l 1,0,-1
EndSplineSet
EndChar

StartChar: F
Encoding: 70 70 32
Width: 1069
Flags: W
LayerCount: 2
Fore
SplineSet
481 1091 m 1,0,-1
 481 616 l 1,1,-1
 514 616 l 2,2,3
 592 616 592 616 640.5 639 c 128,-1,4
 689 662 689 662 722.5 716.5 c 128,-1,5
 756 771 756 771 767 865 c 1,6,-1
 797 865 l 1,7,-1
 797 283 l 1,8,-1
 767 283 l 1,9,10
 749 448 749 448 677 501 c 128,-1,11
 605 554 605 554 514 554 c 2,12,-1
 481 554 l 1,13,-1
 481 198 l 2,14,15
 481 109 481 109 491 87 c 128,-1,16
 501 65 501 65 529 48.5 c 128,-1,17
 557 32 557 32 607 32 c 2,18,-1
 645 32 l 1,19,-1
 645 0 l 1,20,-1
 39 0 l 1,21,-1
 39 32 l 1,22,-1
 78 32 l 2,23,24
 128 32 128 32 159 49 c 0,25,26
 182 62 182 62 193 91 c 0,27,28
 203 111 203 111 203 198 c 2,29,-1
 203 960 l 2,30,31
 203 1048 203 1048 193 1071 c 128,-1,32
 183 1094 183 1094 154.5 1110.5 c 128,-1,33
 126 1127 126 1127 78 1127 c 2,34,-1
 39 1127 l 1,35,-1
 39 1159 l 1,36,-1
 1016 1159 l 1,37,-1
 1016 827 l 1,38,-1
 982 827 l 1,39,40
 970 943 970 943 920.5 999.5 c 128,-1,41
 871 1056 871 1056 779 1079 c 0,42,43
 727 1091 727 1091 588 1091 c 2,44,-1
 481 1091 l 1,0,-1
EndSplineSet
EndChar

StartChar: G
Encoding: 71 71 33
Width: 1361
Flags: W
LayerCount: 2
Fore
SplineSet
1207 1185 m 1,0,-1
 1207 776 l 1,1,-1
 1176 776 l 1,2,3
 1118 944 1118 944 1004 1031 c 128,-1,4
 890 1118 890 1118 754 1118 c 0,5,6
 624 1118 624 1118 537 1045 c 128,-1,7
 450 972 450 972 414.5 841.5 c 128,-1,8
 379 711 379 711 379 573 c 0,9,10
 379 407 379 407 418.5 281.5 c 128,-1,11
 458 156 458 156 546 96.5 c 128,-1,12
 634 37 634 37 754 37 c 0,13,14
 796 37 796 37 839.5 46 c 128,-1,15
 883 55 883 55 929 73 c 1,16,-1
 929 314 l 2,17,18
 929 383 929 383 920 402.5 c 128,-1,19
 911 422 911 422 882 438.5 c 128,-1,20
 853 455 853 455 810 455 c 2,21,-1
 780 455 l 1,22,-1
 780 486 l 1,23,-1
 1344 486 l 1,24,-1
 1344 455 l 1,25,26
 1280 450 1280 450 1254 437 c 128,-1,27
 1228 424 1228 424 1216 393 c 0,28,29
 1207 377 1207 377 1207 314 c 2,30,-1
 1207 73 l 1,31,32
 1096 23 1096 23 976 -2.5 c 128,-1,33
 856 -28 856 -28 727 -28 c 0,34,35
 562 -28 562 -28 453 17 c 128,-1,36
 344 62 344 62 260.5 135 c 128,-1,37
 177 208 177 208 130 300 c 0,38,39
 70 417 70 417 70 564 c 0,40,41
 70 826 70 826 254 1005.5 c 128,-1,42
 438 1185 438 1185 716 1185 c 0,43,44
 803 1185 803 1185 872 1173 c 0,45,46
 910 1165 910 1165 994.5 1133 c 128,-1,47
 1079 1101 1079 1101 1094 1101 c 0,48,49
 1117 1101 1117 1101 1138 1119 c 128,-1,50
 1159 1137 1159 1137 1176 1185 c 1,51,-1
 1207 1185 l 1,0,-1
EndSplineSet
EndChar

StartChar: H
Encoding: 72 72 34
Width: 1361
Flags: W
LayerCount: 2
Fore
SplineSet
479 557 m 1,0,-1
 479 198 l 2,1,2
 479 109 479 109 488.5 87 c 128,-1,3
 498 65 498 65 526.5 48.5 c 128,-1,4
 555 32 555 32 604 32 c 2,5,-1
 643 32 l 1,6,-1
 643 0 l 1,7,-1
 36 0 l 1,8,-1
 36 32 l 1,9,-1
 75 32 l 2,10,11
 126 32 126 32 156 49 c 0,12,13
 178 62 178 62 190 91 c 0,14,15
 199 111 199 111 199 198 c 2,16,-1
 199 960 l 2,17,18
 199 1048 199 1048 190.5 1071 c 128,-1,19
 182 1094 182 1094 153 1110.5 c 128,-1,20
 124 1127 124 1127 75 1127 c 2,21,-1
 36 1127 l 1,22,-1
 36 1159 l 1,23,-1
 643 1159 l 1,24,-1
 643 1127 l 1,25,-1
 604 1127 l 2,26,27
 554 1127 554 1127 523 1109 c 0,28,29
 501 1096 501 1096 488 1068 c 0,30,31
 479 1048 479 1048 479 960 c 2,32,-1
 479 632 l 1,33,-1
 887 632 l 1,34,-1
 887 960 l 2,35,36
 887 1048 887 1048 878.5 1071 c 128,-1,37
 870 1094 870 1094 840.5 1110.5 c 128,-1,38
 811 1127 811 1127 763 1127 c 2,39,-1
 724 1127 l 1,40,-1
 724 1159 l 1,41,-1
 1330 1159 l 1,42,-1
 1330 1127 l 1,43,-1
 1292 1127 l 2,44,45
 1241 1127 1241 1127 1211 1109 c 0,46,47
 1189 1096 1189 1096 1176 1068 c 0,48,49
 1166 1048 1166 1048 1166 960 c 2,50,-1
 1166 198 l 2,51,52
 1166 109 1166 109 1175.5 87 c 128,-1,53
 1185 65 1185 65 1214 48.5 c 128,-1,54
 1243 32 1243 32 1292 32 c 2,55,-1
 1330 32 l 1,56,-1
 1330 0 l 1,57,-1
 724 0 l 1,58,-1
 724 32 l 1,59,-1
 763 32 l 2,60,61
 813 32 813 32 844 49 c 0,62,63
 865 62 865 62 878 91 c 0,64,65
 887 111 887 111 887 198 c 2,66,-1
 887 557 l 1,67,-1
 479 557 l 1,0,-1
EndSplineSet
EndChar

StartChar: I
Encoding: 73 73 35
Width: 682
Flags: W
LayerCount: 2
Fore
SplineSet
641 32 m 1,0,-1
 641 0 l 1,1,-1
 36 0 l 1,2,-1
 36 32 l 1,3,-1
 74 32 l 2,4,5
 124 32 124 32 155 49 c 0,6,7
 177 62 177 62 189 91 c 0,8,9
 198 111 198 111 198 198 c 2,10,-1
 198 960 l 2,11,12
 198 1048 198 1048 189 1071 c 128,-1,13
 180 1094 180 1094 151 1110.5 c 128,-1,14
 122 1127 122 1127 74 1127 c 2,15,-1
 36 1127 l 1,16,-1
 36 1159 l 1,17,-1
 641 1159 l 1,18,-1
 641 1127 l 1,19,-1
 603 1127 l 2,20,21
 552 1127 552 1127 522 1109 c 0,22,23
 498 1096 498 1096 486 1068 c 0,24,25
 476 1048 476 1048 476 960 c 2,26,-1
 476 198 l 2,27,28
 476 109 476 109 486.5 87 c 128,-1,29
 497 65 497 65 525.5 48.5 c 128,-1,30
 554 32 554 32 603 32 c 2,31,-1
 641 32 l 1,0,-1
EndSplineSet
EndChar

StartChar: J
Encoding: 74 74 36
Width: 875
Flags: W
LayerCount: 2
Fore
SplineSet
249 1127 m 1,0,-1
 249 1159 l 1,1,-1
 865 1159 l 1,2,-1
 865 1127 l 1,3,-1
 827 1127 l 2,4,5
 775 1127 775 1127 746 1109 c 0,6,7
 724 1096 724 1096 711 1068 c 0,8,9
 701 1048 701 1048 701 960 c 2,10,-1
 701 393 l 2,11,12
 701 226 701 226 668 150.5 c 128,-1,13
 635 75 635 75 550 24 c 128,-1,14
 465 -27 465 -27 345 -27 c 0,15,16
 198 -27 198 -27 109 50 c 128,-1,17
 20 127 20 127 20 220 c 0,18,19
 20 279 20 279 56 316.5 c 128,-1,20
 92 354 92 354 145 354 c 256,21,22
 198 354 198 354 233 321 c 128,-1,23
 268 288 268 288 268 239 c 0,24,25
 268 215 268 215 263 198 c 0,26,27
 258 189 258 189 235 154 c 128,-1,28
 212 119 212 119 212 105 c 0,29,30
 212 84 212 84 234 66 c 0,31,32
 267 43 267 43 319 43 c 0,33,34
 356 43 356 43 380 61.5 c 128,-1,35
 404 80 404 80 413.5 120 c 128,-1,36
 423 160 423 160 423 341 c 2,37,-1
 423 960 l 2,38,39
 423 1048 423 1048 413.5 1071 c 128,-1,40
 404 1094 404 1094 375 1110.5 c 128,-1,41
 346 1127 346 1127 297 1127 c 2,42,-1
 249 1127 l 1,0,-1
EndSplineSet
EndChar

StartChar: K
Encoding: 75 75 37
Width: 1361
Flags: W
LayerCount: 2
Fore
SplineSet
728 716 m 1,0,-1
 1137 205 l 2,1,2
 1223 97 1223 97 1285 59 c 0,3,4
 1331 32 1331 32 1381 32 c 1,5,-1
 1381 0 l 1,6,-1
 778 0 l 1,7,-1
 778 32 l 1,8,9
 835 36 835 36 852 49 c 128,-1,10
 869 62 869 62 869 81 c 0,11,12
 869 117 869 117 789 215 c 2,13,-1
 523 550 l 1,14,-1
 481 514 l 1,15,-1
 481 198 l 2,16,17
 481 108 481 108 491.5 85.5 c 128,-1,18
 502 63 502 63 531 47.5 c 128,-1,19
 560 32 560 32 624 32 c 1,20,-1
 624 0 l 1,21,-1
 39 0 l 1,22,-1
 39 32 l 1,23,-1
 78 32 l 2,24,25
 128 32 128 32 159 49 c 0,26,27
 182 62 182 62 193 91 c 0,28,29
 203 111 203 111 203 198 c 2,30,-1
 203 960 l 2,31,32
 203 1048 203 1048 193 1071 c 128,-1,33
 183 1094 183 1094 154.5 1110.5 c 128,-1,34
 126 1127 126 1127 78 1127 c 2,35,-1
 39 1127 l 1,36,-1
 39 1159 l 1,37,-1
 616 1159 l 1,38,-1
 616 1127 l 1,39,40
 557 1127 557 1127 527 1110 c 0,41,42
 504 1098 504 1098 491 1070 c 0,43,44
 481 1048 481 1048 481 960 c 2,45,-1
 481 600 l 1,46,-1
 911 947 l 2,47,48
 1000 1020 1000 1020 1000 1064 c 0,49,50
 1000 1096 1000 1096 963 1115 c 0,51,52
 945 1125 945 1125 870 1127 c 1,53,-1
 870 1159 l 1,54,-1
 1323 1159 l 1,55,-1
 1323 1127 l 1,56,57
 1262 1122 1262 1122 1227.5 1105 c 128,-1,58
 1193 1088 1193 1088 1068 987 c 2,59,-1
 728 716 l 1,0,-1
EndSplineSet
EndChar

StartChar: L
Encoding: 76 76 38
Width: 1168
Flags: W
LayerCount: 2
Fore
SplineSet
1104 407 m 1,0,-1
 1062 0 l 1,1,-1
 32 0 l 1,2,-1
 32 32 l 1,3,-1
 70 32 l 2,4,5
 122 32 122 32 151 49 c 0,6,7
 174 62 174 62 186 91 c 0,8,9
 196 111 196 111 196 198 c 2,10,-1
 196 960 l 2,11,12
 196 1048 196 1048 186.5 1071 c 128,-1,13
 177 1094 177 1094 148 1110.5 c 128,-1,14
 119 1127 119 1127 70 1127 c 2,15,-1
 32 1127 l 1,16,-1
 32 1159 l 1,17,-1
 651 1159 l 1,18,-1
 651 1127 l 1,19,-1
 600 1127 l 2,20,21
 549 1127 549 1127 519 1109 c 0,22,23
 497 1096 497 1096 484 1068 c 0,24,25
 474 1048 474 1048 474 960 c 2,26,-1
 474 222 l 2,27,28
 474 133 474 133 484.5 109 c 128,-1,29
 495 85 495 85 524 73 c 0,30,31
 546 65 546 65 628 65 c 2,32,-1
 724 65 l 2,33,34
 817 65 817 65 878.5 97.5 c 128,-1,35
 940 130 940 130 985 200.5 c 128,-1,36
 1030 271 1030 271 1070 407 c 1,37,-1
 1104 407 l 1,0,-1
EndSplineSet
EndChar

StartChar: M
Encoding: 77 77 39
Width: 1651
Flags: W
LayerCount: 2
Fore
SplineSet
834 395 m 1,0,-1
 1148 1159 l 1,1,-1
 1620 1159 l 1,2,-1
 1620 1127 l 1,3,-1
 1582 1127 l 2,4,5
 1532 1127 1532 1127 1501 1109 c 0,6,7
 1479 1096 1479 1096 1467 1069 c 0,8,9
 1457 1048 1457 1048 1457 962 c 2,10,-1
 1457 198 l 2,11,12
 1457 109 1457 109 1466.5 87 c 128,-1,13
 1476 65 1476 65 1504.5 48.5 c 128,-1,14
 1533 32 1533 32 1582 32 c 2,15,-1
 1620 32 l 1,16,-1
 1620 0 l 1,17,-1
 1015 0 l 1,18,-1
 1015 32 l 1,19,-1
 1053 32 l 2,20,21
 1104 32 1104 32 1134 49 c 0,22,23
 1155 62 1155 62 1169 91 c 0,24,25
 1178 111 1178 111 1178 198 c 2,26,-1
 1178 1057 l 1,27,-1
 733 0 l 1,28,-1
 714 0 l 1,29,-1
 263 1048 l 1,30,-1
 263 233 l 2,31,32
 263 148 263 148 267 128 c 0,33,34
 278 85 278 85 315 58.5 c 128,-1,35
 352 32 352 32 432 32 c 1,36,-1
 432 0 l 1,37,-1
 36 0 l 1,38,-1
 36 32 l 1,39,-1
 47 32 l 2,40,41
 85 31 85 31 118 44.5 c 128,-1,42
 151 58 151 58 168.5 79.5 c 128,-1,43
 186 101 186 101 196 142 c 0,44,45
 198 151 198 151 198 229 c 2,46,-1
 198 962 l 2,47,48
 198 1050 198 1050 188 1072 c 128,-1,49
 178 1094 178 1094 149.5 1110.5 c 128,-1,50
 121 1127 121 1127 71 1127 c 2,51,-1
 36 1127 l 1,52,-1
 36 1159 l 1,53,-1
 508 1159 l 1,54,-1
 834 395 l 1,0,-1
EndSplineSet
EndChar

StartChar: N
Encoding: 78 78 40
Width: 1264
Flags: W
LayerCount: 2
Fore
SplineSet
436 1159 m 1,0,-1
 1007 440 l 1,1,-1
 1007 938 l 2,2,3
 1007 1042 1007 1042 977 1079 c 0,4,5
 936 1129 936 1129 839 1127 c 1,6,-1
 839 1159 l 1,7,-1
 1223 1159 l 1,8,-1
 1223 1127 l 1,9,10
 1149 1117 1149 1117 1124 1102.5 c 128,-1,11
 1099 1088 1099 1088 1084.5 1054 c 128,-1,12
 1070 1020 1070 1020 1070 938 c 2,13,-1
 1070 -27 l 1,14,-1
 1041 -27 l 1,15,-1
 258 938 l 1,16,-1
 258 202 l 2,17,18
 258 101 258 101 303.5 66.5 c 128,-1,19
 349 32 349 32 408 32 c 2,20,-1
 436 32 l 1,21,-1
 436 0 l 1,22,-1
 25 0 l 1,23,-1
 25 32 l 1,24,25
 121 32 121 32 158.5 70.5 c 128,-1,26
 196 109 196 109 196 202 c 2,27,-1
 196 1019 l 1,28,-1
 171 1050 l 2,29,30
 134 1096 134 1096 106 1111 c 128,-1,31
 78 1126 78 1126 25 1127 c 1,32,-1
 25 1159 l 1,33,-1
 436 1159 l 1,0,-1
EndSplineSet
EndChar

StartChar: O
Encoding: 79 79 41
Width: 1361
Flags: W
LayerCount: 2
Fore
SplineSet
676 1175 m 1,0,1
 952 1185 952 1185 1125.5 1013.5 c 128,-1,2
 1299 842 1299 842 1299 583 c 0,3,4
 1299 363 1299 363 1169 196 c 0,5,6
 999 -27 999 -27 687 -27 c 0,7,8
 374 -27 374 -27 203 186 c 0,9,10
 69 352 69 352 69 583 c 0,11,12
 69 840 69 840 244.5 1012.5 c 128,-1,13
 420 1185 420 1185 676 1175 c 1,0,1
685 1121 m 0,14,15
 528 1121 528 1121 444 958 c 0,16,17
 377 824 377 824 377 575 c 0,18,19
 377 279 377 279 481 137 c 0,20,21
 554 37 554 37 684 37 c 0,22,23
 773 37 773 37 831 80 c 0,24,25
 907 134 907 134 948.5 254.5 c 128,-1,26
 990 375 990 375 990 568 c 0,27,28
 990 797 990 797 947 911.5 c 128,-1,29
 904 1026 904 1026 838.5 1073.5 c 128,-1,30
 773 1121 773 1121 685 1121 c 0,14,15
EndSplineSet
EndChar

StartChar: P
Encoding: 80 80 42
Width: 1069
Flags: W
LayerCount: 2
Fore
SplineSet
472 203 m 2,0,1
 472 109 472 109 484 85 c 128,-1,2
 496 61 496 61 525 46.5 c 128,-1,3
 554 32 554 32 634 32 c 1,4,-1
 634 0 l 1,5,-1
 44 0 l 1,6,-1
 44 32 l 1,7,8
 125 32 125 32 153.5 47 c 128,-1,9
 182 62 182 62 193.5 85.5 c 128,-1,10
 205 109 205 109 205 203 c 2,11,-1
 205 955 l 2,12,13
 205 1048 205 1048 193.5 1073 c 128,-1,14
 182 1098 182 1098 153 1112.5 c 128,-1,15
 124 1127 124 1127 44 1127 c 1,16,-1
 44 1159 l 1,17,-1
 549 1159 l 2,18,19
 799 1159 799 1159 907 1070 c 128,-1,20
 1015 981 1015 981 1015 848 c 0,21,22
 1015 735 1015 735 945.5 655 c 128,-1,23
 876 575 876 575 753 545 c 0,24,25
 669 524 669 524 472 524 c 1,26,-1
 472 203 l 2,0,1
472 1091 m 1,27,-1
 472 592 l 1,28,29
 501 589 501 589 514 589 c 0,30,31
 619 589 619 589 675.5 651.5 c 128,-1,32
 732 714 732 714 732 844 c 0,33,34
 732 972 732 972 675.5 1031.5 c 128,-1,35
 619 1091 619 1091 507 1091 c 2,36,-1
 472 1091 l 1,27,-1
EndSplineSet
EndChar

StartChar: Q
Encoding: 81 81 43
Width: 1361
Flags: W
LayerCount: 2
Fore
SplineSet
837 -11 m 1,0,1
 876 -124 876 -124 958.5 -181.5 c 128,-1,2
 1041 -239 1041 -239 1166 -239 c 0,3,4
 1201 -239 1201 -239 1239 -231 c 1,5,-1
 1239 -284 l 1,6,7
 1110 -316 1110 -316 1008 -316 c 0,8,9
 849 -316 849 -316 724 -238 c 128,-1,10
 599 -160 599 -160 536 -11 c 1,11,12
 326 34 326 34 197.5 195.5 c 128,-1,13
 69 357 69 357 69 581 c 0,14,15
 69 840 69 840 243 1012.5 c 128,-1,16
 417 1185 417 1185 685 1185 c 0,17,18
 952 1185 952 1185 1125.5 1012 c 128,-1,19
 1299 839 1299 839 1299 581 c 0,20,21
 1299 356 1299 356 1163 189 c 128,-1,22
 1027 22 1027 22 837 -11 c 1,0,1
684 1121 m 0,23,24
 530 1121 530 1121 447 960 c 0,25,26
 377 827 377 827 377 578 c 0,27,28
 377 281 377 281 481 138 c 0,29,30
 555 37 555 37 684 37 c 256,31,32
 813 37 813 37 886 135 c 0,33,34
 992 277 992 277 992 560 c 0,35,36
 992 838 992 838 926 963 c 0,37,38
 844 1121 844 1121 684 1121 c 0,23,24
EndSplineSet
EndChar

StartChar: R
Encoding: 82 82 44
Width: 1264
Flags: W
LayerCount: 2
Fore
SplineSet
465 528 m 1,0,-1
 465 203 l 2,1,2
 465 109 465 109 476.5 85 c 128,-1,3
 488 61 488 61 517 46.5 c 128,-1,4
 546 32 546 32 626 32 c 1,5,-1
 626 0 l 1,6,-1
 32 0 l 1,7,-1
 32 32 l 1,8,9
 113 32 113 32 141.5 47 c 128,-1,10
 170 62 170 62 181.5 85.5 c 128,-1,11
 193 109 193 109 193 203 c 2,12,-1
 193 955 l 2,13,14
 193 1048 193 1048 181.5 1073 c 128,-1,15
 170 1098 170 1098 141 1112.5 c 128,-1,16
 112 1127 112 1127 32 1127 c 1,17,-1
 32 1159 l 1,18,-1
 570 1159 l 2,19,20
 781 1159 781 1159 878.5 1129.5 c 128,-1,21
 976 1100 976 1100 1037.5 1022 c 128,-1,22
 1099 944 1099 944 1099 839 c 0,23,24
 1099 711 1099 711 1006 627 c 0,25,26
 947 575 947 575 842 548 c 1,27,-1
 1121 156 l 2,28,29
 1175 79 1175 79 1198 61 c 0,30,31
 1233 34 1233 34 1280 32 c 1,32,-1
 1280 0 l 1,33,-1
 914 0 l 1,34,-1
 540 528 l 1,35,-1
 465 528 l 1,0,-1
465 1096 m 1,36,-1
 465 588 l 1,37,-1
 514 588 l 2,38,39
 632 588 632 588 690.5 610 c 128,-1,40
 749 632 749 632 783.5 689 c 128,-1,41
 818 746 818 746 818 837 c 0,42,43
 818 970 818 970 756 1033 c 128,-1,44
 694 1096 694 1096 556 1096 c 2,45,-1
 465 1096 l 1,36,-1
EndSplineSet
EndChar

StartChar: S
Encoding: 83 83 45
Width: 973
Flags: W
LayerCount: 2
Fore
SplineSet
822 1185 m 1,0,-1
 831 799 l 1,1,-1
 797 799 l 1,2,3
 771 944 771 944 674.5 1032.5 c 128,-1,4
 578 1121 578 1121 465 1121 c 0,5,6
 378 1121 378 1121 327 1074 c 128,-1,7
 276 1027 276 1027 276 967 c 0,8,9
 276 929 276 929 294 899 c 0,10,11
 319 859 319 859 374 819 c 0,12,13
 413 791 413 791 559 720 c 0,14,15
 763 619 763 619 833 530 c 0,16,17
 903 442 903 442 903 327 c 0,18,19
 903 182 903 182 790 77 c 128,-1,20
 677 -28 677 -28 502 -28 c 0,21,22
 448 -28 448 -28 399.5 -16.5 c 128,-1,23
 351 -5 351 -5 277 26 c 0,24,25
 236 43 236 43 209 43 c 0,26,27
 187 43 187 43 162.5 26 c 128,-1,28
 138 9 138 9 122 -27 c 1,29,-1
 91 -27 l 1,30,-1
 91 411 l 1,31,-1
 122 411 l 1,32,33
 160 226 160 226 267 129 c 128,-1,34
 374 32 374 32 498 32 c 0,35,36
 594 32 594 32 650.5 84.5 c 128,-1,37
 707 137 707 137 707 206 c 0,38,39
 707 247 707 247 685.5 285.5 c 128,-1,40
 664 324 664 324 619.5 358.5 c 128,-1,41
 575 393 575 393 463 449 c 0,42,43
 304 527 304 527 235 581 c 128,-1,44
 166 635 166 635 129 703 c 128,-1,45
 92 771 92 771 92 853 c 0,46,47
 92 990 92 990 193.5 1087.5 c 128,-1,48
 295 1185 295 1185 449 1185 c 0,49,50
 506 1185 506 1185 559 1171 c 0,51,52
 599 1161 599 1161 657 1133 c 128,-1,53
 715 1105 715 1105 737 1105 c 256,54,55
 759 1105 759 1105 772 1119 c 128,-1,56
 785 1133 785 1133 797 1185 c 1,57,-1
 822 1185 l 1,0,-1
EndSplineSet
EndChar

StartChar: T
Encoding: 84 84 46
Width: 1168
Flags: W
LayerCount: 2
Fore
SplineSet
1104 1159 m 1,0,-1
 1104 845 l 1,1,-1
 1073 845 l 1,2,3
 1046 954 1046 954 1012.5 1001 c 128,-1,4
 979 1048 979 1048 920 1077 c 0,5,6
 888 1091 888 1091 807 1091 c 2,7,-1
 721 1091 l 1,8,-1
 721 198 l 2,9,10
 721 109 721 109 731 87 c 128,-1,11
 741 65 741 65 769 48.5 c 128,-1,12
 797 32 797 32 848 32 c 2,13,-1
 886 32 l 1,14,-1
 886 0 l 1,15,-1
 279 0 l 1,16,-1
 279 32 l 1,17,-1
 319 32 l 2,18,19
 368 32 368 32 400 49 c 0,20,21
 421 62 421 62 433 91 c 0,22,23
 443 111 443 111 443 198 c 2,24,-1
 443 1091 l 1,25,-1
 360 1091 l 2,26,27
 242 1091 242 1091 190 1042 c 0,28,29
 116 973 116 973 96 845 c 1,30,-1
 63 845 l 1,31,-1
 63 1159 l 1,32,-1
 1104 1159 l 1,0,-1
EndSplineSet
EndChar

StartChar: U
Encoding: 85 85 47
Width: 1264
Flags: W
LayerCount: 2
Fore
SplineSet
41 1159 m 1,0,-1
 639 1159 l 1,1,-1
 639 1127 l 1,2,-1
 609 1127 l 2,3,4
 541 1127 541 1127 516 1113 c 128,-1,5
 491 1099 491 1099 480.5 1073.5 c 128,-1,6
 470 1048 470 1048 470 951 c 2,7,-1
 470 383 l 2,8,9
 470 228 470 228 493.5 177 c 128,-1,10
 517 126 517 126 571 93 c 128,-1,11
 625 60 625 60 707 60 c 0,12,13
 801 60 801 60 867.5 102 c 128,-1,14
 934 144 934 144 966.5 218.5 c 128,-1,15
 999 293 999 293 999 477 c 2,16,-1
 999 951 l 2,17,18
 999 1027 999 1027 983 1061 c 128,-1,19
 967 1095 967 1095 942 1107 c 0,20,21
 903 1127 903 1127 833 1127 c 1,22,-1
 833 1159 l 1,23,-1
 1234 1159 l 1,24,-1
 1234 1127 l 1,25,-1
 1210 1127 l 2,26,27
 1161 1127 1161 1127 1128.5 1107.5 c 128,-1,28
 1096 1088 1096 1088 1082 1048 c 0,29,30
 1070 1021 1070 1021 1070 951 c 2,31,-1
 1070 511 l 2,32,33
 1070 305 1070 305 1043 215 c 128,-1,34
 1016 125 1016 125 912 48.5 c 128,-1,35
 808 -28 808 -28 628 -28 c 0,36,37
 477 -28 477 -28 395 12 c 0,38,39
 284 68 284 68 237.5 153.5 c 128,-1,40
 191 239 191 239 191 383 c 2,41,-1
 191 951 l 2,42,43
 191 1050 191 1050 180 1074.5 c 128,-1,44
 169 1099 169 1099 141.5 1113.5 c 128,-1,45
 114 1128 114 1128 41 1127 c 1,46,-1
 41 1159 l 1,0,-1
EndSplineSet
EndChar

StartChar: V
Encoding: 86 86 48
Width: 1264
Flags: W
LayerCount: 2
Fore
SplineSet
1245 1159 m 1,0,-1
 1245 1127 l 1,1,2
 1182 1117 1182 1117 1133 1059 c 0,3,4
 1096 1016 1096 1016 1026 859 c 2,5,-1
 627 -27 l 1,6,-1
 599 -27 l 1,7,-1
 202 895 l 2,8,9
 130 1062 130 1062 105.5 1091 c 128,-1,10
 81 1120 81 1120 14 1127 c 1,11,-1
 14 1159 l 1,12,-1
 570 1159 l 1,13,-1
 570 1127 l 1,14,-1
 550 1127 l 2,15,16
 475 1127 475 1127 448 1109 c 0,17,18
 428 1096 428 1096 428 1070 c 0,19,20
 428 1056 428 1056 435 1035 c 128,-1,21
 442 1014 442 1014 481 922 c 2,22,-1
 728 345 l 1,23,-1
 957 859 l 2,24,25
 998 951 998 951 1007 983 c 128,-1,26
 1016 1015 1016 1015 1016 1037 c 0,27,28
 1016 1063 1016 1063 1002.5 1082.5 c 128,-1,29
 989 1102 989 1102 963 1112 c 0,30,31
 926 1127 926 1127 865 1127 c 1,32,-1
 865 1159 l 1,33,-1
 1245 1159 l 1,0,-1
EndSplineSet
EndChar

StartChar: W
Encoding: 87 87 49
Width: 1750
Flags: W
LayerCount: 2
Fore
SplineSet
1735 1159 m 1,0,-1
 1735 1127 l 1,1,2
 1703 1125 1703 1125 1680 1109.5 c 128,-1,3
 1657 1094 1657 1094 1640 1062 c 0,4,5
 1635 1052 1635 1052 1587 929 c 2,6,-1
 1224 -27 l 1,7,-1
 1190 -27 l 1,8,-1
 903 720 l 1,9,-1
 587 -27 l 1,10,-1
 555 -27 l 1,11,-1
 174 919 l 2,12,13
 117 1062 117 1062 93.5 1091.5 c 128,-1,14
 70 1121 70 1121 15 1127 c 1,15,-1
 15 1159 l 1,16,-1
 518 1159 l 1,17,-1
 518 1127 l 1,18,19
 457 1126 457 1126 437 1108.5 c 128,-1,20
 417 1091 417 1091 417 1067 c 0,21,22
 417 1035 417 1035 459 929 c 2,23,-1
 685 368 l 1,24,-1
 869 806 l 1,25,-1
 821 929 l 2,26,27
 781 1031 781 1031 759.5 1064.5 c 128,-1,28
 738 1098 738 1098 710.5 1112.5 c 128,-1,29
 683 1127 683 1127 629 1127 c 1,30,-1
 629 1159 l 1,31,-1
 1190 1159 l 1,32,-1
 1190 1127 l 1,33,34
 1131 1126 1131 1126 1105 1117 c 0,35,36
 1088 1112 1088 1112 1077.5 1097.5 c 128,-1,37
 1067 1083 1067 1083 1067 1066 c 0,38,39
 1067 1046 1067 1046 1105 945 c 2,40,-1
 1317 396 l 1,41,-1
 1506 893 l 2,42,43
 1536 970 1536 970 1542.5 998 c 128,-1,44
 1549 1026 1549 1026 1549 1050 c 0,45,46
 1549 1085 1549 1085 1525 1105.5 c 128,-1,47
 1501 1126 1501 1126 1433 1127 c 1,48,-1
 1433 1159 l 1,49,-1
 1735 1159 l 1,0,-1
EndSplineSet
EndChar

StartChar: X
Encoding: 88 88 50
Width: 1264
Flags: W
LayerCount: 2
Fore
SplineSet
739 679 m 1,0,-1
 1058 205 l 2,1,2
 1138 87 1138 87 1172 61.5 c 128,-1,3
 1206 36 1206 36 1251 32 c 1,4,-1
 1251 0 l 1,5,-1
 687 0 l 1,6,-1
 687 32 l 1,7,8
 754 36 754 36 774 52 c 128,-1,9
 794 68 794 68 794 90 c 0,10,11
 794 105 794 105 789 117 c 0,12,13
 775 143 775 143 728 213 c 2,14,-1
 559 464 l 1,15,-1
 383 247 l 2,16,17
 303 149 303 149 303 113 c 0,18,19
 303 89 303 89 323.5 67.5 c 128,-1,20
 344 46 344 46 384 36 c 0,21,22
 401 32 401 32 457 32 c 1,23,-1
 457 0 l 1,24,-1
 12 0 l 1,25,-1
 12 32 l 1,26,27
 87 43 87 43 132 73 c 0,28,29
 189 112 189 112 292 237 c 2,30,-1
 522 517 l 1,31,-1
 226 951 l 2,32,33
 154 1057 154 1057 143 1069 c 0,34,35
 121 1096 121 1096 98.5 1108.5 c 128,-1,36
 76 1121 76 1121 36 1127 c 1,37,-1
 36 1159 l 1,38,-1
 612 1159 l 1,39,-1
 612 1127 l 1,40,-1
 583 1127 l 2,41,42
 533 1127 533 1127 513 1111.5 c 128,-1,43
 493 1096 493 1096 493 1072 c 0,44,45
 493 1053 493 1053 500 1040 c 2,46,-1
 559 951 l 1,47,-1
 703 732 l 1,48,-1
 824 881 l 2,49,50
 918 997 918 997 918 1042 c 0,51,52
 918 1066 918 1066 905 1085 c 128,-1,53
 892 1104 892 1104 867.5 1115.5 c 128,-1,54
 843 1127 843 1127 790 1127 c 1,55,-1
 790 1159 l 1,56,-1
 1217 1159 l 1,57,-1
 1217 1127 l 1,58,59
 1166 1126 1166 1126 1135 1115 c 128,-1,60
 1104 1104 1104 1104 1070 1072 c 0,61,62
 1048 1051 1048 1051 959 944 c 2,63,-1
 739 679 l 1,0,-1
EndSplineSet
EndChar

StartChar: Y
Encoding: 89 89 51
Width: 1264
Flags: W
LayerCount: 2
Fore
SplineSet
1244 1159 m 1,0,-1
 1244 1127 l 1,1,2
 1186 1120 1186 1120 1155 1094 c 0,3,4
 1112 1057 1112 1057 1021 898 c 2,5,-1
 770 479 l 1,6,-1
 770 198 l 2,7,8
 770 109 770 109 779.5 87 c 128,-1,9
 789 65 789 65 816.5 48.5 c 128,-1,10
 844 32 844 32 891 32 c 2,11,-1
 955 32 l 1,12,-1
 955 0 l 1,13,-1
 305 0 l 1,14,-1
 305 32 l 1,15,-1
 365 32 l 2,16,17
 417 32 417 32 447 49 c 0,18,19
 469 62 469 62 481 91 c 0,20,21
 491 111 491 111 491 198 c 2,22,-1
 491 431 l 1,23,-1
 219 927 l 2,24,25
 138 1074 138 1074 104 1100 c 128,-1,26
 70 1126 70 1126 15 1127 c 1,27,-1
 15 1159 l 1,28,-1
 570 1159 l 1,29,-1
 570 1127 l 1,30,-1
 546 1127 l 2,31,32
 496 1127 496 1127 475.5 1112.5 c 128,-1,33
 455 1098 455 1098 455 1082 c 0,34,35
 455 1051 455 1051 523 927 c 2,36,-1
 732 544 l 1,37,-1
 942 893 l 2,38,39
 1019 1021 1019 1021 1019 1063 c 0,40,41
 1019 1086 1019 1086 998 1101 c 0,42,43
 967 1122 967 1122 891 1127 c 1,44,-1
 891 1159 l 1,45,-1
 1244 1159 l 1,0,-1
EndSplineSet
EndChar

StartChar: Z
Encoding: 90 90 52
Width: 1168
Flags: W
LayerCount: 2
Fore
SplineSet
1068 1159 m 1,0,-1
 386 65 l 1,1,-1
 608 65 l 2,2,3
 764 65 764 65 827 85 c 0,4,5
 928 116 928 116 1001 197.5 c 128,-1,6
 1074 279 1074 279 1104 418 c 1,7,-1
 1137 418 l 1,8,-1
 1089 0 l 1,9,-1
 28 0 l 1,10,-1
 710 1096 l 1,11,-1
 538 1096 l 2,12,13
 438 1096 438 1096 407 1089 c 0,14,15
 347 1079 347 1079 294 1046 c 128,-1,16
 241 1013 241 1013 207 958 c 128,-1,17
 173 903 173 903 153 819 c 1,18,-1
 122 819 l 1,19,-1
 153 1159 l 1,20,-1
 1068 1159 l 1,0,-1
EndSplineSet
EndChar

StartChar: bracketleft
Encoding: 91 91 53
Width: 583
Flags: W
LayerCount: 2
Fore
SplineSet
182 -320 m 1,0,-1
 182 1159 l 1,1,-1
 527 1159 l 1,2,-1
 527 1122 l 1,3,-1
 488 1122 l 2,4,5
 432 1122 432 1122 412.5 1111 c 128,-1,6
 393 1100 393 1100 383.5 1077 c 128,-1,7
 374 1054 374 1054 374 967 c 2,8,-1
 374 -134 l 2,9,10
 374 -217 374 -217 377 -229 c 0,11,12
 384 -260 384 -260 405 -274 c 128,-1,13
 426 -288 426 -288 488 -288 c 2,14,-1
 527 -288 l 1,15,-1
 527 -320 l 1,16,-1
 182 -320 l 1,0,-1
EndSplineSet
EndChar

StartChar: backslash
Encoding: 92 92 54
Width: 486
Flags: W
LayerCount: 2
Fore
SplineSet
2 1185 m 1,0,-1
 109 1185 l 1,1,-1
 491 -27 l 1,2,-1
 381 -27 l 1,3,-1
 2 1185 l 1,0,-1
EndSplineSet
EndChar

StartChar: bracketright
Encoding: 93 93 55
Width: 583
Flags: W
LayerCount: 2
Fore
SplineSet
400 1159 m 1,0,-1
 400 -320 l 1,1,-1
 58 -320 l 1,2,-1
 58 -287 l 1,3,-1
 96 -287 l 2,4,5
 151 -287 151 -287 170.5 -276 c 128,-1,6
 190 -265 190 -265 200 -242 c 128,-1,7
 210 -219 210 -219 210 -134 c 2,8,-1
 210 971 l 2,9,10
 210 1053 210 1053 207 1064 c 0,11,12
 198 1095 198 1095 177.5 1110 c 128,-1,13
 157 1125 157 1125 96 1125 c 2,14,-1
 58 1125 l 1,15,-1
 58 1159 l 1,16,-1
 400 1159 l 1,0,-1
EndSplineSet
EndChar

StartChar: asciicircum
Encoding: 94 94 56
Width: 1016
Flags: W
LayerCount: 2
Fore
SplineSet
126 570 m 1,0,-1
 476 1182 l 1,1,-1
 546 1182 l 1,2,-1
 892 570 l 1,3,-1
 756 570 l 1,4,-1
 504 1006 l 1,5,-1
 256 570 l 1,6,-1
 126 570 l 1,0,-1
EndSplineSet
EndChar

StartChar: underscore
Encoding: 95 95 57
Width: 875
Flags: W
LayerCount: 2
Fore
SplineSet
-16 -266 m 1,0,-1
 891 -266 l 1,1,-1
 891 -378 l 1,2,-1
 -16 -378 l 1,3,-1
 -16 -266 l 1,0,-1
EndSplineSet
EndChar

StartChar: grave
Encoding: 96 96 58
Width: 212
Flags: W
LayerCount: 2
Fore
SplineSet
120 1002 m 1,0,1
 155 922 155 922 176 851 c 1,2,3
 183 799 183 799 172 805 c 1,4,5
 150 837 150 837 102.5 927 c 128,-1,6
 55 1017 55 1017 46 1049 c 1,7,8
 43 1086 43 1086 120 1002 c 1,0,1
EndSplineSet
EndChar

StartChar: a
Encoding: 97 97 59
Width: 875
Flags: W
LayerCount: 2
Fore
SplineSet
500 117 m 1,0,1
 353 -11 353 -11 237 -11 c 0,2,3
 169 -11 169 -11 124 34 c 128,-1,4
 79 79 79 79 79 146 c 0,5,6
 79 237 79 237 157.5 310.5 c 128,-1,7
 236 384 236 384 500 506 c 1,8,-1
 500 586 l 2,9,10
 500 676 500 676 490.5 699.5 c 128,-1,11
 481 723 481 723 453 740.5 c 128,-1,12
 425 758 425 758 391 758 c 0,13,14
 336 758 336 758 300 732 c 0,15,16
 278 717 278 717 278 698 c 256,17,18
 278 679 278 679 301 652 c 0,19,20
 335 616 335 616 335 582 c 0,21,22
 335 540 335 540 303 510.5 c 128,-1,23
 271 481 271 481 221 481 c 0,24,25
 167 481 167 481 131 513.5 c 128,-1,26
 95 546 95 546 95 589 c 0,27,28
 95 651 95 651 143.5 707 c 128,-1,29
 192 763 192 763 279.5 792.5 c 128,-1,30
 367 822 367 822 460 822 c 0,31,32
 575 822 575 822 641 774 c 128,-1,33
 707 726 707 726 726 669 c 0,34,35
 738 635 738 635 738 506 c 2,36,-1
 738 194 l 2,37,38
 738 140 738 140 742.5 126 c 128,-1,39
 747 112 747 112 755.5 105 c 128,-1,40
 764 98 764 98 775 98 c 0,41,42
 797 98 797 98 821 130 c 1,43,-1
 845 109 l 1,44,45
 803 46 803 46 757 17.5 c 128,-1,46
 711 -11 711 -11 653 -11 c 0,47,48
 586 -11 586 -11 547 21 c 128,-1,49
 508 53 508 53 500 117 c 1,0,1
500 448 m 1,50,51
 396 386 396 386 346 319 c 0,52,53
 313 271 313 271 313 224 c 0,54,55
 313 186 313 186 341 156 c 0,56,57
 362 133 362 133 400 133 c 0,58,59
 443 133 443 133 500 181 c 1,60,-1
 500 448 l 1,50,51
EndSplineSet
EndChar

StartChar: b
Encoding: 98 98 60
Width: 973
Flags: W
LayerCount: 2
Fore
SplineSet
368 1159 m 1,0,-1
 368 719 l 1,1,2
 469 822 469 822 588 822 c 0,3,4
 671 822 671 822 743.5 774 c 128,-1,5
 816 726 816 726 857 637.5 c 128,-1,6
 898 549 898 549 898 433 c 0,7,8
 898 301 898 301 846 194 c 128,-1,9
 794 87 794 87 706.5 32 c 128,-1,10
 619 -23 619 -23 507 -23 c 0,11,12
 442 -23 442 -23 392 -3 c 128,-1,13
 342 17 342 17 293 63 c 1,14,-1
 160 -23 l 1,15,-1
 132 -23 l 1,16,-1
 132 993 l 2,17,18
 132 1062 132 1062 126 1079 c 0,19,20
 117 1102 117 1102 98.5 1114 c 128,-1,21
 80 1126 80 1126 36 1127 c 1,22,-1
 36 1159 l 1,23,-1
 368 1159 l 1,0,-1
368 287 m 2,24,25
 368 178 368 178 374 149 c 0,26,27
 383 98 383 98 415 67 c 128,-1,28
 447 36 447 36 498 36 c 0,29,30
 540 36 540 36 571.5 60.5 c 128,-1,31
 603 85 603 85 624 159 c 128,-1,32
 645 233 645 233 645 424 c 0,33,34
 645 608 645 608 599 676 c 0,35,36
 566 725 566 725 509 725 c 0,37,38
 436 725 436 725 368 643 c 1,39,-1
 368 287 l 2,24,25
EndSplineSet
EndChar

StartChar: c
Encoding: 99 99 61
Width: 776
Flags: W
LayerCount: 2
Fore
SplineSet
711 206 m 1,0,-1
 737 186 l 1,1,2
 682 79 682 79 597.5 28 c 128,-1,3
 513 -23 513 -23 417 -23 c 0,4,5
 258 -23 258 -23 162 97 c 128,-1,6
 66 217 66 217 66 386 c 0,7,8
 66 549 66 549 154 673 c 0,9,10
 258 822 258 822 443 822 c 0,11,12
 567 822 567 822 640.5 760.5 c 128,-1,13
 714 699 714 699 714 621 c 0,14,15
 714 572 714 572 684.5 543 c 128,-1,16
 655 514 655 514 607 514 c 0,17,18
 556 514 556 514 523 547.5 c 128,-1,19
 490 581 490 581 482 667 c 0,20,21
 477 720 477 720 458 741 c 0,22,23
 438 763 438 763 412 763 c 0,24,25
 370 763 370 763 342 720 c 0,26,27
 297 653 297 653 297 518 c 0,28,29
 297 405 297 405 333 301.5 c 128,-1,30
 369 198 369 198 432 149 c 0,31,32
 479 112 479 112 543 112 c 0,33,34
 584 112 584 112 622 131.5 c 128,-1,35
 660 151 660 151 711 206 c 1,0,-1
EndSplineSet
EndChar

StartChar: d
Encoding: 100 100 62
Width: 973
Flags: W
LayerCount: 2
Fore
SplineSet
835 1159 m 1,0,-1
 835 239 l 2,1,2
 835 146 835 146 840 129 c 0,3,4
 848 101 848 101 867 87.5 c 128,-1,5
 886 74 886 74 934 70 c 1,6,-1
 934 42 l 1,7,-1
 596 -23 l 1,8,-1
 596 102 l 1,9,10
 536 28 536 28 488.5 2.5 c 128,-1,11
 441 -23 441 -23 381 -23 c 0,12,13
 229 -23 229 -23 139 113 c 0,14,15
 68 224 68 224 68 385 c 0,16,17
 68 514 68 514 112 616.5 c 128,-1,18
 156 719 156 719 233.5 770.5 c 128,-1,19
 311 822 311 822 400 822 c 0,20,21
 457 822 457 822 501.5 800.5 c 128,-1,22
 546 779 546 779 596 723 c 1,23,-1
 596 963 l 2,24,25
 596 1056 596 1056 588 1074 c 0,26,27
 578 1099 578 1099 558 1110.5 c 128,-1,28
 538 1122 538 1122 481 1122 c 1,29,-1
 481 1159 l 1,30,-1
 835 1159 l 1,0,-1
596 618 m 1,31,32
 533 738 533 738 442 738 c 0,33,34
 410 738 410 738 390 721 c 0,35,36
 358 694 358 694 338.5 628 c 128,-1,37
 319 562 319 562 319 424 c 0,38,39
 319 272 319 272 340.5 199.5 c 128,-1,40
 362 127 362 127 400 95 c 0,41,42
 421 79 421 79 455 79 c 0,43,44
 530 79 530 79 596 197 c 1,45,-1
 596 618 l 1,31,32
EndSplineSet
EndChar

StartChar: e
Encoding: 101 101 63
Width: 776
Flags: W
LayerCount: 2
Fore
SplineSet
297 428 m 1,0,1
 305 269 305 269 383 177 c 0,2,3
 441 106 441 106 523 106 c 0,4,5
 575 106 575 106 617 135 c 128,-1,6
 659 164 659 164 707 237 c 1,7,-1
 736 219 l 1,8,9
 671 86 671 86 592.5 31.5 c 128,-1,10
 514 -23 514 -23 410 -23 c 0,11,12
 233 -23 233 -23 141 113 c 0,13,14
 68 223 68 223 68 386 c 0,15,16
 68 587 68 587 176 704.5 c 128,-1,17
 284 822 284 822 429 822 c 0,18,19
 550 822 550 822 639 723 c 128,-1,20
 728 624 728 624 736 428 c 1,21,-1
 297 428 l 1,0,1
525 485 m 1,22,23
 525 623 525 623 510.5 674 c 128,-1,24
 496 725 496 725 464 752 c 0,25,26
 447 767 447 767 417 767 c 0,27,28
 372 767 372 767 344 724 c 0,29,30
 293 647 293 647 293 514 c 2,31,-1
 293 485 l 1,32,-1
 525 485 l 1,22,23
EndSplineSet
EndChar

StartChar: f
Encoding: 102 102 64
Width: 583
Flags: W
LayerCount: 2
Fore
SplineSet
409 716 m 1,0,-1
 409 160 l 2,1,2
 409 80 409 80 426 60 c 0,3,4
 454 28 454 28 528 31 c 1,5,-1
 528 0 l 1,6,-1
 57 0 l 1,7,-1
 57 31 l 1,8,9
 110 32 110 32 133 43 c 128,-1,10
 156 54 156 54 164.5 75 c 128,-1,11
 173 96 173 96 173 160 c 2,12,-1
 173 716 l 1,13,-1
 57 716 l 1,14,-1
 57 799 l 1,15,-1
 173 799 l 1,16,-1
 173 858 l 1,17,-1
 172 898 l 2,18,19
 172 1021 172 1021 262 1103 c 128,-1,20
 352 1185 352 1185 506 1185 c 0,21,22
 611 1185 611 1185 661.5 1145.5 c 128,-1,23
 712 1106 712 1106 712 1058 c 0,24,25
 712 1020 712 1020 681 991.5 c 128,-1,26
 650 963 650 963 597 963 c 0,27,28
 554 963 554 963 527.5 986.5 c 128,-1,29
 501 1010 501 1010 501 1038 c 0,30,31
 501 1046 501 1046 506 1070 c 0,32,33
 509 1084 509 1084 509 1096 c 0,34,35
 509 1115 509 1115 498 1123 c 0,36,37
 485 1137 485 1137 465 1137 c 0,38,39
 441 1137 441 1137 424.5 1116.5 c 128,-1,40
 408 1096 408 1096 408 1050 c 2,41,-1
 409 901 l 1,42,-1
 409 799 l 1,43,-1
 528 799 l 1,44,-1
 528 716 l 1,45,-1
 409 716 l 1,0,-1
EndSplineSet
EndChar

StartChar: g
Encoding: 103 103 65
Width: 875
Flags: W
LayerCount: 2
Fore
SplineSet
840 789 m 1,0,-1
 840 695 l 1,1,-1
 688 695 l 1,2,3
 730 653 730 653 746 619 c 0,4,5
 767 573 767 573 767 523 c 0,6,7
 767 438 767 438 719.5 374.5 c 128,-1,8
 672 311 672 311 590 276 c 128,-1,9
 508 241 508 241 445 241 c 0,10,11
 440 241 440 241 343 246 c 0,12,13
 304 246 304 246 278 220 c 128,-1,14
 252 194 252 194 252 160 c 0,15,16
 252 129 252 129 275.5 109.5 c 128,-1,17
 299 90 299 90 352 90 c 2,18,-1
 500 92 l 2,19,20
 679 92 679 92 747 53 c 0,21,22
 844 -2 844 -2 844 -117 c 0,23,24
 844 -189 844 -189 799 -248.5 c 128,-1,25
 754 -308 754 -308 682 -336 c 0,26,27
 571 -378 571 -378 428 -378 c 0,28,29
 320 -378 320 -378 231.5 -357 c 128,-1,30
 143 -336 143 -336 104.5 -299 c 128,-1,31
 66 -262 66 -262 66 -220 c 0,32,33
 66 -182 66 -182 95.5 -150 c 128,-1,34
 125 -118 125 -118 205 -97 c 1,35,36
 94 -43 94 -43 94 54 c 0,37,38
 94 113 94 113 139.5 168.5 c 128,-1,39
 185 224 185 224 283 266 c 1,40,41
 169 308 169 308 117.5 376 c 128,-1,42
 66 444 66 444 66 534 c 0,43,44
 66 651 66 651 161.5 736.5 c 128,-1,45
 257 822 257 822 408 822 c 0,46,47
 487 822 487 822 571 789 c 1,48,-1
 840 789 l 1,0,-1
424 770 m 0,49,50
 374 770 374 770 339.5 719.5 c 128,-1,51
 305 669 305 669 305 513 c 0,52,53
 305 385 305 385 339.5 337.5 c 128,-1,54
 374 290 374 290 420 290 c 0,55,56
 471 290 471 290 505 337 c 128,-1,57
 539 384 539 384 539 520 c 0,58,59
 539 673 539 673 501 728 c 0,60,61
 473 770 473 770 424 770 c 0,49,50
374 -117 m 0,62,63
 287 -117 287 -117 258 -133 c 0,64,65
 209 -159 209 -159 209 -204 c 0,66,67
 209 -247 209 -247 259.5 -283 c 128,-1,68
 310 -319 310 -319 449 -319 c 0,69,70
 568 -319 568 -319 636 -287 c 128,-1,71
 704 -255 704 -255 704 -198 c 0,72,73
 704 -177 704 -177 691 -162 c 0,74,75
 668 -137 668 -137 621.5 -127 c 128,-1,76
 575 -117 575 -117 374 -117 c 0,62,63
EndSplineSet
EndChar

StartChar: h
Encoding: 104 104 66
Width: 973
Flags: W
LayerCount: 2
Fore
SplineSet
385 1159 m 1,0,-1
 385 696 l 1,1,2
 450 765 450 765 505.5 793.5 c 128,-1,3
 561 822 561 822 619 822 c 0,4,5
 694 822 694 822 747.5 779.5 c 128,-1,6
 801 737 801 737 819 679 c 128,-1,7
 837 621 837 621 837 485 c 2,8,-1
 837 173 l 2,9,10
 837 82 837 82 853.5 59 c 128,-1,11
 870 36 870 36 923 31 c 1,12,-1
 923 0 l 1,13,-1
 518 0 l 1,14,-1
 518 31 l 1,15,16
 561 36 561 36 582 65 c 0,17,18
 597 87 597 87 597 173 c 2,19,-1
 597 530 l 2,20,21
 597 629 597 629 589.5 654 c 128,-1,22
 582 679 582 679 563.5 693 c 128,-1,23
 545 707 545 707 522 707 c 0,24,25
 488 707 488 707 455.5 683.5 c 128,-1,26
 423 660 423 660 385 602 c 1,27,-1
 385 173 l 2,28,29
 385 87 385 87 399 66 c 0,30,31
 415 37 415 37 465 31 c 1,32,-1
 465 0 l 1,33,-1
 60 0 l 1,34,-1
 60 31 l 1,35,36
 110 36 110 36 132 63 c 0,37,38
 146 82 146 82 146 173 c 2,39,-1
 146 984 l 2,40,41
 146 1075 146 1075 129.5 1098 c 128,-1,42
 113 1121 113 1121 60 1127 c 1,43,-1
 60 1159 l 1,44,-1
 385 1159 l 1,0,-1
EndSplineSet
EndChar

StartChar: i
Encoding: 105 105 67
Width: 486
Flags: W
LayerCount: 2
Fore
SplineSet
251 1185 m 0,0,1
 306 1185 306 1185 345 1147 c 128,-1,2
 384 1109 384 1109 384 1053 c 0,3,4
 384 999 384 999 344.5 960.5 c 128,-1,5
 305 922 305 922 251 922 c 256,6,7
 197 922 197 922 158 960.5 c 128,-1,8
 119 999 119 999 119 1053 c 0,9,10
 119 1109 119 1109 158 1147 c 128,-1,11
 197 1185 197 1185 251 1185 c 0,0,1
370 799 m 1,12,-1
 370 166 l 2,13,14
 370 81 370 81 390 57.5 c 128,-1,15
 410 34 410 34 468 31 c 1,16,-1
 468 0 l 1,17,-1
 36 0 l 1,18,-1
 36 31 l 1,19,20
 89 32 89 32 114 62 c 0,21,22
 132 81 132 81 132 166 c 2,23,-1
 132 632 l 2,24,25
 132 716 132 716 112 740 c 128,-1,26
 92 764 92 764 36 767 c 1,27,-1
 36 799 l 1,28,-1
 370 799 l 1,12,-1
EndSplineSet
EndChar

StartChar: j
Encoding: 106 106 68
Width: 583
Flags: W
LayerCount: 2
Fore
SplineSet
304 1185 m 0,0,1
 359 1185 359 1185 396.5 1147 c 128,-1,2
 434 1109 434 1109 434 1056 c 0,3,4
 434 1000 434 1000 396 962 c 128,-1,5
 358 924 358 924 304 924 c 256,6,7
 250 924 250 924 211.5 962 c 128,-1,8
 173 1000 173 1000 173 1056 c 0,9,10
 173 1109 173 1109 211.5 1147 c 128,-1,11
 250 1185 250 1185 304 1185 c 0,0,1
424 799 m 1,12,-1
 424 -28 l 2,13,14
 424 -144 424 -144 409 -199 c 0,15,16
 388 -279 388 -279 324.5 -328.5 c 128,-1,17
 261 -378 261 -378 156 -378 c 0,18,19
 52 -378 52 -378 1.5 -335.5 c 128,-1,20
 -49 -293 -49 -293 -49 -231 c 0,21,22
 -49 -194 -49 -194 -22.5 -166.5 c 128,-1,23
 4 -139 4 -139 38 -139 c 0,24,25
 70 -139 70 -139 89.5 -158 c 128,-1,26
 109 -177 109 -177 109 -215 c 0,27,28
 109 -225 109 -225 108 -239 c 0,29,30
 106 -257 106 -257 106 -263 c 0,31,32
 106 -294 106 -294 119 -309 c 0,33,34
 133 -322 133 -322 155 -322 c 0,35,36
 174 -322 174 -322 188.5 -305 c 128,-1,37
 203 -288 203 -288 203 -257 c 0,38,39
 203 -240 203 -240 198 -188 c 0,40,41
 189 -93 189 -93 188 -74 c 2,42,-1
 186 129 l 1,43,-1
 186 623 l 1,44,-1
 186 667 l 2,45,46
 186 721 186 721 168 741.5 c 128,-1,47
 150 762 150 762 91 767 c 1,48,-1
 91 799 l 1,49,-1
 424 799 l 1,12,-1
EndSplineSet
EndChar

StartChar: k
Encoding: 107 107 69
Width: 973
Flags: W
LayerCount: 2
Fore
SplineSet
384 1159 m 1,0,-1
 384 396 l 1,1,-1
 570 578 l 2,2,3
 626 635 626 635 640.5 659.5 c 128,-1,4
 655 684 655 684 655 707 c 256,5,6
 655 730 655 730 636.5 745 c 128,-1,7
 618 760 618 760 562 767 c 1,8,-1
 562 799 l 1,9,-1
 920 799 l 1,10,-1
 920 767 l 1,11,12
 870 765 870 765 831 743 c 128,-1,13
 792 721 792 721 680 612 c 2,14,-1
 593 527 l 1,15,-1
 781 251 l 2,16,17
 895 84 895 84 917 63 c 0,18,19
 945 34 945 34 989 31 c 1,20,-1
 989 0 l 1,21,-1
 577 0 l 1,22,-1
 577 31 l 1,23,24
 604 31 604 31 616.5 41.5 c 128,-1,25
 629 52 629 52 629 63 c 0,26,27
 629 84 629 84 593 135 c 2,28,-1
 434 368 l 1,29,-1
 384 317 l 1,30,-1
 384 173 l 2,31,32
 384 82 384 82 400.5 59 c 128,-1,33
 417 36 417 36 471 31 c 1,34,-1
 471 0 l 1,35,-1
 58 0 l 1,36,-1
 58 31 l 1,37,38
 109 36 109 36 130 63 c 0,39,40
 144 82 144 82 144 173 c 2,41,-1
 144 984 l 2,42,43
 144 1075 144 1075 127.5 1098 c 128,-1,44
 111 1121 111 1121 58 1127 c 1,45,-1
 58 1159 l 1,46,-1
 384 1159 l 1,0,-1
EndSplineSet
EndChar

StartChar: l
Encoding: 108 108 70
Width: 486
Flags: W
LayerCount: 2
Fore
SplineSet
372 1159 m 1,0,-1
 372 166 l 2,1,2
 372 81 372 81 391.5 57.5 c 128,-1,3
 411 34 411 34 468 31 c 1,4,-1
 468 0 l 1,5,-1
 36 0 l 1,6,-1
 36 31 l 1,7,8
 90 32 90 32 116 62 c 0,9,10
 133 81 133 81 133 166 c 2,11,-1
 133 993 l 2,12,13
 133 1077 133 1077 113 1100 c 128,-1,14
 93 1123 93 1123 36 1127 c 1,15,-1
 36 1159 l 1,16,-1
 372 1159 l 1,0,-1
EndSplineSet
EndChar

StartChar: m
Encoding: 109 109 71
Width: 1458
Flags: W
LayerCount: 2
Fore
SplineSet
391 799 m 1,0,-1
 391 694 l 1,1,2
 456 765 456 765 512 793.5 c 128,-1,3
 568 822 568 822 635 822 c 0,4,5
 711 822 711 822 763.5 786.5 c 128,-1,6
 816 751 816 751 844 677 c 1,7,8
 912 754 912 754 975 788 c 128,-1,9
 1038 822 1038 822 1106 822 c 0,10,11
 1190 822 1190 822 1239 784.5 c 128,-1,12
 1288 747 1288 747 1307 688.5 c 128,-1,13
 1326 630 1326 630 1326 502 c 2,14,-1
 1326 174 l 2,15,16
 1326 82 1326 82 1343 59.5 c 128,-1,17
 1360 37 1360 37 1412 31 c 1,18,-1
 1412 0 l 1,19,-1
 999 0 l 1,20,-1
 999 31 l 1,21,22
 1048 36 1048 36 1072 69 c 0,23,24
 1088 92 1088 92 1088 174 c 2,25,-1
 1088 518 l 2,26,27
 1088 625 1088 625 1079 654 c 128,-1,28
 1070 683 1070 683 1051 697 c 128,-1,29
 1032 711 1032 711 1008 711 c 0,30,31
 972 711 972 711 934 684 c 128,-1,32
 896 657 896 657 858 603 c 1,33,-1
 858 174 l 2,34,35
 858 87 858 87 872 66 c 0,36,37
 892 34 892 34 947 31 c 1,38,-1
 947 0 l 1,39,-1
 534 0 l 1,40,-1
 534 31 l 1,41,42
 567 32 567 32 586 47 c 128,-1,43
 605 62 605 62 612 83.5 c 128,-1,44
 619 105 619 105 619 174 c 2,45,-1
 619 518 l 2,46,47
 619 626 619 626 610.5 654 c 128,-1,48
 602 682 602 682 582 696.5 c 128,-1,49
 562 711 562 711 538 711 c 0,50,51
 504 711 504 711 476 694 c 0,52,53
 436 667 436 667 391 603 c 1,54,-1
 391 174 l 2,55,56
 391 90 391 90 407.5 63 c 128,-1,57
 424 36 424 36 476 31 c 1,58,-1
 476 0 l 1,59,-1
 65 0 l 1,60,-1
 65 31 l 1,61,62
 116 36 116 36 137 63 c 0,63,64
 151 82 151 82 151 174 c 2,65,-1
 151 626 l 2,66,67
 151 716 151 716 134 738 c 128,-1,68
 117 760 117 760 65 767 c 1,69,-1
 65 799 l 1,70,-1
 391 799 l 1,0,-1
EndSplineSet
EndChar

StartChar: n
Encoding: 110 110 72
Width: 973
Flags: W
LayerCount: 2
Fore
SplineSet
385 799 m 1,0,-1
 385 695 l 1,1,2
 447 763 447 763 503.5 792.5 c 128,-1,3
 560 822 560 822 625 822 c 0,4,5
 703 822 703 822 754 779.5 c 128,-1,6
 805 737 805 737 822 673 c 0,7,8
 835 624 835 624 835 485 c 2,9,-1
 835 174 l 2,10,11
 835 82 835 82 852.5 59 c 128,-1,12
 870 36 870 36 922 31 c 1,13,-1
 922 0 l 1,14,-1
 518 0 l 1,15,-1
 518 31 l 1,16,17
 562 36 562 36 583 69 c 0,18,19
 596 90 596 90 596 174 c 2,20,-1
 596 530 l 2,21,22
 596 628 596 628 588.5 653.5 c 128,-1,23
 581 679 581 679 563 693 c 128,-1,24
 545 707 545 707 522 707 c 0,25,26
 449 707 449 707 385 603 c 1,27,-1
 385 174 l 2,28,29
 385 85 385 85 401.5 60.5 c 128,-1,30
 418 36 418 36 464 31 c 1,31,-1
 464 0 l 1,32,-1
 60 0 l 1,33,-1
 60 31 l 1,34,35
 110 36 110 36 132 63 c 0,36,37
 146 82 146 82 146 174 c 2,38,-1
 146 626 l 2,39,40
 146 716 146 716 129.5 738 c 128,-1,41
 113 760 113 760 60 767 c 1,42,-1
 60 799 l 1,43,-1
 385 799 l 1,0,-1
EndSplineSet
EndChar

StartChar: o
Encoding: 111 111 73
Width: 875
Flags: W
LayerCount: 2
Fore
SplineSet
436 822 m 0,0,1
 540 822 540 822 630 769 c 128,-1,2
 720 716 720 716 766.5 616.5 c 128,-1,3
 813 517 813 517 813 400 c 0,4,5
 813 229 813 229 726 114 c 0,6,7
 621 -23 621 -23 438 -23 c 0,8,9
 258 -23 258 -23 160.5 103 c 128,-1,10
 63 229 63 229 63 395 c 0,11,12
 63 567 63 567 163 694.5 c 128,-1,13
 263 822 263 822 436 822 c 0,0,1
439 763 m 0,14,15
 395 763 395 763 364 729.5 c 128,-1,16
 333 696 333 696 323.5 599 c 128,-1,17
 314 502 314 502 314 330 c 0,18,19
 314 239 314 239 326 159 c 0,20,21
 336 98 336 98 366 67 c 128,-1,22
 396 36 396 36 436 36 c 0,23,24
 474 36 474 36 500 57 c 0,25,26
 533 85 533 85 545 138 c 0,27,28
 562 219 562 219 562 465 c 0,29,30
 562 611 562 611 545.5 665.5 c 128,-1,31
 529 720 529 720 498 744 c 0,32,33
 475 763 475 763 439 763 c 0,14,15
EndSplineSet
EndChar

StartChar: p
Encoding: 112 112 74
Width: 973
Flags: W
LayerCount: 2
Fore
SplineSet
368 -215 m 2,0,1
 368 -278 368 -278 378 -300 c 128,-1,2
 388 -322 388 -322 408.5 -332.5 c 128,-1,3
 429 -343 429 -343 489 -343 c 1,4,-1
 489 -374 l 1,5,-1
 33 -374 l 1,6,-1
 33 -343 l 1,7,8
 86 -341 86 -341 112 -313 c 0,9,10
 129 -293 129 -293 129 -212 c 2,11,-1
 129 632 l 2,12,13
 129 716 129 716 109.5 740 c 128,-1,14
 90 764 90 764 33 767 c 1,15,-1
 33 799 l 1,16,-1
 368 799 l 1,17,-1
 368 694 l 1,18,19
 410 755 410 755 454 783 c 0,20,21
 516 822 516 822 589 822 c 0,22,23
 677 822 677 822 749.5 766.5 c 128,-1,24
 822 711 822 711 859.5 613.5 c 128,-1,25
 897 516 897 516 897 404 c 0,26,27
 897 282 897 282 858 181.5 c 128,-1,28
 819 81 819 81 745.5 29 c 128,-1,29
 672 -23 672 -23 581 -23 c 0,30,31
 514 -23 514 -23 458 5 c 0,32,33
 416 28 416 28 368 81 c 1,34,-1
 368 -215 l 2,0,1
368 167 m 1,35,36
 442 63 442 63 525 63 c 0,37,38
 571 63 571 63 602 112 c 0,39,40
 646 183 646 183 646 385 c 0,41,42
 646 592 646 592 597 668 c 0,43,44
 565 719 565 719 511 719 c 0,45,46
 424 719 424 719 368 594 c 1,47,-1
 368 167 l 1,35,36
EndSplineSet
EndChar

StartChar: q
Encoding: 113 113 75
Width: 973
Flags: W
LayerCount: 2
Fore
SplineSet
596 84 m 1,0,1
 544 28 544 28 498 6 c 0,2,3
 438 -23 438 -23 374 -23 c 0,4,5
 223 -23 223 -23 135 110 c 0,6,7
 66 217 66 217 66 365 c 0,8,9
 66 489 66 489 119 598 c 128,-1,10
 172 707 172 707 264 764.5 c 128,-1,11
 356 822 356 822 458 822 c 0,12,13
 527 822 527 822 580.5 799 c 128,-1,14
 634 776 634 776 672 730 c 1,15,-1
 805 822 l 1,16,-1
 835 822 l 1,17,-1
 835 -212 l 2,18,19
 835 -290 835 -290 848 -310 c 0,20,21
 870 -342 870 -342 938 -343 c 1,22,-1
 938 -374 l 1,23,-1
 476 -374 l 1,24,-1
 476 -343 l 1,25,26
 530 -343 530 -343 554 -331 c 128,-1,27
 578 -319 578 -319 587 -299 c 128,-1,28
 596 -279 596 -279 596 -219 c 2,29,-1
 596 84 l 1,0,1
596 490 m 2,30,31
 596 628 596 628 581 672 c 128,-1,32
 566 716 566 716 525 749 c 0,33,34
 506 765 506 765 473 765 c 0,35,36
 408 765 408 765 373 708 c 0,37,38
 316 620 316 620 316 381 c 0,39,40
 316 198 316 198 365 123 c 0,41,42
 399 73 399 73 450 73 c 0,43,44
 481 73 481 73 520.5 94.5 c 128,-1,45
 560 116 560 116 596 161 c 1,46,-1
 596 490 l 2,30,31
EndSplineSet
EndChar

StartChar: r
Encoding: 114 114 76
Width: 776
Flags: W
LayerCount: 2
Fore
SplineSet
391 799 m 1,0,-1
 391 618 l 1,1,2
 470 741 470 741 529.5 781.5 c 128,-1,3
 589 822 589 822 645 822 c 0,4,5
 693 822 693 822 721 793 c 128,-1,6
 749 764 749 764 749 710 c 0,7,8
 749 652 749 652 721.5 620.5 c 128,-1,9
 694 589 694 589 656 589 c 0,10,11
 610 589 610 589 577 618 c 128,-1,12
 544 647 544 647 538 651 c 0,13,14
 529 656 529 656 518 656 c 0,15,16
 493 656 493 656 471 637 c 0,17,18
 436 609 436 609 417 554 c 0,19,20
 391 472 391 472 391 372 c 2,21,-1
 391 188 l 1,22,-1
 391 140 l 2,23,24
 391 92 391 92 397 78 c 0,25,26
 408 54 408 54 428 43.5 c 128,-1,27
 448 33 448 33 496 31 c 1,28,-1
 496 0 l 1,29,-1
 64 0 l 1,30,-1
 64 31 l 1,31,32
 117 36 117 36 135 60 c 128,-1,33
 153 84 153 84 153 188 c 2,34,-1
 153 630 l 2,35,36
 153 699 153 699 146 716 c 0,37,38
 138 741 138 741 121.5 752 c 128,-1,39
 105 763 105 763 64 767 c 1,40,-1
 64 799 l 1,41,-1
 391 799 l 1,0,-1
EndSplineSet
EndChar

StartChar: s
Encoding: 115 115 77
Width: 682
Flags: W
LayerCount: 2
Fore
SplineSet
564 821 m 1,0,-1
 577 549 l 1,1,-1
 548 549 l 1,2,3
 496 669 496 669 440 713.5 c 128,-1,4
 384 758 384 758 328 758 c 0,5,6
 293 758 293 758 268.5 734.5 c 128,-1,7
 244 711 244 711 244 682 c 0,8,9
 244 658 244 658 261 636 c 0,10,11
 288 602 288 602 413.5 517 c 128,-1,12
 539 432 539 432 579 372.5 c 128,-1,13
 619 313 619 313 619 239 c 0,14,15
 619 173 619 173 585.5 108.5 c 128,-1,16
 552 44 552 44 491.5 10.5 c 128,-1,17
 431 -23 431 -23 357 -23 c 0,18,19
 300 -23 300 -23 204 12 c 0,20,21
 178 21 178 21 169 21 c 0,22,23
 141 21 141 21 122 -21 c 1,24,-1
 94 -21 l 1,25,-1
 80 266 l 1,26,-1
 109 266 l 1,27,28
 148 153 148 153 215 97 c 128,-1,29
 282 41 282 41 342 41 c 0,30,31
 383 41 383 41 408.5 66 c 128,-1,32
 434 91 434 91 434 126 c 0,33,34
 434 167 434 167 409 197.5 c 128,-1,35
 384 228 384 228 295 288 c 0,36,37
 165 378 165 378 126 426 c 0,38,39
 69 497 69 497 69 581 c 0,40,41
 69 673 69 673 133 747.5 c 128,-1,42
 197 822 197 822 317 822 c 0,43,44
 383 822 383 822 442 791 c 0,45,46
 465 779 465 779 481 779 c 0,47,48
 496 779 496 779 505 785 c 128,-1,49
 514 791 514 791 535 821 c 1,50,-1
 564 821 l 1,0,-1
EndSplineSet
EndChar

StartChar: t
Encoding: 116 116 78
Width: 583
Flags: W
LayerCount: 2
Fore
SplineSet
376 1091 m 1,0,-1
 376 799 l 1,1,-1
 566 799 l 1,2,-1
 566 715 l 1,3,-1
 376 715 l 1,4,-1
 376 221 l 2,5,6
 376 151 376 151 382.5 131.5 c 128,-1,7
 389 112 389 112 405 99.5 c 128,-1,8
 421 87 421 87 434 87 c 0,9,10
 490 87 490 87 540 172 c 1,11,-1
 566 153 l 1,12,13
 497 -11 497 -11 341 -11 c 0,14,15
 265 -11 265 -11 212.5 31.5 c 128,-1,16
 160 74 160 74 145 126 c 0,17,18
 137 155 137 155 137 283 c 2,19,-1
 137 715 l 1,20,-1
 32 715 l 1,21,-1
 32 744 l 1,22,23
 140 821 140 821 216 904.5 c 128,-1,24
 292 988 292 988 348 1091 c 1,25,-1
 376 1091 l 1,0,-1
EndSplineSet
EndChar

StartChar: u
Encoding: 117 117 79
Width: 973
Flags: W
LayerCount: 2
Fore
SplineSet
831 799 m 1,0,-1
 831 173 l 2,1,2
 831 82 831 82 848 59 c 128,-1,3
 865 36 865 36 917 31 c 1,4,-1
 917 0 l 1,5,-1
 592 0 l 1,6,-1
 592 107 l 1,7,8
 534 38 534 38 477 7.5 c 128,-1,9
 420 -23 420 -23 348 -23 c 0,10,11
 281 -23 281 -23 228.5 18 c 128,-1,12
 176 59 176 59 158 114.5 c 128,-1,13
 140 170 140 170 140 309 c 2,14,-1
 140 626 l 2,15,16
 140 716 140 716 123.5 738 c 128,-1,17
 107 760 107 760 53 767 c 1,18,-1
 53 799 l 1,19,-1
 379 799 l 1,20,-1
 379 253 l 2,21,22
 379 167 379 167 387 142 c 128,-1,23
 395 117 395 117 413 104.5 c 128,-1,24
 431 92 431 92 454 92 c 0,25,26
 485 92 485 92 509 109 c 0,27,28
 544 130 544 130 592 198 c 1,29,-1
 592 626 l 2,30,31
 592 716 592 716 574.5 738 c 128,-1,32
 557 760 557 760 506 767 c 1,33,-1
 506 799 l 1,34,-1
 831 799 l 1,0,-1
EndSplineSet
EndChar

StartChar: v
Encoding: 118 118 80
Width: 875
Flags: W
LayerCount: 2
Fore
SplineSet
420 -23 m 1,0,-1
 150 596 l 2,1,2
 101 707 101 707 75 737 c 0,3,4
 54 759 54 759 16 767 c 1,5,-1
 16 799 l 1,6,-1
 441 799 l 1,7,-1
 441 767 l 1,8,9
 400 767 400 767 386 753 c 0,10,11
 365 733 365 733 365 708 c 0,12,13
 365 677 365 677 404 589 c 2,14,-1
 535 289 l 1,15,-1
 640 549 l 2,16,17
 685 660 685 660 685 706 c 0,18,19
 685 732 685 732 666 748.5 c 128,-1,20
 647 765 647 765 598 767 c 1,21,-1
 598 799 l 1,22,-1
 860 799 l 1,23,-1
 860 767 l 1,24,25
 822 763 822 763 798 739.5 c 128,-1,26
 774 716 774 716 726 603 c 2,27,-1
 459 -23 l 1,28,-1
 420 -23 l 1,0,-1
EndSplineSet
EndChar

StartChar: w
Encoding: 119 119 81
Width: 1264
Flags: W
LayerCount: 2
Fore
SplineSet
851 -23 m 1,0,-1
 632 562 l 1,1,-1
 417 -23 l 1,2,-1
 374 -23 l 1,3,-1
 160 555 l 2,4,5
 113 688 113 688 79 728 c 0,6,7
 58 755 58 755 15 767 c 1,8,-1
 15 799 l 1,9,-1
 417 799 l 1,10,-1
 417 767 l 1,11,12
 377 767 377 767 361.5 755 c 128,-1,13
 346 743 346 743 346 728 c 0,14,15
 346 714 346 714 374 641 c 2,16,-1
 490 329 l 1,17,-1
 603 641 l 1,18,-1
 595 661 l 2,19,20
 570 725 570 725 550 742.5 c 128,-1,21
 530 760 530 760 490 767 c 1,22,-1
 490 799 l 1,23,-1
 899 799 l 1,24,-1
 899 767 l 1,25,26
 853 765 853 765 840 754 c 128,-1,27
 827 743 827 743 827 724 c 256,28,29
 827 705 827 705 851 641 c 2,30,-1
 963 329 l 1,31,-1
 1066 616 l 2,32,33
 1088 677 1088 677 1088 700 c 0,34,35
 1088 732 1088 732 1072 748 c 128,-1,36
 1056 764 1056 764 1009 767 c 1,37,-1
 1009 799 l 1,38,-1
 1245 799 l 1,39,-1
 1245 767 l 1,40,41
 1207 763 1207 763 1183.5 739.5 c 128,-1,42
 1160 716 1160 716 1123 611 c 2,43,-1
 899 -23 l 1,44,-1
 851 -23 l 1,0,-1
EndSplineSet
EndChar

StartChar: x
Encoding: 120 120 82
Width: 875
Flags: W
LayerCount: 2
Fore
SplineSet
532 489 m 1,0,-1
 669 226 l 2,1,2
 741 89 741 89 784 53 c 0,3,4
 806 32 806 32 847 31 c 1,5,-1
 847 0 l 1,6,-1
 401 0 l 1,7,-1
 401 31 l 1,8,9
 454 36 454 36 466.5 44.5 c 128,-1,10
 479 53 479 53 479 70 c 0,11,12
 479 94 479 94 450 145 c 2,13,-1
 383 276 l 1,14,-1
 322 189 l 2,15,16
 283 130 283 130 278 118 c 0,17,18
 271 102 271 102 271 90 c 0,19,20
 271 70 271 70 279 57 c 128,-1,21
 287 44 287 44 301 37.5 c 128,-1,22
 315 31 315 31 352 31 c 1,23,-1
 352 0 l 1,24,-1
 41 0 l 1,25,-1
 41 31 l 1,26,27
 98 31 98 31 146 63 c 128,-1,28
 194 95 194 95 287 231 c 2,29,-1
 352 328 l 1,30,-1
 215 583 l 2,31,32
 148 707 148 707 114.5 735.5 c 128,-1,33
 81 764 81 764 41 767 c 1,34,-1
 41 799 l 1,35,-1
 482 799 l 1,36,-1
 482 767 l 1,37,-1
 459 767 l 1,38,-1
 416 751 l 2,39,40
 408 746 408 746 408 732 c 0,41,42
 408 719 408 719 412 705 c 0,43,44
 416 699 416 699 437 659 c 2,45,-1
 498 543 l 1,46,-1
 532 588 l 2,47,48
 600 683 600 683 600 720 c 0,49,50
 600 738 600 738 585 750.5 c 128,-1,51
 570 763 570 763 532 767 c 1,52,-1
 532 799 l 1,53,-1
 813 799 l 1,54,-1
 813 767 l 1,55,56
 763 765 763 765 717.5 735 c 128,-1,57
 672 705 672 705 615 618 c 2,58,-1
 532 489 l 1,0,-1
EndSplineSet
EndChar

StartChar: y
Encoding: 121 121 83
Width: 875
Flags: W
LayerCount: 2
Fore
SplineSet
425 -32 m 1,0,-1
 167 560 l 2,1,2
 109 694 109 694 81 724.5 c 128,-1,3
 53 755 53 755 15 767 c 1,4,-1
 15 799 l 1,5,-1
 439 799 l 1,6,-1
 439 767 l 1,7,8
 397 765 397 765 380 751 c 128,-1,9
 363 737 363 737 363 716 c 0,10,11
 363 684 363 684 406 587 c 2,12,-1
 543 276 l 1,13,-1
 635 517 l 2,14,15
 685 646 685 646 685 696 c 0,16,17
 685 728 685 728 664.5 746.5 c 128,-1,18
 644 765 644 765 592 767 c 1,19,-1
 592 799 l 1,20,-1
 859 799 l 1,21,-1
 859 767 l 1,22,23
 819 763 819 763 794.5 737 c 128,-1,24
 770 711 770 711 711 560 c 2,25,-1
 484 -32 l 2,26,27
 397 -255 397 -255 356 -305 c 0,28,29
 297 -378 297 -378 207 -378 c 0,30,31
 137 -378 137 -378 93 -337.5 c 128,-1,32
 49 -297 49 -297 49 -239 c 0,33,34
 49 -190 49 -190 79 -157.5 c 128,-1,35
 109 -125 109 -125 154 -125 c 0,36,37
 197 -125 197 -125 223 -152.5 c 128,-1,38
 249 -180 249 -180 250 -237 c 0,39,40
 250 -269 250 -269 257 -279 c 0,41,42
 263 -288 263 -288 277 -288 c 0,43,44
 297 -288 297 -288 320 -263 c 0,45,46
 354 -228 354 -228 400 -100 c 2,47,-1
 425 -32 l 1,0,-1
EndSplineSet
EndChar

StartChar: z
Encoding: 122 122 84
Width: 776
Flags: W
LayerCount: 2
Fore
SplineSet
714 0 m 1,0,-1
 18 0 l 1,1,-1
 18 20 l 1,2,-1
 457 747 l 1,3,-1
 329 747 l 2,4,5
 246 747 246 747 210 731.5 c 128,-1,6
 174 716 174 716 152 683.5 c 128,-1,7
 130 651 130 651 106 566 c 1,8,-1
 76 566 l 1,9,-1
 76 799 l 1,10,-1
 748 799 l 1,11,-1
 748 775 l 1,12,-1
 313 54 l 1,13,-1
 368 54 l 2,14,15
 532 54 532 54 604.5 101.5 c 128,-1,16
 677 149 677 149 714 273 c 1,17,-1
 737 273 l 1,18,-1
 714 0 l 1,0,-1
EndSplineSet
EndChar

StartChar: braceleft
Encoding: 123 123 85
Width: 690
Flags: W
LayerCount: 2
Fore
SplineSet
615 1185 m 1,0,-1
 615 1147 l 1,1,2
 530 1130 530 1130 489.5 1086 c 128,-1,3
 449 1042 449 1042 449 986 c 0,4,5
 449 929 449 929 469 843.5 c 128,-1,6
 489 758 489 758 489 695 c 0,7,8
 489 637 489 637 455 577 c 128,-1,9
 421 517 421 517 356 474 c 0,10,11
 310 444 310 444 212 417 c 1,12,13
 317 384 317 384 365 352 c 0,14,15
 428 309 428 309 459.5 249.5 c 128,-1,16
 491 190 491 190 491 138 c 256,17,18
 491 86 491 86 470 0.5 c 128,-1,19
 449 -85 449 -85 449 -148 c 0,20,21
 449 -208 449 -208 488.5 -252.5 c 128,-1,22
 528 -297 528 -297 615 -314 c 1,23,-1
 615 -353 l 1,24,-1
 586 -353 l 2,25,26
 498 -354 498 -354 420 -313 c 128,-1,27
 342 -272 342 -272 302.5 -207.5 c 128,-1,28
 263 -143 263 -143 263 -84 c 0,29,30
 263 -23 263 -23 288 79 c 0,31,32
 309 155 309 155 309 214 c 0,33,34
 309 282 309 282 266 329.5 c 128,-1,35
 223 377 223 377 141 391 c 1,36,-1
 141 442 l 1,37,38
 223 456 223 456 266 505.5 c 128,-1,39
 309 555 309 555 309 626 c 0,40,41
 309 684 309 684 289 757 c 0,42,43
 263 859 263 859 263 912 c 0,44,45
 263 967 263 967 296.5 1024.5 c 128,-1,46
 330 1082 330 1082 380.5 1117.5 c 128,-1,47
 431 1153 431 1153 490 1169 c 0,48,49
 536 1182 536 1182 615 1185 c 1,0,-1
EndSplineSet
EndChar

StartChar: bar
Encoding: 124 124 86
Width: 385
Flags: W
LayerCount: 2
Fore
SplineSet
135 -378 m 1,0,-1
 135 1185 l 1,1,-1
 247 1185 l 1,2,-1
 247 -378 l 1,3,-1
 135 -378 l 1,0,-1
EndSplineSet
EndChar

StartChar: asciitilde
Encoding: 126 126 87
Width: 910
Flags: W
LayerCount: 2
Fore
SplineSet
892 605 m 1,0,-1
 941 605 l 1,1,2
 935 470 935 470 870 400 c 128,-1,3
 805 330 805 330 711 330 c 0,4,5
 666 330 666 330 615 344.5 c 128,-1,6
 564 359 564 359 391 432 c 0,7,8
 266 484 266 484 210 484 c 0,9,10
 151 484 151 484 113 448 c 128,-1,11
 75 412 75 412 60 331 c 1,12,-1
 11 331 l 1,13,14
 17 471 17 471 80 539 c 128,-1,15
 143 607 143 607 233 607 c 0,16,17
 278 607 278 607 321 595 c 0,18,19
 408 570 408 570 560 506 c 0,20,21
 642 469 642 469 685 457 c 0,22,23
 711 450 711 450 741 450 c 0,24,25
 801 450 801 450 843 490 c 128,-1,26
 885 530 885 530 892 605 c 1,0,-1
EndSplineSet
EndChar

StartChar: ccedilla
Encoding: 231 231 90
Width: 805
Flags: W
LayerCount: 2
Fore
SplineSet
775 198 m 1,0,-1
 764 142 l 1,1,2
 616 37 616 37 445 -9 c 1,3,-1
 408 -65 l 1,4,5
 481 -86 481 -86 481 -146 c 0,6,7
 481 -197 481 -197 424.5 -240.5 c 128,-1,8
 368 -284 368 -284 301 -284 c 0,9,10
 272 -284 272 -284 232 -277 c 1,11,-1
 287 -201 l 1,12,13
 322 -223 322 -223 348 -223 c 0,14,15
 412 -223 412 -223 412 -172 c 0,16,17
 412 -117 412 -117 311 -111 c 1,18,-1
 376 -19 l 1,19,20
 145 5 145 5 145 228 c 0,21,22
 145 445 145 445 302 622 c 128,-1,23
 459 799 459 799 652 799 c 0,24,25
 736 799 736 799 819 762 c 1,26,-1
 770 578 l 1,27,-1
 725 578 l 1,28,-1
 728 589 l 2,29,30
 735 622 735 622 735 638 c 0,31,32
 735 737 735 737 599 737 c 0,33,34
 475 737 475 737 382.5 595 c 128,-1,35
 290 453 290 453 290 263 c 0,36,37
 290 62 290 62 446 62 c 0,38,39
 563 62 563 62 775 198 c 1,0,-1
EndSplineSet
EndChar

StartChar: icircumflex
Encoding: 238 238 95
Width: 468
Flags: W
LayerCount: 2
Fore
SplineSet
328 0 m 1,0,-1
 140 0 l 1,1,-1
 140 1117 l 1,2,-1
 328 1117 l 1,3,-1
 328 0 l 1,0,-1
521 1297 m 1,4,-1
 370 1297 l 1,5,-1
 231 1560 l 1,6,-1
 93 1297 l 1,7,-1
 -54 1297 l 1,8,-1
 120 1676 l 1,9,-1
 347 1676 l 1,10,-1
 521 1297 l 1,4,-1
EndSplineSet
EndChar

StartChar: idieresis
Encoding: 239 239 96
Width: 468
Flags: W
LayerCount: 2
Fore
SplineSet
328 0 m 1,0,-1
 140 0 l 1,1,-1
 140 1117 l 1,2,-1
 328 1117 l 1,3,-1
 328 0 l 1,0,-1
506 1304 m 1,4,-1
 317 1304 l 1,5,-1
 317 1499 l 1,6,-1
 506 1499 l 1,7,-1
 506 1304 l 1,4,-1
151 1304 m 1,8,-1
 -38 1304 l 1,9,-1
 -38 1499 l 1,10,-1
 151 1499 l 1,11,-1
 151 1304 l 1,8,-1
EndSplineSet
EndChar

StartChar: dagger
Encoding: 8224 8224 101
Width: 932
Flags: W
LayerCount: 2
Fore
SplineSet
347 -231 m 1,0,-1
 567 622 l 1,1,-1
 248 592 l 1,2,-1
 297 700 l 1,3,-1
 576 668 l 1,4,-1
 607 1066 l 1,5,-1
 755 1093 l 1,6,-1
 621 668 l 1,7,-1
 941 700 l 1,8,-1
 895 592 l 1,9,-1
 612 622 l 1,10,-1
 496 -213 l 1,11,-1
 347 -231 l 1,0,-1
EndSplineSet
EndChar

StartChar: degree
Encoding: 176 176 102
Width: 409
Flags: W
LayerCount: 2
Fore
SplineSet
395 844 m 0,0,1
 344 844 344 844 307.5 880 c 128,-1,2
 271 916 271 916 271 968 c 0,3,4
 271 1021 271 1021 307.5 1057 c 128,-1,5
 344 1093 344 1093 395 1093 c 0,6,7
 447 1093 447 1093 483 1057 c 128,-1,8
 519 1021 519 1021 519 968 c 0,9,10
 519 916 519 916 483 880 c 128,-1,11
 447 844 447 844 395 844 c 0,0,1
395 888 m 256,12,13
 427 888 427 888 450.5 912 c 128,-1,14
 474 936 474 936 474 968 c 256,15,16
 474 1000 474 1000 450.5 1024 c 128,-1,17
 427 1048 427 1048 395 1048 c 256,18,19
 363 1048 363 1048 339 1024 c 128,-1,20
 315 1000 315 1000 315 968 c 256,21,22
 315 936 315 936 339 912 c 128,-1,23
 363 888 363 888 395 888 c 256,12,13
EndSplineSet
EndChar

StartChar: cent
Encoding: 162 162 103
Width: 693
Flags: W
LayerCount: 2
Fore
SplineSet
365 -18 m 1,0,-1
 404 176 l 1,1,2
 142 195 142 195 142 355 c 0,3,4
 142 459 142 459 242 534.5 c 128,-1,5
 342 610 342 610 492 622 c 1,6,-1
 527 799 l 1,7,-1
 572 799 l 1,8,-1
 537 622 l 1,9,10
 637 617 637 617 715 601 c 1,11,-1
 689 471 l 1,12,-1
 644 471 l 1,13,14
 644 477 644 477 645 488 c 0,15,16
 648 509 648 509 648 517 c 0,17,18
 648 572 648 572 528 578 c 1,19,-1
 459 229 l 1,20,21
 567 229 567 229 661 280 c 1,22,-1
 650 229 l 1,23,24
 544 176 544 176 448 176 c 1,25,-1
 409 -18 l 1,26,-1
 365 -18 l 1,0,-1
484 578 m 1,27,28
 272 547 272 547 272 383 c 0,29,30
 272 255 272 255 415 232 c 1,31,-1
 484 578 l 1,27,28
EndSplineSet
EndChar

StartChar: sterling
Encoding: 163 163 104
Width: 874
Flags: W
LayerCount: 2
Fore
SplineSet
17 0 m 1,0,-1
 109 88 l 1,1,-1
 122 88 l 2,2,3
 229 88 229 88 272.5 136.5 c 128,-1,4
 316 185 316 185 347 343 c 2,5,-1
 356 391 l 1,6,-1
 196 391 l 1,7,-1
 205 436 l 1,8,-1
 365 436 l 1,9,-1
 378 499 l 2,10,11
 407 642 407 642 496.5 721 c 128,-1,12
 586 800 586 800 718 800 c 0,13,14
 797 800 797 800 892 765 c 1,15,-1
 858 586 l 1,16,-1
 808 586 l 1,17,-1
 810 598 l 2,18,19
 812 608 812 608 812 620 c 0,20,21
 812 746 812 746 679 746 c 0,22,23
 614 746 614 746 584.5 710 c 128,-1,24
 555 674 555 674 535 569 c 2,25,-1
 508 436 l 1,26,-1
 748 436 l 1,27,-1
 739 391 l 1,28,-1
 499 391 l 1,29,-1
 492 359 l 2,30,31
 473 265 473 265 427.5 208 c 128,-1,32
 382 151 382 151 275 88 c 1,33,-1
 480 88 l 2,34,35
 617 88 617 88 679 102.5 c 128,-1,36
 741 117 741 117 819 167 c 1,37,-1
 808 113 l 1,38,39
 735 35 735 35 665.5 7.5 c 128,-1,40
 596 -20 596 -20 470 -20 c 1,41,-1
 442 -19 l 1,42,-1
 17 0 l 1,0,-1
EndSplineSet
EndChar

StartChar: section
Encoding: 167 167 105
Width: 932
Flags: W
LayerCount: 2
Fore
SplineSet
232 -80 m 1,0,1
 348 -178 348 -178 481 -178 c 0,2,3
 564 -178 564 -178 621.5 -127.5 c 128,-1,4
 679 -77 679 -77 679 -5 c 0,5,6
 679 48 679 48 645.5 80.5 c 128,-1,7
 612 113 612 113 513 160 c 2,8,-1
 440 193 l 2,9,10
 247 283 247 283 247 409 c 0,11,12
 247 528 247 528 409 652 c 1,13,14
 328 717 328 717 328 815 c 0,15,16
 328 938 328 938 440 1015.5 c 128,-1,17
 552 1093 552 1093 727 1093 c 0,18,19
 814 1093 814 1093 933 1060 c 1,20,-1
 897 879 l 1,21,-1
 853 879 l 1,22,23
 857 904 857 904 857 916 c 0,24,25
 857 1039 857 1039 652 1039 c 0,26,27
 560 1039 560 1039 500.5 987 c 128,-1,28
 441 935 441 935 441 853 c 0,29,30
 441 798 441 798 466 774.5 c 128,-1,31
 491 751 491 751 613 686 c 2,32,-1
 674 652 l 2,33,34
 854 553 854 553 854 444 c 0,35,36
 854 319 854 319 703 200 c 1,37,38
 801 136 801 136 801 40 c 0,39,40
 801 -75 801 -75 684.5 -153 c 128,-1,41
 568 -231 568 -231 397 -231 c 0,42,43
 244 -231 244 -231 107 -153 c 1,44,-1
 232 -80 l 1,0,1
667 229 m 1,45,46
 747 319 747 319 747 394 c 0,47,48
 747 470 747 470 628 527 c 2,49,-1
 558 562 l 2,50,51
 495 593 495 593 445 625 c 1,52,53
 355 545 355 545 355 456 c 0,54,55
 355 382 355 382 474 326 c 2,56,-1
 571 279 l 2,57,58
 607 263 607 263 667 229 c 1,45,46
EndSplineSet
EndChar

StartChar: bullet
Encoding: 8226 8226 106
Width: 931
Flags: W
LayerCount: 2
Fore
SplineSet
817 662 m 256,0,1
 817 517 817 517 713.5 414 c 128,-1,2
 610 311 610 311 465 311 c 256,3,4
 320 311 320 311 217 414 c 128,-1,5
 114 517 114 517 114 662 c 256,6,7
 114 807 114 807 217 910 c 128,-1,8
 320 1013 320 1013 465 1013 c 256,9,10
 610 1013 610 1013 713.5 910 c 128,-1,11
 817 807 817 807 817 662 c 256,0,1
EndSplineSet
EndChar

StartChar: paragraph
Encoding: 182 182 107
Width: 932
Flags: W
LayerCount: 2
Fore
SplineSet
365 -239 m 1,0,-1
 511 496 l 1,1,2
 241 542 241 542 241 747 c 0,3,4
 241 876 241 876 346.5 968 c 128,-1,5
 452 1060 452 1060 628 1085 c 1,6,-1
 660 1244 l 1,7,-1
 704 1244 l 1,8,-1
 673 1085 l 1,9,-1
 703 1086 l 2,10,11
 744 1086 744 1086 796 1080 c 1,12,-1
 828 1244 l 1,13,-1
 873 1244 l 1,14,-1
 839 1071 l 1,15,16
 891 1057 891 1057 948 1036 c 1,17,-1
 938 988 l 1,18,19
 898 1005 898 1005 830 1024 c 1,20,-1
 742 586 l 1,21,22
 794 603 794 603 869 643 c 1,23,-1
 859 586 l 1,24,25
 794 549 794 549 732 530 c 1,26,-1
 578 -239 l 1,27,-1
 534 -239 l 1,28,-1
 684 514 l 1,29,30
 597 496 597 496 556 496 c 1,31,-1
 409 -239 l 1,32,-1
 365 -239 l 1,0,-1
787 1031 m 1,33,34
 738 1040 738 1040 704 1040 c 0,35,36
 691 1040 691 1040 664 1039 c 1,37,-1
 567 553 l 1,38,39
 625 553 625 553 695 568 c 1,40,-1
 787 1031 l 1,33,34
EndSplineSet
EndChar

StartChar: registered
Encoding: 174 174 108
Width: 897
Flags: W
LayerCount: 2
Fore
SplineSet
580 445 m 0,0,1
 448 445 448 445 354.5 538.5 c 128,-1,2
 261 632 261 632 261 764 c 256,3,4
 261 896 261 896 354.5 990 c 128,-1,5
 448 1084 448 1084 580 1084 c 0,6,7
 714 1084 714 1084 807 990 c 128,-1,8
 900 896 900 896 900 764 c 256,9,10
 900 632 900 632 806.5 538.5 c 128,-1,11
 713 445 713 445 580 445 c 0,0,1
580 484 m 0,12,13
 695 484 695 484 777.5 567 c 128,-1,14
 860 650 860 650 860 764 c 256,15,16
 860 878 860 878 777.5 961 c 128,-1,17
 695 1044 695 1044 580 1044 c 0,18,19
 466 1044 466 1044 383.5 961 c 128,-1,20
 301 878 301 878 301 764 c 256,21,22
 301 650 301 650 383.5 567 c 128,-1,23
 466 484 466 484 580 484 c 0,12,13
529 737 m 1,24,-1
 501 596 l 1,25,-1
 394 596 l 1,26,-1
 403 639 l 1,27,-1
 456 639 l 1,28,-1
 511 915 l 1,29,-1
 458 915 l 1,30,-1
 466 959 l 1,31,-1
 598 959 l 2,32,33
 751 959 751 959 751 875 c 0,34,35
 751 800 751 800 650 750 c 1,36,-1
 685 639 l 1,37,-1
 747 639 l 1,38,-1
 738 596 l 1,39,-1
 641 596 l 1,40,-1
 591 737 l 1,41,-1
 529 737 l 1,24,-1
538 782 m 1,42,-1
 574 782 l 2,43,44
 697 782 697 782 697 866 c 0,45,46
 697 915 697 915 607 915 c 2,47,-1
 564 915 l 1,48,-1
 538 782 l 1,42,-1
EndSplineSet
EndChar

StartChar: copyright
Encoding: 169 169 109
Width: 1244
Flags: W
LayerCount: 2
Fore
SplineSet
725 -27 m 0,0,1
 495 -27 495 -27 330.5 137 c 128,-1,2
 166 301 166 301 166 533 c 256,3,4
 166 765 166 765 330.5 929 c 128,-1,5
 495 1093 495 1093 725 1093 c 0,6,7
 958 1093 958 1093 1122 929 c 128,-1,8
 1286 765 1286 765 1286 533 c 256,9,10
 1286 301 1286 301 1122 137 c 128,-1,11
 958 -27 958 -27 725 -27 c 0,0,1
725 18 m 0,12,13
 939 18 939 18 1090 169 c 128,-1,14
 1241 320 1241 320 1241 533 c 256,15,16
 1241 746 1241 746 1090 897 c 128,-1,17
 939 1048 939 1048 725 1048 c 0,18,19
 513 1048 513 1048 362 897 c 128,-1,20
 211 746 211 746 211 533 c 256,21,22
 211 320 211 320 362 169 c 128,-1,23
 513 18 513 18 725 18 c 0,12,13
890 246 m 1,24,25
 785 213 785 213 704 213 c 0,26,27
 580 213 580 213 508 279.5 c 128,-1,28
 436 346 436 346 436 462 c 0,29,30
 436 625 436 625 541 734.5 c 128,-1,31
 646 844 646 844 805 844 c 0,32,33
 896 844 896 844 1003 814 c 1,34,-1
 967 675 l 1,35,-1
 915 684 l 1,36,-1
 923 766 l 1,37,38
 854 798 854 798 792 798 c 0,39,40
 688 798 688 798 616 700 c 128,-1,41
 544 602 544 602 544 462 c 0,42,43
 544 271 544 271 722 271 c 0,44,45
 823 271 823 271 902 307 c 1,46,-1
 890 246 l 1,24,25
EndSplineSet
EndChar

StartChar: trademark
Encoding: 8482 8482 110
Width: 1333
Flags: W
LayerCount: 2
Fore
SplineSet
440 1021 m 1,0,-1
 307 1021 l 1,1,-1
 288 923 l 1,2,-1
 225 923 l 1,3,-1
 254 1066 l 1,4,-1
 751 1066 l 1,5,-1
 723 923 l 1,6,-1
 661 923 l 1,7,-1
 679 1021 l 1,8,-1
 546 1021 l 1,9,-1
 456 569 l 1,10,-1
 554 569 l 1,11,-1
 545 524 l 1,12,-1
 243 524 l 1,13,-1
 253 569 l 1,14,-1
 350 569 l 1,15,-1
 440 1021 l 1,0,-1
1011 569 m 1,16,-1
 942 956 l 1,17,-1
 857 524 l 1,18,-1
 688 524 l 1,19,-1
 697 569 l 1,20,-1
 794 569 l 1,21,-1
 884 1021 l 1,22,-1
 787 1021 l 1,23,-1
 796 1066 l 1,24,-1
 1036 1066 l 1,25,-1
 1092 747 l 1,26,-1
 1265 1066 l 1,27,-1
 1481 1066 l 1,28,-1
 1473 1021 l 1,29,-1
 1375 1021 l 1,30,-1
 1285 569 l 1,31,-1
 1383 569 l 1,32,-1
 1373 524 l 1,33,-1
 1178 524 l 1,34,-1
 1270 985 l 1,35,-1
 1041 569 l 1,36,-1
 1011 569 l 1,16,-1
EndSplineSet
EndChar

StartChar: acute
Encoding: 180 180 111
Width: 256
Flags: W
LayerCount: 2
Fore
SplineSet
118 999 m 1,0,1
 195 1083 195 1083 192 1046 c 1,2,3
 183 1014 183 1014 135.5 924 c 128,-1,4
 88 834 88 834 66 802 c 1,5,6
 55 796 55 796 62 848 c 1,7,8
 83 919 83 919 118 999 c 1,0,1
EndSplineSet
EndChar

StartChar: dieresis
Encoding: 168 168 112
Width: 862
Flags: W
LayerCount: 2
Fore
SplineSet
495 923 m 1,0,-1
 408 1033 l 1,1,-1
 520 1119 l 1,2,-1
 607 1003 l 1,3,-1
 495 923 l 1,0,-1
841 923 m 1,4,-1
 752 1035 l 1,5,-1
 866 1119 l 1,6,-1
 951 1004 l 1,7,-1
 841 923 l 1,4,-1
EndSplineSet
EndChar

StartChar: plusminus
Encoding: 177 177 113
Width: 932
Flags: W
LayerCount: 2
Fore
SplineSet
76 0 m 1,0,-1
 92 80 l 1,1,-1
 873 80 l 1,2,-1
 858 0 l 1,3,-1
 76 0 l 1,0,-1
469 213 m 1,4,-1
 525 493 l 1,5,-1
 174 493 l 1,6,-1
 189 573 l 1,7,-1
 541 573 l 1,8,-1
 596 852 l 1,9,-1
 676 852 l 1,10,-1
 621 573 l 1,11,-1
 971 573 l 1,12,-1
 956 493 l 1,13,-1
 605 493 l 1,14,-1
 549 213 l 1,15,-1
 469 213 l 1,4,-1
EndSplineSet
EndChar

StartChar: yen
Encoding: 165 165 114
Width: 965
Flags: W
LayerCount: 2
Fore
SplineSet
156 0 m 1,0,-1
 247 99 l 1,1,2
 269 97 269 97 279 97 c 0,3,4
 415 97 415 97 477 257 c 1,5,-1
 272 257 l 1,6,-1
 280 301 l 1,7,-1
 489 301 l 1,8,9
 495 346 495 346 499 409 c 1,10,-1
 301 409 l 1,11,-1
 310 453 l 1,12,-1
 499 453 l 1,13,14
 499 465 499 465 499 470 c 0,15,16
 499 567 499 567 463.5 631 c 128,-1,17
 428 695 428 695 375 695 c 256,18,19
 322 695 322 695 250 638 c 128,-1,20
 178 581 178 581 139 509 c 1,21,-1
 106 534 l 1,22,23
 172 650 172 650 268.5 724.5 c 128,-1,24
 365 799 365 799 452 799 c 0,25,26
 612 799 612 799 612 518 c 1,27,-1
 611 472 l 1,28,29
 736 799 736 799 971 799 c 0,30,31
 1045 799 1045 799 1100 765 c 1,32,-1
 1016 653 l 1,33,34
 967 684 967 684 915 684 c 0,35,36
 742 684 742 684 651 453 c 1,37,-1
 835 453 l 1,38,-1
 826 409 l 1,39,-1
 643 409 l 1,40,-1
 634 369 l 2,41,42
 627 335 627 335 609 301 c 1,43,-1
 805 301 l 1,44,-1
 796 257 l 1,45,-1
 585 257 l 1,46,47
 519 138 519 138 389 91 c 1,48,-1
 624 77 l 1,49,-1
 534 -18 l 1,50,-1
 156 0 l 1,0,-1
EndSplineSet
EndChar

StartChar: mu1
Encoding: 181 181 115
Width: 992
Flags: W
LayerCount: 2
Fore
SplineSet
100 -302 m 1,0,-1
 155 -76 l 1,1,-1
 270 500 l 2,2,3
 282 560 282 560 282 611 c 0,4,5
 282 693 282 693 206 782 c 1,6,-1
 368 790 l 1,7,8
 427 740 427 740 427 623 c 0,9,10
 427 576 427 576 409 481 c 2,11,-1
 355 213 l 2,12,13
 347 176 347 176 347 161 c 0,14,15
 347 106 347 106 391 106 c 0,16,17
 446 106 446 106 553.5 229 c 128,-1,18
 661 352 661 352 753 519 c 1,19,-1
 805 782 l 1,20,-1
 958 790 l 1,21,-1
 905 569 l 1,22,-1
 834 213 l 2,23,24
 818 132 818 132 818 106 c 0,25,26
 818 53 818 53 861 53 c 0,27,28
 931 53 931 53 1075 218 c 1,29,-1
 1062 151 l 1,30,31
 905 -18 905 -18 779 -18 c 0,32,33
 675 -18 675 -18 675 91 c 0,34,35
 675 128 675 128 692 213 c 2,36,-1
 727 391 l 1,37,-1
 717 391 l 1,38,39
 517 0 517 0 312 0 c 1,40,-1
 255 -284 l 1,41,-1
 100 -302 l 1,0,-1
EndSplineSet
EndChar

StartChar: logicalnot
Encoding: 172 172 116
Width: 932
Flags: W
LayerCount: 2
Fore
SplineSet
177 510 m 1,0,-1
 193 590 l 1,1,-1
 975 590 l 1,2,-1
 906 248 l 1,3,-1
 814 248 l 1,4,-1
 866 510 l 1,5,-1
 177 510 l 1,0,-1
EndSplineSet
EndChar

StartChar: florin
Encoding: 402 402 117
Width: 679
Flags: W
LayerCount: 2
Fore
SplineSet
158 -231 m 1,0,-1
 210 -18 l 1,1,-1
 286 364 l 1,2,-1
 108 364 l 1,3,-1
 117 409 l 1,4,-1
 294 409 l 1,5,-1
 298 427 l 2,6,7
 330 586 330 586 463 692.5 c 128,-1,8
 596 799 596 799 761 799 c 0,9,10
 818 799 818 799 860 784 c 1,11,-1
 764 678 l 1,12,13
 712 729 712 729 643 729 c 0,14,15
 500 729 500 729 457 512 c 2,16,-1
 436 409 l 1,17,-1
 623 409 l 1,18,-1
 614 364 l 1,19,-1
 427 364 l 1,20,-1
 313 -213 l 1,21,-1
 158 -231 l 1,0,-1
EndSplineSet
EndChar

StartChar: ellipsis
Encoding: 8230 8230 118
Width: 1474
Flags: W
LayerCount: 2
Fore
SplineSet
178 0 m 1,0,-1
 206 142 l 1,1,-1
 348 142 l 1,2,-1
 319 0 l 1,3,-1
 178 0 l 1,0,-1
667 0 m 1,4,-1
 695 142 l 1,5,-1
 837 142 l 1,6,-1
 808 0 l 1,7,-1
 667 0 l 1,4,-1
1155 0 m 1,8,-1
 1183 142 l 1,9,-1
 1326 142 l 1,10,-1
 1297 0 l 1,11,-1
 1155 0 l 1,8,-1
EndSplineSet
EndChar

StartChar: OE
Encoding: 338 338 119
Width: 1477
Flags: W
LayerCount: 2
Fore
SplineSet
816 0 m 1,0,-1
 831 70 l 1,1,2
 711 -27 711 -27 549 -27 c 0,3,4
 371 -27 371 -27 269 81 c 128,-1,5
 167 189 167 189 167 378 c 0,6,7
 167 661 167 661 358 877 c 128,-1,8
 549 1093 549 1093 799 1093 c 0,9,10
 931 1093 931 1093 1017 1007 c 1,11,-1
 1029 1066 l 1,12,-1
 1593 1066 l 1,13,-1
 1529 862 l 1,14,-1
 1484 862 l 1,15,16
 1490 891 1490 891 1490 913 c 0,17,18
 1490 969 1490 969 1424.5 990.5 c 128,-1,19
 1359 1012 1359 1012 1187 1012 c 2,20,-1
 1165 1012 l 1,21,-1
 1082 586 l 1,22,-1
 1402 586 l 1,23,-1
 1329 512 l 1,24,25
 1165 533 1165 533 1107 533 c 2,26,-1
 1071 533 l 1,27,-1
 1012 218 l 2,28,29
 1002 167 1002 167 1002 156 c 0,30,31
 1002 80 1002 80 1228 80 c 0,32,33
 1348 80 1348 80 1453 160 c 1,34,-1
 1442 103 l 1,35,36
 1318 -23 1318 -23 1203 -23 c 0,37,38
 1183 -23 1183 -23 1161 -21 c 2,39,-1
 816 0 l 1,0,-1
961 723 m 2,40,41
 974 786 974 786 974 841 c 0,42,43
 974 933 974 933 916.5 990.5 c 128,-1,44
 859 1048 859 1048 769 1048 c 0,45,46
 604 1048 604 1048 466.5 844 c 128,-1,47
 329 640 329 640 329 395 c 0,48,49
 329 218 329 218 396.5 117.5 c 128,-1,50
 464 17 464 17 585 17 c 0,51,52
 818 17 818 17 888 361 c 2,53,-1
 961 723 l 2,40,41
EndSplineSet
EndChar

StartChar: oe
Encoding: 339 339 120
Width: 1350
Flags: W
LayerCount: 2
Fore
SplineSet
706 145 m 1,0,1
 535 -18 535 -18 370 -18 c 0,2,3
 273 -18 273 -18 209 55 c 128,-1,4
 145 128 145 128 145 237 c 0,5,6
 145 448 145 448 302.5 623.5 c 128,-1,7
 460 799 460 799 650 799 c 0,8,9
 794 799 794 799 859 630 c 1,10,11
 1025 799 1025 799 1183 799 c 0,12,13
 1246 799 1246 799 1286.5 758 c 128,-1,14
 1327 717 1327 717 1327 651 c 0,15,16
 1327 508 1327 508 1192.5 414 c 128,-1,17
 1058 320 1058 320 841 311 c 1,18,-1
 840 278 l 1,19,20
 840 66 840 66 998 66 c 0,21,22
 1113 66 1113 66 1327 200 c 1,23,-1
 1316 146 l 1,24,25
 1083 -18 1083 -18 917 -18 c 0,26,27
 758 -18 758 -18 706 145 c 1,0,1
431 35 m 0,28,29
 544 35 544 35 636 178.5 c 128,-1,30
 728 322 728 322 728 499 c 0,31,32
 728 607 728 607 689 672 c 128,-1,33
 650 737 650 737 584 737 c 0,34,35
 472 737 472 737 382 594 c 128,-1,36
 292 451 292 451 292 272 c 0,37,38
 292 35 292 35 431 35 c 0,28,29
844 355 m 1,39,40
 1004 368 1004 368 1097.5 438.5 c 128,-1,41
 1191 509 1191 509 1191 620 c 0,42,43
 1191 733 1191 733 1110 733 c 0,44,45
 1024 733 1024 733 941.5 616 c 128,-1,46
 859 499 859 499 844 355 c 1,39,40
EndSplineSet
EndChar

StartChar: endash
Encoding: 8211 8211 121
Width: 434
Flags: W
LayerCount: 2
Fore
SplineSet
434 154 m 1,0,-1
 0 154 l 1,1,-1
 0 234 l 1,2,-1
 434 234 l 1,3,-1
 434 154 l 1,0,-1
EndSplineSet
EndChar

StartChar: emdash
Encoding: 8212 8212 122
Width: 1862
Flags: W
LayerCount: 2
Fore
SplineSet
1866 572 m 1,0,-1
 -4 572 l 1,1,-1
 -4 732 l 1,2,-1
 1866 732 l 1,3,-1
 1866 572 l 1,0,-1
EndSplineSet
EndChar

StartChar: quotedblleft
Encoding: 8220 8220 123
Width: 636
Flags: W
LayerCount: 2
Fore
SplineSet
276 1173 m 1,0,1
 239 1144 239 1144 213 1109 c 128,-1,2
 187 1074 187 1074 187 1025 c 0,3,4
 187 997 187 997 195.5 965 c 128,-1,5
 204 933 204 933 204 896 c 0,6,7
 204 867 204 867 187 845 c 128,-1,8
 170 823 170 823 141 823 c 0,9,10
 118 823 118 823 103 831 c 128,-1,11
 88 839 88 839 79 853 c 128,-1,12
 70 867 70 867 66.5 885.5 c 128,-1,13
 63 904 63 904 63 925 c 0,14,15
 63 968 63 968 80 1007.5 c 128,-1,16
 97 1047 97 1047 125 1081.5 c 128,-1,17
 153 1116 153 1116 188 1144 c 128,-1,18
 223 1172 223 1172 259 1190 c 1,19,-1
 276 1173 l 1,0,1
546 1173 m 1,20,21
 511 1144 511 1144 486.5 1109.5 c 128,-1,22
 462 1075 462 1075 462 1025 c 0,23,24
 462 997 462 997 470 965 c 128,-1,25
 478 933 478 933 478 896 c 0,26,27
 478 867 478 867 460.5 845 c 128,-1,28
 443 823 443 823 415 823 c 0,29,30
 392 823 392 823 376.5 831 c 128,-1,31
 361 839 361 839 351.5 853 c 128,-1,32
 342 867 342 867 338 885.5 c 128,-1,33
 334 904 334 904 334 925 c 0,34,35
 334 967 334 967 351.5 1007.5 c 128,-1,36
 369 1048 369 1048 397.5 1083 c 128,-1,37
 426 1118 426 1118 461.5 1145.5 c 128,-1,38
 497 1173 497 1173 533 1190 c 1,39,-1
 546 1173 l 1,20,21
EndSplineSet
EndChar

StartChar: quotedblright
Encoding: 8221 8221 124
Width: 636
Flags: W
LayerCount: 2
Fore
SplineSet
362 825 m 1,0,1
 380 840 380 840 395.5 855 c 128,-1,2
 411 870 411 870 422.5 887.5 c 128,-1,3
 434 905 434 905 441 925.5 c 128,-1,4
 448 946 448 946 448 971 c 0,5,6
 448 999 448 999 439.5 1030.5 c 128,-1,7
 431 1062 431 1062 431 1102 c 0,8,9
 431 1131 431 1131 448.5 1153 c 128,-1,10
 466 1175 466 1175 492 1175 c 0,11,12
 516 1175 516 1175 531.5 1167 c 128,-1,13
 547 1159 547 1159 556.5 1144.5 c 128,-1,14
 566 1130 566 1130 570 1111.5 c 128,-1,15
 574 1093 574 1093 574 1072 c 0,16,17
 574 1029 574 1029 556 989 c 128,-1,18
 538 949 538 949 509.5 914.5 c 128,-1,19
 481 880 481 880 445.5 852.5 c 128,-1,20
 410 825 410 825 375 807 c 1,21,-1
 362 825 l 1,0,1
88 825 m 1,22,23
 106 840 106 840 121.5 855 c 128,-1,24
 137 870 137 870 148.5 887.5 c 128,-1,25
 160 905 160 905 166.5 925.5 c 128,-1,26
 173 946 173 946 173 971 c 0,27,28
 173 999 173 999 165 1030.5 c 128,-1,29
 157 1062 157 1062 157 1102 c 0,30,31
 157 1131 157 1131 174 1153 c 128,-1,32
 191 1175 191 1175 220 1175 c 0,33,34
 244 1175 244 1175 259.5 1167 c 128,-1,35
 275 1159 275 1159 284 1144.5 c 128,-1,36
 293 1130 293 1130 296.5 1111.5 c 128,-1,37
 300 1093 300 1093 300 1072 c 0,38,39
 300 1029 300 1029 282.5 988.5 c 128,-1,40
 265 948 265 948 236.5 913.5 c 128,-1,41
 208 879 208 879 173 851.5 c 128,-1,42
 138 824 138 824 102 807 c 1,43,-1
 88 825 l 1,22,23
EndSplineSet
EndChar

StartChar: divide
Encoding: 247 247 125
Width: 1093
Flags: W
LayerCount: 2
Fore
SplineSet
624 781 m 1,0,-1
 466 781 l 1,1,-1
 466 962 l 1,2,-1
 624 962 l 1,3,-1
 624 781 l 1,0,-1
933 490 m 1,4,-1
 157 490 l 1,5,-1
 157 596 l 1,6,-1
 933 596 l 1,7,-1
 933 490 l 1,4,-1
624 124 m 1,8,-1
 466 124 l 1,9,-1
 466 305 l 1,10,-1
 624 305 l 1,11,-1
 624 124 l 1,8,-1
EndSplineSet
EndChar

StartChar: lozenge
Encoding: 9674 9674 126
Width: 1118
Flags: W
LayerCount: 2
Fore
SplineSet
1003 699 m 1,0,-1
 560 197 l 1,1,-1
 117 699 l 1,2,-1
 560 1202 l 1,3,-1
 1003 699 l 1,0,-1
848 699 m 1,4,-1
 560 1036 l 1,5,-1
 271 699 l 1,6,-1
 560 364 l 1,7,-1
 848 699 l 1,4,-1
EndSplineSet
EndChar

StartChar: Euro
Encoding: 8364 8364 128
Width: 812
Flags: W
LayerCount: 2
Fore
SplineSet
210 464 m 1,0,1
 252 596 252 596 371.5 697.5 c 128,-1,2
 491 799 491 799 674 799 c 0,3,4
 773 799 773 799 885 769 c 1,5,-1
 845 624 l 1,6,-1
 795 624 l 1,7,8
 801 653 801 653 801 665 c 0,9,10
 801 701 801 701 757 726 c 128,-1,11
 713 751 713 751 649 751 c 0,12,13
 445 751 445 751 349 464 c 1,14,-1
 686 464 l 1,15,-1
 677 420 l 1,16,-1
 337 420 l 2,17,18
 335 418 335 418 332 404 c 2,19,-1
 325 365 l 1,20,-1
 325 360 l 1,21,-1
 665 360 l 1,22,-1
 656 315 l 1,23,-1
 319 315 l 1,24,-1
 319 289 l 2,25,26
 319 178 319 178 370 115.5 c 128,-1,27
 421 53 421 53 512 53 c 0,28,29
 636 53 636 53 765 135 c 1,30,-1
 755 72 l 1,31,32
 604 -18 604 -18 459 -18 c 0,33,34
 324 -18 324 -18 249.5 59 c 128,-1,35
 175 136 175 136 175 274 c 0,36,37
 175 300 175 300 175 315 c 1,38,-1
 111 315 l 1,39,-1
 120 360 l 1,40,-1
 182 360 l 1,41,-1
 182 364 l 1,42,43
 189 401 189 401 194 420 c 1,44,-1
 118 420 l 1,45,-1
 127 464 l 1,46,-1
 210 464 l 1,0,1
EndSplineSet
EndChar

StartChar: guilsinglleft
Encoding: 8249 8249 129
Width: 560
Flags: W
LayerCount: 2
Fore
SplineSet
375 71 m 1,0,1
 304 237 304 237 167 391 c 1,2,3
 358 507 358 507 437 653 c 1,4,-1
 587 711 l 1,5,6
 536 589 536 589 315 441 c 1,7,8
 423 310 423 310 499 138 c 1,9,-1
 375 71 l 1,0,1
EndSplineSet
EndChar

StartChar: guilsinglright
Encoding: 8250 8250 130
Width: 560
Flags: W
LayerCount: 2
Fore
SplineSet
339 711 m 1,0,1
 410 545 410 545 546 391 c 1,2,3
 356 275 356 275 276 128 c 1,4,-1
 128 71 l 1,5,6
 178 193 178 193 400 341 c 1,7,8
 293 470 293 470 215 643 c 1,9,-1
 339 711 l 1,0,1
EndSplineSet
EndChar

StartChar: daggerdbl
Encoding: 8225 8225 133
Width: 932
Flags: W
LayerCount: 2
Fore
SplineSet
349 -231 m 1,0,-1
 481 185 l 1,1,-1
 161 154 l 1,2,-1
 211 261 l 1,3,-1
 490 229 l 1,4,-1
 567 616 l 1,5,-1
 247 586 l 1,6,-1
 297 693 l 1,7,-1
 575 661 l 1,8,-1
 608 1066 l 1,9,-1
 758 1093 l 1,10,-1
 620 661 l 1,11,-1
 940 693 l 1,12,-1
 889 586 l 1,13,-1
 611 616 l 1,14,-1
 535 229 l 1,15,-1
 855 261 l 1,16,-1
 804 154 l 1,17,-1
 525 185 l 1,18,-1
 499 -213 l 1,19,-1
 349 -231 l 1,0,-1
EndSplineSet
EndChar

StartChar: middot.001
Encoding: 8729 8729 134
Width: 620
Flags: W
LayerCount: 2
Fore
SplineSet
429 516 m 1,0,-1
 190 516 l 1,1,-1
 190 789 l 1,2,-1
 429 789 l 1,3,-1
 429 516 l 1,0,-1
EndSplineSet
EndChar

StartChar: quotesinglbase
Encoding: 8218 8218 135
Width: 418
Flags: W
LayerCount: 2
Fore
SplineSet
103 128 m 1,0,-1
 247 231 l 1,1,-1
 353 90 l 1,2,3
 345 -56 345 -56 262.5 -134.5 c 128,-1,4
 180 -213 180 -213 36 -213 c 1,5,-1
 76 -168 l 1,6,7
 189 -158 189 -158 211 -18 c 1,8,-1
 103 128 l 1,0,-1
EndSplineSet
EndChar

StartChar: quotedblbase
Encoding: 8222 8222 136
Width: 684
Flags: W
LayerCount: 2
Fore
SplineSet
91 92 m 1,0,-1
 204 178 l 1,1,-1
 292 64 l 1,2,3
 270 -213 270 -213 31 -213 c 1,4,-1
 60 -168 l 1,5,6
 166 -148 166 -148 179 -16 c 1,7,-1
 91 92 l 1,0,-1
401 92 m 1,8,-1
 516 178 l 1,9,-1
 602 64 l 1,10,11
 581 -213 581 -213 341 -213 c 1,12,-1
 372 -168 l 1,13,14
 476 -148 476 -148 490 -16 c 1,15,-1
 401 92 l 1,8,-1
EndSplineSet
EndChar

StartChar: perthousand
Encoding: 8240 8240 137
Width: 1571
Flags: W
LayerCount: 2
Fore
SplineSet
385 533 m 0,0,1
 304 533 304 533 254.5 584.5 c 128,-1,2
 205 636 205 636 205 722 c 0,3,4
 205 865 205 865 286.5 965.5 c 128,-1,5
 368 1066 368 1066 483 1066 c 0,6,7
 567 1066 567 1066 617.5 1014.5 c 128,-1,8
 668 963 668 963 668 877 c 0,9,10
 668 733 668 733 585.5 633 c 128,-1,11
 503 533 503 533 385 533 c 0,0,1
311 715 m 0,12,13
 311 578 311 578 398 578 c 0,14,15
 463 578 463 578 517 671.5 c 128,-1,16
 571 765 571 765 571 881 c 0,17,18
 571 1022 571 1022 483 1022 c 0,19,20
 416 1022 416 1022 363.5 928 c 128,-1,21
 311 834 311 834 311 715 c 0,12,13
850 0 m 0,22,23
 769 0 769 0 719.5 51.5 c 128,-1,24
 670 103 670 103 670 189 c 0,25,26
 670 331 670 331 751 432 c 128,-1,27
 832 533 832 533 947 533 c 0,28,29
 1031 533 1031 533 1081.5 481.5 c 128,-1,30
 1132 430 1132 430 1132 344 c 0,31,32
 1132 200 1132 200 1049.5 100 c 128,-1,33
 967 0 967 0 850 0 c 0,22,23
776 182 m 0,34,35
 776 44 776 44 862 44 c 0,36,37
 929 44 929 44 982 138 c 128,-1,38
 1035 232 1035 232 1035 348 c 0,39,40
 1035 490 1035 490 948 490 c 0,41,42
 880 490 880 490 828 395.5 c 128,-1,43
 776 301 776 301 776 182 c 0,34,35
131 -27 m 1,44,-1
 1111 1093 l 1,45,-1
 1206 1093 l 1,46,-1
 225 -27 l 1,47,-1
 131 -27 l 1,44,-1
1376 0 m 0,48,49
 1294 0 1294 0 1244.5 51.5 c 128,-1,50
 1195 103 1195 103 1195 189 c 0,51,52
 1195 331 1195 331 1276.5 432 c 128,-1,53
 1358 533 1358 533 1473 533 c 0,54,55
 1557 533 1557 533 1607.5 481.5 c 128,-1,56
 1658 430 1658 430 1658 344 c 0,57,58
 1658 200 1658 200 1575.5 100 c 128,-1,59
 1493 0 1493 0 1376 0 c 0,48,49
1301 183 m 0,60,61
 1301 44 1301 44 1389 44 c 0,62,63
 1453 44 1453 44 1507 138 c 128,-1,64
 1561 232 1561 232 1561 347 c 0,65,66
 1561 490 1561 490 1473 490 c 0,67,68
 1406 490 1406 490 1353.5 395.5 c 128,-1,69
 1301 301 1301 301 1301 183 c 0,60,61
EndSplineSet
EndChar

StartChar: circumflex
Encoding: 710 710 139
Width: 862
Flags: W
LayerCount: 2
Fore
SplineSet
870 976 m 1,0,-1
 783 923 l 1,1,2
 729 984 729 984 693 1082 c 1,3,4
 652 1032 652 1032 574 953 c 0,5,6
 571 949 571 949 553 931 c 1,7,-1
 452 923 l 1,8,9
 607 1037 607 1037 674 1120 c 1,10,-1
 772 1182 l 1,11,12
 805 1069 805 1069 870 976 c 1,0,-1
EndSplineSet
EndChar

StartChar: cedilla
Encoding: 184 184 140
Width: 862
Flags: W
LayerCount: 2
Fore
SplineSet
456 0 m 1,0,-1
 414 -64 l 1,1,2
 485 -86 485 -86 485 -147 c 0,3,4
 485 -198 485 -198 428.5 -241 c 128,-1,5
 372 -284 372 -284 303 -284 c 0,6,7
 272 -284 272 -284 237 -277 c 1,8,-1
 292 -201 l 1,9,10
 326 -223 326 -223 352 -223 c 0,11,12
 416 -223 416 -223 416 -171 c 0,13,14
 416 -112 416 -112 318 -112 c 1,15,-1
 394 0 l 1,16,-1
 456 0 l 1,0,-1
EndSplineSet
EndChar

StartChar: brokenbar
Encoding: 166 166 141
Width: 355
Flags: W
LayerCount: 2
Fore
SplineSet
86 -213 m 1,0,-1
 203 373 l 1,1,-1
 301 373 l 1,2,-1
 184 -213 l 1,3,-1
 86 -213 l 1,0,-1
238 551 m 1,4,-1
 355 1137 l 1,5,-1
 453 1137 l 1,6,-1
 337 551 l 1,7,-1
 238 551 l 1,4,-1
EndSplineSet
EndChar

StartChar: minus
Encoding: 8722 8722 142
Width: 1490
Flags: W
LayerCount: 2
Fore
SplineSet
1308 572 m 1,0,-1
 182 572 l 1,1,-1
 182 732 l 1,2,-1
 1308 732 l 1,3,-1
 1308 572 l 1,0,-1
EndSplineSet
EndChar

StartChar: multiply
Encoding: 215 215 143
Width: 942
Flags: W
LayerCount: 2
Fore
SplineSet
410 520 m 1,0,-1
 210 720 l 1,1,-1
 312 823 l 1,2,-1
 512 622 l 1,3,-1
 716 826 l 1,4,-1
 819 724 l 1,5,-1
 615 520 l 1,6,-1
 826 309 l 1,7,-1
 723 207 l 1,8,-1
 512 417 l 1,9,-1
 309 214 l 1,10,-1
 207 317 l 1,11,-1
 410 520 l 1,0,-1
EndSplineSet
EndChar

StartChar: onesuperior
Encoding: 185 185 144
Width: 596
Flags: W
LayerCount: 2
Fore
SplineSet
573 1093 m 1,0,-1
 487 657 l 2,1,2
 476 607 476 607 476 589 c 0,3,4
 476 570 476 570 532 563 c 1,5,-1
 591 560 l 1,6,-1
 582 516 l 1,7,-1
 210 516 l 1,8,-1
 218 560 l 1,9,-1
 279 563 l 2,10,11
 328 567 328 567 337.5 578 c 128,-1,12
 347 589 347 589 362 657 c 2,13,-1
 418 938 l 2,14,15
 423 960 423 960 423 978 c 0,16,17
 423 1004 423 1004 355 1013 c 2,18,-1
 310 1021 l 1,19,-1
 319 1066 l 1,20,-1
 573 1093 l 1,0,-1
EndSplineSet
EndChar

StartChar: twosuperior
Encoding: 178 178 145
Width: 596
Flags: W
LayerCount: 2
Fore
SplineSet
187 516 m 1,0,-1
 207 617 l 1,1,2
 362 712 362 712 454.5 803.5 c 128,-1,3
 547 895 547 895 547 952 c 0,4,5
 547 1046 547 1046 463 1046 c 0,6,7
 352 1046 352 1046 331 928 c 1,8,-1
 278 928 l 1,9,-1
 304 1059 l 1,10,11
 400 1093 400 1093 484 1093 c 0,12,13
 674 1093 674 1093 674 959 c 0,14,15
 674 887 674 887 624.5 842 c 128,-1,16
 575 797 575 797 297 617 c 1,17,-1
 607 617 l 1,18,-1
 587 516 l 1,19,-1
 187 516 l 1,0,-1
EndSplineSet
EndChar

StartChar: threesuperior
Encoding: 179 179 146
Width: 596
Flags: W
LayerCount: 2
Fore
SplineSet
185 545 m 1,0,-1
 257 620 l 1,1,2
 337 556 337 556 418 556 c 0,3,4
 460 556 460 556 490.5 587 c 128,-1,5
 521 618 521 618 521 661 c 0,6,7
 521 776 521 776 345 776 c 0,8,9
 323 776 323 776 301 773 c 1,10,-1
 331 859 l 1,11,12
 350 860 350 860 365 860 c 0,13,14
 412 860 412 860 466 849 c 1,15,16
 547 886 547 886 547 961 c 0,17,18
 547 1046 547 1046 454 1046 c 0,19,20
 365 1046 365 1046 342 941 c 1,21,-1
 289 941 l 1,22,-1
 311 1057 l 1,23,24
 398 1093 398 1093 484 1093 c 0,25,26
 662 1093 662 1093 662 984 c 0,27,28
 662 893 662 893 520 829 c 1,29,30
 625 790 625 790 625 693 c 0,31,32
 625 616 625 616 554.5 563 c 128,-1,33
 484 510 484 510 378 510 c 0,34,35
 289 510 289 510 185 545 c 1,0,-1
EndSplineSet
EndChar

StartChar: onehalf
Encoding: 189 189 147
Width: 1262
Flags: W
LayerCount: 2
Fore
SplineSet
528 1093 m 1,0,-1
 442 657 l 2,1,2
 432 606 432 606 432 589 c 0,3,4
 432 570 432 570 488 563 c 1,5,-1
 547 560 l 1,6,-1
 538 516 l 1,7,-1
 165 516 l 1,8,-1
 174 560 l 1,9,-1
 235 563 l 2,10,11
 283 567 283 567 293 578 c 128,-1,12
 303 589 303 589 318 657 c 2,13,-1
 373 938 l 2,14,15
 378 960 378 960 378 978 c 0,16,17
 378 1004 378 1004 310 1013 c 2,18,-1
 265 1021 l 1,19,-1
 274 1066 l 1,20,-1
 528 1093 l 1,0,-1
160 -27 m 1,21,-1
 1180 1093 l 1,22,-1
 1280 1093 l 1,23,-1
 257 -27 l 1,24,-1
 160 -27 l 1,21,-1
778 0 m 1,25,-1
 797 103 l 1,26,27
 952 197 952 197 1045 288 c 128,-1,28
 1138 379 1138 379 1138 436 c 0,29,30
 1138 530 1138 530 1053 530 c 0,31,32
 942 530 942 530 922 413 c 1,33,-1
 868 413 l 1,34,-1
 895 544 l 1,35,36
 989 578 989 578 1075 578 c 0,37,38
 1264 578 1264 578 1264 445 c 0,39,40
 1264 373 1264 373 1214.5 328 c 128,-1,41
 1165 283 1165 283 887 103 c 1,42,-1
 1197 103 l 1,43,-1
 1177 0 l 1,44,-1
 778 0 l 1,25,-1
EndSplineSet
EndChar

StartChar: onequarter
Encoding: 188 188 148
Width: 1262
Flags: W
LayerCount: 2
Fore
SplineSet
546 1093 m 1,0,-1
 460 657 l 2,1,2
 450 606 450 606 450 589 c 0,3,4
 450 570 450 570 506 563 c 1,5,-1
 565 560 l 1,6,-1
 556 516 l 1,7,-1
 183 516 l 1,8,-1
 192 560 l 1,9,-1
 253 563 l 2,10,11
 301 567 301 567 311 578 c 128,-1,12
 321 589 321 589 336 657 c 2,13,-1
 391 938 l 2,14,15
 396 960 396 960 396 978 c 0,16,17
 396 1004 396 1004 328 1013 c 2,18,-1
 283 1021 l 1,19,-1
 292 1066 l 1,20,-1
 546 1093 l 1,0,-1
178 -27 m 1,21,-1
 1198 1093 l 1,22,-1
 1298 1093 l 1,23,-1
 275 -27 l 1,24,-1
 178 -27 l 1,21,-1
732 182 m 1,25,-1
 747 261 l 1,26,-1
 1102 578 l 1,27,-1
 1170 578 l 1,28,-1
 1102 236 l 1,29,-1
 1212 229 l 1,30,-1
 1168 149 l 1,31,-1
 1086 157 l 1,32,33
 1076 102 1076 102 1076 74 c 0,34,35
 1076 52 1076 52 1129 49 c 2,36,-1
 1189 45 l 1,37,-1
 1180 0 l 1,38,-1
 820 0 l 1,39,-1
 829 45 l 1,40,-1
 886 49 l 2,41,42
 937 52 937 52 952 64 c 128,-1,43
 967 76 967 76 973 117 c 0,44,45
 976 134 976 134 981 164 c 1,46,-1
 732 182 l 1,25,-1
997 244 m 1,47,-1
 1038 446 l 1,48,-1
 823 255 l 1,49,-1
 997 244 l 1,47,-1
EndSplineSet
EndChar

StartChar: threequarters
Encoding: 190 190 149
Width: 1262
Flags: W
LayerCount: 2
Fore
SplineSet
247 620 m 1,0,1
 326 556 326 556 407 556 c 0,2,3
 448 556 448 556 478.5 587 c 128,-1,4
 509 618 509 618 509 661 c 0,5,6
 509 776 509 776 333 776 c 0,7,8
 311 776 311 776 289 773 c 1,9,-1
 319 859 l 1,10,11
 338 860 338 860 355 860 c 0,12,13
 401 860 401 860 455 849 c 1,14,15
 535 886 535 886 535 961 c 0,16,17
 535 1046 535 1046 442 1046 c 0,18,19
 354 1046 354 1046 330 941 c 1,20,-1
 277 941 l 1,21,-1
 301 1057 l 1,22,23
 387 1093 387 1093 472 1093 c 0,24,25
 651 1093 651 1093 651 984 c 0,26,27
 651 893 651 893 508 829 c 1,28,29
 614 790 614 790 614 693 c 0,30,31
 614 616 614 616 543 563 c 128,-1,32
 472 510 472 510 366 510 c 0,33,34
 277 510 277 510 174 545 c 1,35,-1
 247 620 l 1,0,1
178 -27 m 1,36,-1
 1198 1093 l 1,37,-1
 1298 1093 l 1,38,-1
 275 -27 l 1,39,-1
 178 -27 l 1,36,-1
732 182 m 1,40,-1
 747 261 l 1,41,-1
 1102 578 l 1,42,-1
 1170 578 l 1,43,-1
 1102 236 l 1,44,-1
 1212 229 l 1,45,-1
 1168 149 l 1,46,-1
 1086 157 l 1,47,48
 1076 102 1076 102 1076 74 c 0,49,50
 1076 52 1076 52 1129 49 c 2,51,-1
 1189 45 l 1,52,-1
 1180 0 l 1,53,-1
 820 0 l 1,54,-1
 829 45 l 1,55,-1
 886 49 l 2,56,57
 938 52 938 52 952.5 64 c 128,-1,58
 967 76 967 76 973 117 c 0,59,60
 976 134 976 134 981 164 c 1,61,-1
 732 182 l 1,40,-1
997 244 m 1,62,-1
 1038 446 l 1,63,-1
 823 255 l 1,64,-1
 997 244 l 1,62,-1
EndSplineSet
EndChar

StartChar: macron
Encoding: 175 175 150
Width: 1118
Flags: W
LayerCount: 2
Fore
SplineSet
1134 1659 m 1,0,-1
 -16 1659 l 1,1,-1
 -16 1789 l 1,2,-1
 1134 1789 l 1,3,-1
 1134 1659 l 1,0,-1
EndSplineSet
EndChar

StartChar: periodcentered
Encoding: 183 183 151
Width: 724
Flags: W
LayerCount: 2
Fore
SplineSet
482 832 m 1,0,-1
 243 832 l 1,1,-1
 243 1117 l 1,2,-1
 482 1117 l 1,3,-1
 482 832 l 1,0,-1
EndSplineSet
EndChar

StartChar: H22073
Encoding: 9633 9633 152
Width: 1237
Flags: W
LayerCount: 2
Fore
SplineSet
146 944 m 1,0,-1
 1090 944 l 1,1,-1
 1090 0 l 1,2,-1
 146 0 l 1,3,-1
 146 944 l 1,0,-1
222 868 m 1,4,-1
 222 76 l 1,5,-1
 1014 76 l 1,6,-1
 1014 868 l 1,7,-1
 222 868 l 1,4,-1
EndSplineSet
EndChar

StartChar: H18543
Encoding: 9642 9642 153
Width: 1089
Flags: W
LayerCount: 2
Fore
SplineSet
886 994 m 1,0,-1
 886 300 l 1,1,-1
 192 300 l 1,2,-1
 192 994 l 1,3,-1
 886 994 l 1,0,-1
EndSplineSet
EndChar

StartChar: H18551
Encoding: 9643 9643 154
Width: 1089
Flags: W
LayerCount: 2
Fore
SplineSet
888 996 m 1,0,-1
 888 301 l 1,1,-1
 193 301 l 1,2,-1
 193 996 l 1,3,-1
 888 996 l 1,0,-1
774 882 m 1,4,-1
 307 882 l 1,5,-1
 307 415 l 1,6,-1
 774 415 l 1,7,-1
 774 882 l 1,4,-1
EndSplineSet
EndChar

StartChar: H18533
Encoding: 9679 9679 155
Width: 1339
Flags: W
LayerCount: 2
Fore
SplineSet
204 719 m 0,0,1
 204 920 204 920 345 1061 c 128,-1,2
 486 1202 486 1202 685 1202 c 0,3,4
 885 1202 885 1202 1026 1061 c 128,-1,5
 1167 920 1167 920 1167 719 c 0,6,7
 1167 521 1167 521 1026 380 c 128,-1,8
 885 239 885 239 685 239 c 0,9,10
 486 239 486 239 345 380 c 128,-1,11
 204 521 204 521 204 719 c 0,0,1
EndSplineSet
EndChar

StartChar: openbullet
Encoding: 9702 9702 156
Width: 1089
Flags: W
LayerCount: 2
Fore
SplineSet
544 1171 m 0,0,1
 700 1171 700 1171 810.5 1060.5 c 128,-1,2
 921 950 921 950 921 794 c 256,3,4
 921 638 921 638 810.5 528 c 128,-1,5
 700 418 700 418 544 418 c 256,6,7
 388 418 388 418 278 528 c 128,-1,8
 168 638 168 638 168 794 c 256,9,10
 168 950 168 950 277.5 1060.5 c 128,-1,11
 387 1171 387 1171 544 1171 c 0,0,1
544 1057 m 0,12,13
 435 1057 435 1057 358.5 979.5 c 128,-1,14
 282 902 282 902 282 794 c 0,15,16
 282 685 282 685 359 608.5 c 128,-1,17
 436 532 436 532 544 532 c 256,18,19
 652 532 652 532 729.5 608.5 c 128,-1,20
 807 685 807 685 807 794 c 0,21,22
 807 902 807 902 730.5 979.5 c 128,-1,23
 654 1057 654 1057 544 1057 c 0,12,13
EndSplineSet
EndChar

StartChar: currency
Encoding: 164 164 157
Width: 932
Flags: W
LayerCount: 2
Fore
SplineSet
879 184 m 1,0,-1
 841 153 l 1,1,-1
 732 292 l 1,2,3
 616 214 616 214 504 214 c 0,4,5
 394 214 394 214 310 292 c 1,6,-1
 145 153 l 1,7,-1
 120 184 l 1,8,-1
 286 322 l 1,9,10
 243 397 243 397 243 470 c 0,11,12
 243 613 243 613 369 743 c 1,13,-1
 259 882 l 1,14,-1
 297 913 l 1,15,-1
 407 775 l 1,16,17
 521 852 521 852 634 852 c 0,18,19
 744 852 744 852 828 775 c 1,20,-1
 994 913 l 1,21,-1
 1019 882 l 1,22,-1
 852 743 l 1,23,24
 895 668 895 668 895 596 c 0,25,26
 895 455 895 455 769 322 c 1,27,-1
 879 184 l 1,0,-1
818 579 m 0,28,29
 818 666 818 666 762 721.5 c 128,-1,30
 706 777 706 777 620 777 c 0,31,32
 502 777 502 777 411 688 c 128,-1,33
 320 599 320 599 320 485 c 0,34,35
 320 400 320 400 376.5 344.5 c 128,-1,36
 433 289 433 289 519 289 c 0,37,38
 635 289 635 289 726.5 377.5 c 128,-1,39
 818 466 818 466 818 579 c 0,28,29
EndSplineSet
EndChar

StartChar: uniFFFC
Encoding: 65532 65532 158
Width: 2048
Flags: W
LayerCount: 2
Fore
SplineSet
2048 1150 m 1,0,-1
 1948 1150 l 1,1,-1
 1948 1373 l 1,2,-1
 1725 1373 l 1,3,-1
 1725 1473 l 1,4,-1
 2048 1473 l 1,5,-1
 2048 1150 l 1,0,-1
1473 1373 m 1,6,-1
 1150 1373 l 1,7,-1
 1150 1473 l 1,8,-1
 1473 1473 l 1,9,-1
 1473 1373 l 1,6,-1
2048 575 m 1,10,-1
 1948 575 l 1,11,-1
 1948 898 l 1,12,-1
 2048 898 l 1,13,-1
 2048 575 l 1,10,-1
1782 611 m 2,14,15
 1782 370 1782 370 1571 370 c 0,16,17
 1485 370 1485 370 1433 415 c 1,18,-1
 1506 494 l 1,19,20
 1531 468 1531 468 1571 468 c 0,21,22
 1666 468 1666 468 1666 606 c 2,23,-1
 1666 1090 l 1,24,-1
 1782 1090 l 1,25,-1
 1782 611 l 2,14,15
898 1373 m 1,26,-1
 575 1373 l 1,27,-1
 575 1473 l 1,28,-1
 898 1473 l 1,29,-1
 898 1373 l 1,26,-1
2048 0 m 1,30,-1
 1725 0 l 1,31,-1
 1725 100 l 1,32,-1
 1948 100 l 1,33,-1
 1948 323 l 1,34,-1
 2048 323 l 1,35,-1
 2048 0 l 1,30,-1
1423 591 m 0,36,37
 1423 382 1423 382 1149 382 c 2,38,-1
 909 382 l 1,39,-1
 909 1090 l 1,40,-1
 1144 1090 l 2,41,42
 1393 1090 1393 1090 1393 904 c 0,43,44
 1393 813 1393 813 1304 759 c 1,45,46
 1423 713 1423 713 1423 591 c 0,36,37
323 1373 m 1,47,-1
 100 1373 l 1,48,-1
 100 1150 l 1,49,-1
 0 1150 l 1,50,-1
 0 1473 l 1,51,-1
 323 1473 l 1,52,-1
 323 1373 l 1,47,-1
1473 0 m 1,53,-1
 1150 0 l 1,54,-1
 1150 100 l 1,55,-1
 1473 100 l 1,56,-1
 1473 0 l 1,53,-1
854 735 m 0,57,58
 854 562 854 562 772 466 c 128,-1,59
 690 370 690 370 537 370 c 256,60,61
 384 370 384 370 303.5 466 c 128,-1,62
 223 562 223 562 223 735 c 0,63,64
 223 910 223 910 303.5 1006 c 128,-1,65
 384 1102 384 1102 537 1102 c 256,66,67
 690 1102 690 1102 772 1006 c 128,-1,68
 854 910 854 910 854 735 c 0,57,58
100 575 m 1,69,-1
 0 575 l 1,70,-1
 0 898 l 1,71,-1
 100 898 l 1,72,-1
 100 575 l 1,69,-1
898 0 m 1,73,-1
 575 0 l 1,74,-1
 575 100 l 1,75,-1
 898 100 l 1,76,-1
 898 0 l 1,73,-1
323 0 m 1,77,-1
 0 0 l 1,78,-1
 0 323 l 1,79,-1
 100 323 l 1,80,-1
 100 100 l 1,81,-1
 323 100 l 1,82,-1
 323 0 l 1,77,-1
1277 893 m 0,83,84
 1277 992 1277 992 1114 992 c 2,85,-1
 1025 992 l 1,86,-1
 1025 798 l 1,87,-1
 1126 798 l 2,88,89
 1277 798 1277 798 1277 893 c 0,83,84
1307 591 m 0,90,91
 1307 700 1307 700 1136 700 c 2,92,-1
 1025 700 l 1,93,-1
 1025 480 l 1,94,-1
 1149 480 l 2,95,96
 1307 480 1307 480 1307 591 c 0,90,91
738 735 m 0,97,98
 738 1004 738 1004 537 1004 c 0,99,100
 339 1004 339 1004 339 735 c 0,101,102
 339 468 339 468 537 468 c 0,103,104
 738 468 738 468 738 735 c 0,97,98
EndSplineSet
EndChar

StartChar: dotbelowcomb
Encoding: 65538 -1 160
Width: 0
Flags: W
LayerCount: 2
Fore
SplineSet
666 -382 m 1,0,-1
 452 -382 l 1,1,-1
 452 -187 l 1,2,-1
 666 -187 l 1,3,-1
 666 -382 l 1,0,-1
EndSplineSet
EndChar

StartChar: zerowidthnonjoiner
Encoding: 8204 8204 175
Width: 0
GlyphClass: 2
Flags: W
LayerCount: 2
Fore
SplineSet
36 1289 m 1,0,-1
 36 -275 l 1,1,-1
 -36 -275 l 1,2,-1
 -36 1289 l 1,3,-1
 36 1289 l 1,0,-1
EndSplineSet
EndChar

StartChar: zerowidthjoiner
Encoding: 8205 8205 176
Width: 0
GlyphClass: 2
Flags: W
LayerCount: 2
Fore
SplineSet
36 -275 m 1,0,-1
 -36 -275 l 1,1,-1
 -36 1114 l 1,2,-1
 -170 978 l 1,3,-1
 -219 1027 l 1,4,-1
 -48 1196 l 1,5,-1
 -219 1364 l 1,6,-1
 -170 1413 l 1,7,-1
 0 1242 l 1,8,-1
 170 1413 l 1,9,-1
 219 1364 l 1,10,-1
 48 1196 l 1,11,-1
 219 1027 l 1,12,-1
 170 978 l 1,13,-1
 36 1114 l 1,14,-1
 36 -275 l 1,0,-1
EndSplineSet
EndChar

StartChar: lefttorightmark
Encoding: 8206 8206 177
Width: 0
GlyphClass: 2
Flags: W
LayerCount: 2
Fore
SplineSet
430 1198 m 1,0,-1
 213 984 l 1,1,-1
 164 1033 l 1,2,-1
 301 1163 l 1,3,-1
 35 1163 l 1,4,-1
 35 -275 l 1,5,-1
 -36 -275 l 1,6,-1
 -36 1234 l 1,7,-1
 301 1234 l 1,8,-1
 164 1364 l 1,9,-1
 213 1413 l 1,10,-1
 430 1198 l 1,0,-1
EndSplineSet
EndChar

StartChar: righttoleftmark
Encoding: 8207 8207 178
Width: 0
GlyphClass: 2
Flags: W
LayerCount: 2
Fore
SplineSet
35 -275 m 1,0,-1
 -36 -275 l 1,1,-1
 -36 1163 l 1,2,-1
 -302 1163 l 1,3,-1
 -165 1033 l 1,4,-1
 -214 984 l 1,5,-1
 -431 1198 l 1,6,-1
 -214 1413 l 1,7,-1
 -165 1364 l 1,8,-1
 -302 1234 l 1,9,-1
 35 1234 l 1,10,-1
 35 -275 l 1,0,-1
EndSplineSet
EndChar

StartChar: afii57388.001
Encoding: 1644 1644 179
Width: 339
GlyphClass: 2
Flags: W
LayerCount: 2
Fore
SplineSet
202 628 m 0,0,1
 197 615 197 615 190.5 602.5 c 128,-1,2
 184 590 184 590 178 579 c 0,3,4
 167 567 167 567 155 566.5 c 128,-1,5
 143 566 143 566 149 579 c 0,6,7
 179 633 179 633 194 684.5 c 128,-1,8
 209 736 209 736 209 768 c 1,9,10
 186 773 186 773 171.5 783 c 128,-1,11
 157 793 157 793 148.5 804 c 128,-1,12
 140 815 140 815 137 824.5 c 128,-1,13
 134 834 134 834 134 839 c 0,14,15
 134 854 134 854 139.5 870 c 128,-1,16
 145 886 145 886 154 899 c 128,-1,17
 163 912 163 912 176 920.5 c 128,-1,18
 189 929 189 929 204 929 c 0,19,20
 261 929 261 929 261 839 c 0,21,22
 261 825 261 825 257 802 c 128,-1,23
 253 779 253 779 245.5 750.5 c 128,-1,24
 238 722 238 722 227 690.5 c 128,-1,25
 216 659 216 659 202 628 c 0,0,1
EndSplineSet
EndChar

StartChar: afii57409
Encoding: 1569 1569 180
Width: 837
GlyphClass: 2
Flags: W
AnchorPoint: "Anchor-3" 495 -300 basechar 0
AnchorPoint: "Anchor-2" 465 795 basechar 0
LayerCount: 2
Fore
SplineSet
732 210 m 1,0,1
 649 190 649 190 574 166 c 128,-1,2
 499 142 499 142 435 115.5 c 128,-1,3
 371 89 371 89 319 60 c 128,-1,4
 267 31 267 31 229 -1 c 1,5,-1
 229 171 l 1,6,-1
 292 224 l 1,7,8
 257 250 257 250 234.5 286.5 c 128,-1,9
 212 323 212 323 212 363 c 0,10,11
 212 387 212 387 220 407.5 c 128,-1,12
 228 428 228 428 242.5 448 c 128,-1,13
 257 468 257 468 279.5 491 c 128,-1,14
 302 514 302 514 332 542 c 0,15,16
 384 593 384 593 435.5 621.5 c 128,-1,17
 487 650 487 650 550 650 c 0,18,19
 602 650 602 650 647 621 c 128,-1,20
 692 592 692 592 720 540 c 1,21,-1
 598 422 l 1,22,23
 572 459 572 459 542 475.5 c 128,-1,24
 512 492 512 492 475 492 c 0,25,26
 448 492 448 492 422 479.5 c 128,-1,27
 396 467 396 467 377 442 c 1,28,29
 382 402 382 402 415 369 c 128,-1,30
 448 336 448 336 495 317 c 1,31,32
 569 339 569 339 643.5 360 c 128,-1,33
 718 381 718 381 780 395 c 1,34,-1
 732 210 l 1,0,1
EndSplineSet
EndChar

StartChar: afii57440
Encoding: 1600 1600 181
Width: 439
GlyphClass: 2
Flags: W
LayerCount: 2
Fore
SplineSet
478 32 m 1,0,1
 478 0 478 0 448 0 c 2,2,-1
 -10 0 l 2,3,4
 -39 0 -39 0 -39 32 c 2,5,-1
 -39 242 l 2,6,7
 -39 274 -39 274 -8 274 c 2,8,-1
 446 274 l 2,9,10
 478 274 478 274 478 242 c 2,11,-1
 478 32 l 1,12,-1
 478 32 l 1,0,1
EndSplineSet
EndChar

StartChar: afii57453
Encoding: 1613 1613 182
Width: 0
GlyphClass: 4
Flags: W
AnchorPoint: "Anchor-3" 0 0 mark 0
AnchorPoint: "Anchor-1" 0 0 mark 0
LayerCount: 2
Fore
SplineSet
-187 -163 m 1,0,-1
 -187 -78 l 1,1,-1
 188 60 l 1,2,-1
 188 -23 l 1,3,-1
 -187 -163 l 1,0,-1
-187 1 m 1,4,-1
 -187 85 l 1,5,-1
 188 224 l 1,6,-1
 188 138 l 1,7,-1
 -187 1 l 1,4,-1
EndSplineSet
EndChar

StartChar: afii57455.001
Encoding: 65539 -1 183
Width: 0
GlyphClass: 4
Flags: W
LayerCount: 2
Fore
SplineSet
138 1336 m 1,0,1
 100 1357 100 1357 54 1372 c 1,2,3
 12 1311 12 1311 -54 1275.5 c 128,-1,4
 -120 1240 -120 1240 -209 1220 c 1,5,-1
 -209 1338 l 1,6,7
 -93 1353 -93 1353 -27 1400 c 1,8,9
 -81 1416 -81 1416 -108.5 1443.5 c 128,-1,10
 -136 1471 -136 1471 -136 1505 c 1,11,12
 -132 1526 -132 1526 -126.5 1546.5 c 128,-1,13
 -121 1567 -121 1567 -113 1588 c 0,14,15
 -99 1613 -99 1613 -80 1634.5 c 128,-1,16
 -61 1656 -61 1656 -38.5 1672 c 128,-1,17
 -16 1688 -16 1688 8.5 1697 c 128,-1,18
 33 1706 33 1706 59 1706 c 1,19,20
 94 1689 94 1689 109.5 1653.5 c 128,-1,21
 125 1618 125 1618 125 1565 c 0,22,23
 125 1541 125 1541 121 1516.5 c 128,-1,24
 117 1492 117 1492 109 1468 c 1,25,26
 117 1466 117 1466 124 1462.5 c 128,-1,27
 131 1459 131 1459 138 1454 c 1,28,-1
 138 1336 l 1,0,1
59 1525 m 0,29,30
 59 1577 59 1577 23 1597 c 1,31,32
 -5 1597 -5 1597 -29.5 1587.5 c 128,-1,33
 -54 1578 -54 1578 -68 1554 c 1,34,35
 -57 1532 -57 1532 -26.5 1515.5 c 128,-1,36
 4 1499 4 1499 52 1488 c 1,37,38
 57 1498 57 1498 58 1506 c 128,-1,39
 59 1514 59 1514 59 1525 c 0,29,30
EndSplineSet
EndChar

StartChar: afii57458.001
Encoding: 65540 -1 184
Width: 384
GlyphClass: 4
Flags: W
LayerCount: 2
Fore
SplineSet
320 1446 m 0,0,1
 320 1428 320 1428 315.5 1399 c 128,-1,2
 311 1370 311 1370 300 1341 c 1,3,4
 270 1304 270 1304 233 1287.5 c 128,-1,5
 196 1271 196 1271 162 1271 c 0,6,7
 103 1271 103 1271 73.5 1306 c 128,-1,8
 44 1341 44 1341 44 1395 c 0,9,10
 44 1416 44 1416 50.5 1444.5 c 128,-1,11
 57 1473 57 1473 70.5 1504.5 c 128,-1,12
 84 1536 84 1536 106 1568.5 c 128,-1,13
 128 1601 128 1601 160 1631 c 1,14,15
 197 1616 197 1616 227 1594 c 128,-1,16
 257 1572 257 1572 277.5 1547 c 128,-1,17
 298 1522 298 1522 309 1496 c 128,-1,18
 320 1470 320 1470 320 1446 c 0,0,1
101 1427 m 0,19,20
 101 1410 101 1410 119 1396 c 128,-1,21
 137 1382 137 1382 168 1382 c 0,22,23
 221 1382 221 1382 252 1416 c 1,24,25
 247 1442 247 1442 220 1465.5 c 128,-1,26
 193 1489 193 1489 151 1507 c 1,27,28
 127 1487 127 1487 114 1466.5 c 128,-1,29
 101 1446 101 1446 101 1427 c 0,19,20
EndSplineSet
EndChar

StartChar: afii57381
Encoding: 1642 1642 185
Width: 983
GlyphClass: 2
Flags: W
LayerCount: 2
Fore
SplineSet
211 -127 m 1,0,-1
 750 1282 l 1,1,-1
 832 1249 l 1,2,-1
 295 -159 l 1,3,-1
 211 -127 l 1,0,-1
901 50 m 0,4,5
 901 11 901 11 873 -17.5 c 128,-1,6
 845 -46 845 -46 805 -46 c 256,7,8
 765 -46 765 -46 736.5 -17.5 c 128,-1,9
 708 11 708 11 708 51 c 0,10,11
 708 90 708 90 736.5 118.5 c 128,-1,12
 765 147 765 147 804 147 c 0,13,14
 846 147 846 147 873.5 118.5 c 128,-1,15
 901 90 901 90 901 50 c 0,4,5
308 1090 m 0,16,17
 308 1051 308 1051 280 1023 c 128,-1,18
 252 995 252 995 212 995 c 256,19,20
 172 995 172 995 143.5 1023 c 128,-1,21
 115 1051 115 1051 115 1092 c 0,22,23
 115 1131 115 1131 143.5 1159.5 c 128,-1,24
 172 1188 172 1188 211 1188 c 0,25,26
 252 1188 252 1188 280 1159.5 c 128,-1,27
 308 1131 308 1131 308 1090 c 0,16,17
EndSplineSet
EndChar

StartChar: afii57461
Encoding: 1643 1643 186
Width: 946
GlyphClass: 2
Flags: W
LayerCount: 2
Fore
SplineSet
113 -500 m 1,0,-1
 740 482 l 1,1,-1
 850 482 l 1,2,-1
 223 -500 l 1,3,-1
 113 -500 l 1,0,-1
EndSplineSet
EndChar

StartChar: afii63167
Encoding: 1645 1645 187
Width: 1073
GlyphClass: 2
Flags: W
LayerCount: 2
Fore
SplineSet
666 700 m 1,0,-1
 1015 704 l 1,1,-1
 1015 586 l 1,2,-1
 674 588 l 1,3,-1
 932 338 l 1,4,-1
 848 253 l 1,5,-1
 591 517 l 1,6,-1
 598 161 l 1,7,-1
 478 161 l 1,8,-1
 482 517 l 1,9,-1
 227 253 l 1,10,-1
 141 338 l 1,11,-1
 405 589 l 1,12,-1
 60 586 l 1,13,-1
 60 704 l 1,14,-1
 403 700 l 1,15,-1
 163 936 l 1,16,-1
 248 1022 l 1,17,-1
 482 784 l 1,18,-1
 478 1129 l 1,19,-1
 598 1129 l 1,20,-1
 591 780 l 1,21,-1
 826 1022 l 1,22,-1
 910 936 l 1,23,-1
 666 700 l 1,0,-1
EndSplineSet
EndChar

StartChar: afii57459
Encoding: 65541 -1 188
Width: 743
GlyphClass: 2
Flags: W
LayerCount: 2
Fore
SplineSet
653 519 m 0,0,1
 653 428 653 428 644 332 c 128,-1,2
 635 236 635 236 615 130 c 1,3,4
 563 93 563 93 504 67.5 c 128,-1,5
 445 42 445 42 375 28 c 0,6,7
 306 14 306 14 214.5 7 c 128,-1,8
 123 0 123 0 8 0 c 2,9,-1
 -10 0 l 2,10,11
 -39 0 -39 0 -39 32 c 2,12,-1
 -39 242 l 2,13,14
 -39 274 -39 274 -8 274 c 2,15,-1
 191 274 l 2,16,17
 316 274 316 274 402 288.5 c 128,-1,18
 488 303 488 303 537 334 c 1,19,20
 544 362 544 362 544 390 c 0,21,22
 544 400 544 400 542.5 414 c 128,-1,23
 541 428 541 428 539 448 c 1,24,25
 504 428 504 428 458.5 419.5 c 128,-1,26
 413 411 413 411 358 411 c 0,27,28
 229 411 229 411 120 478 c 1,29,30
 120 836 120 836 330 981 c 1,31,32
 480 981 480 981 566 865 c 0,33,34
 609 804 609 804 631 718.5 c 128,-1,35
 653 633 653 633 653 519 c 0,0,1
517 610 m 1,36,37
 462 771 462 771 295 771 c 1,38,39
 236 739 236 739 236 641 c 1,40,41
 270 618 270 618 314 605.5 c 128,-1,42
 358 593 358 593 413 593 c 0,43,44
 441 593 441 593 467.5 597.5 c 128,-1,45
 494 602 494 602 517 610 c 1,36,37
EndSplineSet
EndChar

StartChar: afii57543
Encoding: 65542 -1 189
Width: 546
Flags: W
LayerCount: 2
Fore
SplineSet
586 32 m 1,0,1
 586 0 586 0 557 0 c 2,2,-1
 539 0 l 2,3,4
 310 0 310 0 277 257 c 1,5,-1
 274 257 l 1,6,7
 232 0 232 0 8 0 c 2,8,-1
 -10 0 l 2,9,10
 -39 0 -39 0 -39 32 c 2,11,-1
 -39 242 l 2,12,13
 -39 274 -39 274 -8 274 c 2,14,-1
 28 274 l 2,15,16
 220 274 220 274 244 525 c 1,17,18
 251 530 251 530 258.5 532.5 c 128,-1,19
 266 535 266 535 277 535 c 0,20,21
 289 535 289 535 299.5 532.5 c 128,-1,22
 310 530 310 530 321 525 c 1,23,24
 321 274 321 274 517 274 c 2,25,-1
 555 274 l 2,26,27
 586 274 586 274 586 242 c 2,28,-1
 586 32 l 1,29,-1
 586 32 l 1,0,1
EndSplineSet
EndChar

StartChar: afii57534
Encoding: 1749 1749 190
Width: 767
GlyphClass: 2
Flags: W
LayerCount: 2
Fore
SplineSet
704 370 m 1,0,1
 692 276 692 276 672 200 c 128,-1,2
 652 124 652 124 623 57 c 1,3,4
 565 23 565 23 505.5 5 c 128,-1,5
 446 -13 446 -13 385 -13 c 0,6,7
 342 -13 342 -13 296.5 -8 c 128,-1,8
 251 -3 251 -3 208 13 c 0,9,10
 163 31 163 31 134.5 52.5 c 128,-1,11
 106 74 106 74 86 96 c 1,12,13
 91 251 91 251 127.5 368 c 128,-1,14
 164 485 164 485 242 570 c 1,15,-1
 230 572 l 1,16,-1
 210 576 l 1,17,-1
 191 580 l 1,18,-1
 179 582 l 1,19,-1
 257 837 l 1,20,21
 499 770 499 770 596 670 c 0,22,23
 644 622 644 622 670 547 c 128,-1,24
 696 472 696 472 704 370 c 1,0,1
596 283 m 1,25,26
 581 481 581 481 334 542 c 1,27,28
 251 474 251 474 218 295 c 1,29,30
 289 224 289 224 411 224 c 0,31,32
 510 224 510 224 596 283 c 1,25,26
EndSplineSet
EndChar

StartChar: afii64240
Encoding: 65543 -1 191
Width: 367
Flags: W
LayerCount: 2
Fore
SplineSet
177 2 m 1,0,-1
 13 155 l 1,1,-1
 183 302 l 1,2,-1
 348 151 l 1,3,-1
 177 2 l 1,0,-1
EndSplineSet
EndChar

StartChar: afii64241
Encoding: 65544 -1 192
Width: 646
Flags: W
LayerCount: 2
Fore
SplineSet
51 137 m 1,0,-1
 188 275 l 1,1,-1
 326 137 l 1,2,-1
 188 0 l 1,3,-1
 51 137 l 1,0,-1
321 137 m 1,4,-1
 458 275 l 1,5,-1
 596 137 l 1,6,-1
 458 0 l 1,7,-1
 321 137 l 1,4,-1
EndSplineSet
EndChar

StartChar: afii63954
Encoding: 65545 -1 193
Width: 604
Flags: W
LayerCount: 2
Fore
SplineSet
432 12 m 1,0,-1
 294 130 l 1,1,-1
 425 257 l 1,2,-1
 562 140 l 1,3,-1
 432 12 l 1,0,-1
160 8 m 1,4,-1
 23 126 l 1,5,-1
 155 253 l 1,6,-1
 290 136 l 1,7,-1
 160 8 l 1,4,-1
292 248 m 1,8,-1
 156 368 l 1,9,-1
 286 493 l 1,10,-1
 421 375 l 1,11,-1
 292 248 l 1,8,-1
EndSplineSet
EndChar

StartChar: afii57382
Encoding: 65546 -1 194
Width: 573
Flags: W
LayerCount: 2
Fore
SplineSet
294 -124 m 1,0,-1
 432 -4 l 1,1,-1
 562 -132 l 1,2,-1
 426 -250 l 1,3,-1
 294 -124 l 1,0,-1
23 -120 m 1,4,-1
 158 0 l 1,5,-1
 290 -130 l 1,6,-1
 153 -246 l 1,7,-1
 23 -120 l 1,4,-1
155 -359 m 1,8,-1
 292 -241 l 1,9,-1
 422 -370 l 1,10,-1
 286 -487 l 1,11,-1
 155 -359 l 1,8,-1
EndSplineSet
EndChar

StartChar: afii64242
Encoding: 65547 -1 195
Width: 508
Flags: W
LayerCount: 2
Fore
SplineSet
-39 242 m 1,0,1
 -39 255 -39 255 -32.5 264.5 c 128,-1,2
 -26 274 -26 274 -8 274 c 2,3,-1
 105 274 l 2,4,5
 139 274 139 274 167.5 277 c 128,-1,6
 196 280 196 280 221 287.5 c 128,-1,7
 246 295 246 295 268.5 306.5 c 128,-1,8
 291 318 291 318 315 336 c 1,9,10
 309 358 309 358 296 386.5 c 128,-1,11
 283 415 283 415 266 444 c 128,-1,12
 249 473 249 473 229.5 500 c 128,-1,13
 210 527 210 527 191 546 c 1,14,-1
 344 756 l 1,15,16
 364 730 364 730 383 694 c 128,-1,17
 402 658 402 658 418 620 c 128,-1,18
 434 582 434 582 446 544 c 128,-1,19
 458 506 458 506 464 476 c 1,20,21
 460 450 460 450 448.5 404 c 128,-1,22
 437 358 437 358 422 308.5 c 128,-1,23
 407 259 407 259 390 214 c 128,-1,24
 373 169 373 169 360 146 c 1,25,26
 297 68 297 68 228.5 34 c 128,-1,27
 160 0 160 0 75 0 c 2,28,-1
 -10 0 l 2,29,30
 -27 0 -27 0 -33 9 c 128,-1,31
 -39 18 -39 18 -39 32 c 2,32,-1
 -39 242 l 1,33,-1
 -39 242 l 1,0,1
EndSplineSet
EndChar

StartChar: afii62881
Encoding: 59416 59416 196
Width: 0
GlyphClass: 4
Flags: W
AnchorPoint: "Anchor-2" 0 0 mark 0
AnchorPoint: "Anchor-0" 0 0 mark 0
LayerCount: 2
Fore
SplineSet
-187 324 m 1,0,-1
 -187 409 l 1,1,-1
 188 546 l 1,2,-1
 188 464 l 1,3,-1
 -187 324 l 1,0,-1
-187 488 m 1,4,-1
 -187 572 l 1,5,-1
 188 710 l 1,6,-1
 188 625 l 1,7,-1
 -187 488 l 1,4,-1
166 220 m 2,8,9
 166 130 166 130 140 92.5 c 128,-1,10
 114 55 114 55 74 55 c 0,11,12
 36 55 36 55 11 96 c 1,13,14
 -8 50 -8 50 -35.5 30 c 128,-1,15
 -63 10 -63 10 -91 10 c 0,16,17
 -128 10 -128 10 -149 42 c 128,-1,18
 -170 74 -170 74 -170 139 c 2,19,-1
 -170 216 l 1,20,-1
 -105 239 l 1,21,-1
 -105 188 l 2,22,23
 -105 160 -105 160 -96 148.5 c 128,-1,24
 -87 137 -87 137 -74 137 c 0,25,26
 -62 137 -62 137 -55 143 c 128,-1,27
 -48 149 -48 149 -42 156 c 0,28,29
 -31 169 -31 169 -31 191.5 c 128,-1,30
 -31 214 -31 214 -31 250 c 1,31,-1
 25 269 l 1,32,33
 34 203 34 203 57 188 c 0,34,35
 64 183 64 183 72 181 c 128,-1,36
 80 179 80 179 87 179 c 0,37,38
 98 179 98 179 100 187 c 128,-1,39
 102 195 102 195 102 212 c 0,40,41
 102 225 102 225 100 249 c 128,-1,42
 98 273 98 273 93 293 c 1,43,-1
 166 320 l 1,44,-1
 166 220 l 2,8,9
EndSplineSet
Ligature2: "'ccmp' Glyph Composition/Decomposition in Arabic lookup 4 subtable" afii57457 afii57451
EndChar

StartChar: afii57373
Encoding: 65548 -1 200
Width: 438
Flags: W
LayerCount: 2
Fore
SplineSet
375 758 m 1,0,1
 276 733 276 733 199 702 c 128,-1,2
 122 671 122 671 77 631 c 1,3,-1
 77 735 l 1,4,-1
 114 766 l 1,5,6
 91 783 91 783 78 804.5 c 128,-1,7
 65 826 65 826 65 849 c 0,8,9
 65 878 65 878 82.5 900.5 c 128,-1,10
 100 923 100 923 137 957 c 0,11,12
 167 988 167 988 198.5 1005 c 128,-1,13
 230 1022 230 1022 268 1022 c 0,14,15
 299 1022 299 1022 326 1004 c 128,-1,16
 353 986 353 986 370 957 c 1,17,-1
 297 884 l 1,18,19
 281 908 281 908 263 916.5 c 128,-1,20
 245 925 245 925 222 925 c 0,21,22
 206 925 206 925 191 919 c 128,-1,23
 176 913 176 913 165 897 c 1,24,25
 167 874 167 874 187 853.5 c 128,-1,26
 207 833 207 833 236 822 c 1,27,28
 279 835 279 835 324.5 848 c 128,-1,29
 370 861 370 861 405 869 c 1,30,-1
 375 758 l 1,31,-1
 375 758 l 1,0,1
EndSplineSet
EndChar

StartChar: afii57374
Encoding: 65549 -1 201
Width: 765
GlyphClass: 2
Flags: W
LayerCount: 2
Fore
SplineSet
804 32 m 2,0,1
 804 0 804 0 775 0 c 2,2,-1
 756 0 l 2,3,4
 533 0 533 0 401 132 c 1,5,6
 358 96 358 96 319 72.5 c 128,-1,7
 280 49 280 49 246 36 c 0,8,9
 154 0 154 0 8 0 c 2,10,-1
 -10 0 l 2,11,12
 -39 0 -39 0 -39 32 c 2,13,-1
 -39 242 l 2,14,15
 -39 274 -39 274 -8 274 c 2,16,-1
 28 274 l 2,17,18
 100 274 100 274 156 281 c 128,-1,19
 212 288 212 288 250 302 c 1,20,21
 135 436 135 436 135 564 c 0,22,23
 135 659 135 659 197 763 c 0,24,25
 261 871 261 871 366 930 c 1,26,27
 627 844 627 844 627 606 c 0,28,29
 627 538 627 538 593 444 c 0,30,31
 579 401 579 401 561.5 367.5 c 128,-1,32
 544 334 544 334 525 309 c 1,33,34
 614 274 614 274 686 274 c 2,35,-1
 773 274 l 2,36,37
 804 274 804 274 804 242 c 2,38,-1
 804 32 l 2,0,1
480 516 m 0,39,40
 480 554 480 554 454 586 c 0,41,42
 426 626 426 626 372 641 c 1,43,44
 329 627 329 627 301.5 590 c 128,-1,45
 274 553 274 553 263 490 c 1,46,47
 305 398 305 398 390 358 c 1,48,49
 407 367 407 367 423 385.5 c 128,-1,50
 439 404 439 404 452 426 c 128,-1,51
 465 448 465 448 472.5 472 c 128,-1,52
 480 496 480 496 480 516 c 0,39,40
EndSplineSet
EndChar

StartChar: afii57375
Encoding: 1619 1619 202
Width: 619
GlyphClass: 2
Flags: W
LayerCount: 2
Fore
SplineSet
592 1306 m 1,0,1
 547 1270 547 1270 492 1243.5 c 128,-1,2
 437 1217 437 1217 378 1204.5 c 128,-1,3
 319 1192 319 1192 257 1194.5 c 128,-1,4
 195 1197 195 1197 136 1218 c 1,5,6
 126 1202 126 1202 114 1182.5 c 128,-1,7
 102 1163 102 1163 96 1146 c 1,8,-1
 21 1146 l 1,9,10
 23 1195 23 1195 38.5 1249 c 128,-1,11
 54 1303 54 1303 74 1352 c 1,12,13
 213 1299 213 1299 343 1314.5 c 128,-1,14
 473 1330 473 1330 592 1400 c 1,15,-1
 592 1306 l 1,16,-1
 592 1306 l 1,0,1
EndSplineSet
EndChar

StartChar: afii57471
Encoding: 65550 -1 203
Width: 1574
Flags: W
LayerCount: 2
Fore
SplineSet
1614 32 m 1,0,1
 1614 0 1614 0 1585 0 c 2,2,-1
 1567 0 l 2,3,4
 1520 0 1520 0 1481.5 16 c 128,-1,5
 1443 32 1443 32 1416 60.5 c 128,-1,6
 1389 89 1389 89 1375.5 128 c 128,-1,7
 1362 167 1362 167 1364 214 c 1,8,9
 1225 108 1225 108 1005 47 c 0,10,11
 899 18 899 18 795.5 3 c 128,-1,12
 692 -12 692 -12 586 -12 c 0,13,14
 86 -12 86 -12 86 342 c 0,15,16
 86 431 86 431 118.5 530 c 128,-1,17
 151 629 151 629 214 741 c 1,18,19
 220 743 220 743 224.5 744 c 128,-1,20
 229 745 229 745 234 745 c 0,21,22
 267 745 267 745 287 711 c 1,23,24
 222 590 222 590 222 486 c 0,25,26
 222 274 222 274 664 274 c 0,27,28
 1035 274 1035 274 1298 392 c 1,29,30
 1371 453 1371 453 1404 540 c 0,31,32
 1408 546 1408 546 1424 546 c 0,33,34
 1458 546 1458 546 1482 521 c 1,35,36
 1468 487 1468 487 1460 456 c 128,-1,37
 1452 425 1452 425 1452 394 c 0,38,39
 1452 341 1452 341 1478.5 307.5 c 128,-1,40
 1505 274 1505 274 1546 274 c 2,41,-1
 1583 274 l 2,42,43
 1614 274 1614 274 1614 242 c 2,44,-1
 1614 32 l 1,45,-1
 1614 32 l 1,0,1
EndSplineSet
EndChar

StartChar: afii52258
Encoding: 65551 -1 204
Width: 1551
GlyphClass: 2
Flags: W
LayerCount: 2
Fore
SplineSet
1591 32 m 2,0,1
 1591 0 1591 0 1561 0 c 2,2,-1
 1544 0 l 2,3,4
 1319 0 1319 0 1188 132 c 1,5,6
 1083 46 1083 46 968 17 c 0,7,8
 841 -12 841 -12 584 -12 c 0,9,10
 329 -12 329 -12 210 53 c 0,11,12
 86 124 86 124 86 283 c 0,13,14
 86 446 86 446 206 670 c 1,15,16
 216 677 216 677 227 677 c 0,17,18
 256 677 256 677 281 641 c 1,19,20
 222 534 222 534 222 446 c 0,21,22
 222 357 222 357 299 319 c 0,23,24
 396 274 396 274 660 274 c 0,25,26
 957 274 957 274 1038 302 c 1,27,28
 924 435 924 435 924 564 c 0,29,30
 924 660 924 660 985 763 c 0,31,32
 1049 871 1049 871 1154 930 c 1,33,34
 1416 845 1416 845 1416 606 c 0,35,36
 1416 538 1416 538 1382 444 c 0,37,38
 1365 401 1365 401 1348 367.5 c 128,-1,39
 1331 334 1331 334 1311 309 c 1,40,41
 1397 274 1397 274 1473 274 c 2,42,-1
 1559 274 l 2,43,44
 1591 274 1591 274 1591 242 c 2,45,-1
 1591 32 l 2,0,1
1268 516 m 0,46,47
 1268 554 1268 554 1242 586 c 0,48,49
 1214 626 1214 626 1160 641 c 1,50,51
 1073 614 1073 614 1052 490 c 1,52,53
 1096 396 1096 396 1178 358 c 1,54,55
 1195 367 1195 367 1211 385.5 c 128,-1,56
 1227 404 1227 404 1240 426 c 128,-1,57
 1253 448 1253 448 1260.5 472 c 128,-1,58
 1268 496 1268 496 1268 516 c 0,46,47
EndSplineSet
EndChar

StartChar: afii62889
Encoding: 65552 -1 210
Width: 1317
Flags: W
LayerCount: 2
Fore
SplineSet
1356 32 m 2,0,1
 1356 0 1356 0 1327 0 c 2,2,-1
 1238 0 l 1,3,4
 1234 -79 1234 -79 1221.5 -155 c 128,-1,5
 1209 -231 1209 -231 1189 -306 c 1,6,7
 1132 -356 1132 -356 1060 -398.5 c 128,-1,8
 988 -441 988 -441 897 -480 c 0,9,10
 787 -525 787 -525 685.5 -548.5 c 128,-1,11
 584 -572 584 -572 488 -572 c 0,12,13
 277 -572 277 -572 167 -468 c 0,14,15
 67 -371 67 -371 67 -204 c 0,16,17
 67 -96 67 -96 116 55 c 0,18,19
 139 127 139 127 162.5 187 c 128,-1,20
 186 247 186 247 214 299 c 1,21,22
 220 300 220 300 225.5 301 c 128,-1,23
 231 302 231 302 236 302 c 0,24,25
 267 302 267 302 287 270 c 1,26,27
 274 244 274 244 261.5 208.5 c 128,-1,28
 249 173 249 173 238 124 c 0,29,30
 214 28 214 28 214 -30 c 0,31,32
 214 -299 214 -299 544 -299 c 0,33,34
 692 -299 692 -299 861 -240 c 0,35,36
 943 -212 943 -212 1009 -178 c 128,-1,37
 1075 -144 1075 -144 1129 -105 c 1,38,39
 1131 -84 1131 -84 1128.5 -57.5 c 128,-1,40
 1126 -31 1126 -31 1118 0 c 1,41,-1
 1038 0 l 2,42,43
 796 0 796 0 677 107 c 1,44,45
 677 198 677 198 695.5 278 c 128,-1,46
 714 358 714 358 751 433 c 0,47,48
 786 504 786 504 831.5 554 c 128,-1,49
 877 604 877 604 934 636 c 1,50,51
 1187 614 1187 614 1235 274 c 1,52,-1
 1325 274 l 2,53,54
 1356 274 1356 274 1356 242 c 2,55,-1
 1356 32 l 2,0,1
1092 244 m 1,56,57
 1084 278 1084 278 1067.5 307.5 c 128,-1,58
 1051 337 1051 337 1024 364 c 0,59,60
 966 419 966 419 891 428 c 1,61,62
 876 419 876 419 862.5 403 c 128,-1,63
 849 387 849 387 838 367.5 c 128,-1,64
 827 348 827 348 820.5 326.5 c 128,-1,65
 814 305 814 305 814 285 c 1,66,67
 899 227 899 227 1005 227 c 0,68,69
 1059 227 1059 227 1092 244 c 1,56,57
EndSplineSet
EndChar

StartChar: afii62887
Encoding: 65553 -1 211
Width: 1585
Flags: W
LayerCount: 2
Fore
SplineSet
1535 448 m 1,0,1
 1506 321 1506 321 1388 146 c 1,2,3
 1024 -12 1024 -12 582 -12 c 0,4,5
 86 -12 86 -12 86 342 c 0,6,7
 86 431 86 431 118.5 530 c 128,-1,8
 151 629 151 629 214 741 c 1,9,10
 220 743 220 743 224.5 744 c 128,-1,11
 229 745 229 745 234 745 c 0,12,13
 267 745 267 745 287 711 c 1,14,15
 222 590 222 590 222 486 c 0,16,17
 222 277 222 277 660 274 c 0,18,19
 908 272 908 272 1089 294 c 128,-1,20
 1270 316 1270 316 1388 364 c 1,21,22
 1368 430 1368 430 1340 483 c 128,-1,23
 1312 536 1312 536 1272 576 c 1,24,-1
 1428 777 l 1,25,26
 1444 754 1444 754 1461 716.5 c 128,-1,27
 1478 679 1478 679 1494 627 c 0,28,29
 1512 576 1512 576 1522 530.5 c 128,-1,30
 1532 485 1532 485 1535 448 c 1,0,1
EndSplineSet
EndChar

StartChar: afii62888
Encoding: 1697 1697 212
Width: 1472
GlyphClass: 2
Flags: W
LayerCount: 2
Fore
SplineSet
1422 519 m 0,0,1
 1422 433 1422 433 1412 336.5 c 128,-1,2
 1402 240 1402 240 1382 130 c 1,3,4
 1303 87 1303 87 1234 60 c 128,-1,5
 1165 33 1165 33 1107 22 c 0,6,7
 1026 5 1026 5 896.5 -3.5 c 128,-1,8
 767 -12 767 -12 587 -12 c 0,9,10
 441 -12 441 -12 338.5 8.5 c 128,-1,11
 236 29 236 29 174 73 c 0,12,13
 69 141 69 141 69 283 c 0,14,15
 69 365 69 365 98.5 461.5 c 128,-1,16
 128 558 128 558 189 670 c 1,17,18
 199 677 199 677 209 677 c 0,19,20
 240 677 240 677 262 641 c 1,21,22
 234 587 234 587 219 539 c 128,-1,23
 204 491 204 491 204 446 c 0,24,25
 204 347 204 347 296 313 c 0,26,27
 401 274 401 274 728 274 c 0,28,29
 968 274 968 274 1112 288.5 c 128,-1,30
 1256 303 1256 303 1308 334 c 1,31,32
 1309 358 1309 358 1310 371.5 c 128,-1,33
 1311 385 1311 385 1311 390 c 0,34,35
 1311 392 1311 392 1310 405.5 c 128,-1,36
 1309 419 1309 419 1308 444 c 1,37,38
 1237 407 1237 407 1127 407 c 0,39,40
 1062 407 1062 407 1003 423 c 128,-1,41
 944 439 944 439 889 474 c 1,42,43
 886 838 886 838 1099 981 c 1,44,45
 1252 981 1252 981 1333 865 c 0,46,47
 1422 743 1422 743 1422 519 c 0,0,1
1288 612 m 1,48,49
 1220 771 1220 771 1066 771 c 1,50,51
 1008 739 1008 739 1005 643 c 1,52,53
 1079 596 1079 596 1184 596 c 0,54,55
 1212 596 1212 596 1238.5 600 c 128,-1,56
 1265 604 1265 604 1288 612 c 1,48,49
EndSplineSet
Substitution2: "'fina' Terminal Forms in Arabic lookup 3 subtable" afii52258
Substitution2: "'medi' Medial Forms in Arabic lookup 2 subtable" afii57374
Substitution2: "'init' Initial Forms in Arabic lookup 1 subtable" afii57459
EndChar

StartChar: afii57567
Encoding: 1705 1705 219
Width: 1660
GlyphClass: 2
Flags: W
AnchorPoint: "Anchor-3" 660 -465 basechar 0
AnchorPoint: "Anchor-2" 525 1155 basechar 0
LayerCount: 2
Fore
SplineSet
1292 362 m 0,0,1
 1286 313 1286 313 1281.5 271.5 c 128,-1,2
 1277 230 1277 230 1272 206 c 1,3,4
 1251 183 1251 183 1222.5 158 c 128,-1,5
 1194 133 1194 133 1161 109.5 c 128,-1,6
 1128 86 1128 86 1092 67 c 128,-1,7
 1056 48 1056 48 1020 36 c 0,8,9
 978 22 978 22 931.5 12.5 c 128,-1,10
 885 3 885 3 831.5 -2.5 c 128,-1,11
 778 -8 778 -8 717 -10 c 128,-1,12
 656 -12 656 -12 584 -12 c 0,13,14
 459 -12 459 -12 366 3.5 c 128,-1,15
 273 19 273 19 210.5 54.5 c 128,-1,16
 148 90 148 90 117 146 c 128,-1,17
 86 202 86 202 86 283 c 0,18,19
 86 368 86 368 118.5 468 c 128,-1,20
 151 568 151 568 206 670 c 1,21,22
 216 677 216 677 227 677 c 256,23,24
 238 677 238 677 253.5 667.5 c 128,-1,25
 269 658 269 658 281 641 c 1,26,27
 263 609 263 609 252 583 c 128,-1,28
 241 557 241 557 234 533.5 c 128,-1,29
 227 510 227 510 224.5 488.5 c 128,-1,30
 222 467 222 467 222 446 c 0,31,32
 222 405 222 405 237 373 c 128,-1,33
 252 341 252 341 298.5 319 c 128,-1,34
 345 297 345 297 431.5 285.5 c 128,-1,35
 518 274 518 274 660 274 c 0,36,37
 801 274 801 274 896.5 279.5 c 128,-1,38
 992 285 992 285 1053.5 295.5 c 128,-1,39
 1115 306 1115 306 1148 322.5 c 128,-1,40
 1181 339 1181 339 1197 362 c 1,41,42
 1182 411 1182 411 1153.5 455 c 128,-1,43
 1125 499 1125 499 1079.5 539.5 c 128,-1,44
 1034 580 1034 580 969 617.5 c 128,-1,45
 904 655 904 655 816 690 c 1,46,47
 816 739 816 739 819.5 792.5 c 128,-1,48
 823 846 823 846 828.5 895 c 128,-1,49
 834 944 834 944 840.5 984.5 c 128,-1,50
 847 1025 847 1025 853 1048 c 1,51,52
 896 1076 896 1076 960 1109 c 128,-1,53
 1024 1142 1024 1142 1098.5 1176 c 128,-1,54
 1173 1210 1173 1210 1252.5 1243 c 128,-1,55
 1332 1276 1332 1276 1405.5 1302.5 c 128,-1,56
 1479 1329 1479 1329 1540.5 1348 c 128,-1,57
 1602 1367 1602 1367 1642 1373 c 1,58,-1
 1518 1103 l 1,59,60
 1487 1097 1487 1097 1440.5 1082.5 c 128,-1,61
 1394 1068 1394 1068 1340 1048.5 c 128,-1,62
 1286 1029 1286 1029 1227 1006 c 128,-1,63
 1168 983 1168 983 1112.5 959 c 128,-1,64
 1057 935 1057 935 1008 911.5 c 128,-1,65
 959 888 959 888 924 869 c 1,66,67
 984 851 984 851 1045.5 817.5 c 128,-1,68
 1107 784 1107 784 1159.5 742 c 128,-1,69
 1212 700 1212 700 1250 654.5 c 128,-1,70
 1288 609 1288 609 1302 568 c 1,71,72
 1302 533 1302 533 1299 477 c 128,-1,73
 1296 421 1296 421 1292 362 c 0,0,1
EndSplineSet
Substitution2: "'fina' Terminal Forms in Arabic lookup 3 subtable" afii62964
Substitution2: "'medi' Medial Forms in Arabic lookup 2 subtable" afii52306
Substitution2: "'init' Initial Forms in Arabic lookup 1 subtable" afii52305
EndChar

StartChar: afii62964
Encoding: 64399 64399 220
Width: 1777
GlyphClass: 2
Flags: W
AnchorPoint: "Anchor-3" 585 -465 basechar 0
AnchorPoint: "Anchor-2" 480 1170 basechar 0
LayerCount: 2
Fore
SplineSet
1816 36 m 1,0,1
 1816 22 1816 22 1810 13 c 128,-1,2
 1804 4 1804 4 1788 4 c 2,3,-1
 1769 4 l 2,4,5
 1736 4 1736 4 1702 13 c 128,-1,6
 1668 22 1668 22 1633 42 c 128,-1,7
 1598 62 1598 62 1563 95.5 c 128,-1,8
 1528 129 1528 129 1492 179 c 0,9,10
 1464 215 1464 215 1435.5 250 c 128,-1,11
 1407 285 1407 285 1379.5 314.5 c 128,-1,12
 1352 344 1352 344 1328 367.5 c 128,-1,13
 1304 391 1304 391 1285 405 c 1,14,15
 1285 351 1285 351 1281.5 305.5 c 128,-1,16
 1278 260 1278 260 1270 206 c 1,17,18
 1249 183 1249 183 1220.5 158 c 128,-1,19
 1192 133 1192 133 1159.5 109.5 c 128,-1,20
 1127 86 1127 86 1091.5 67 c 128,-1,21
 1056 48 1056 48 1020 36 c 0,22,23
 978 22 978 22 931.5 12.5 c 128,-1,24
 885 3 885 3 831.5 -2.5 c 128,-1,25
 778 -8 778 -8 717 -10 c 128,-1,26
 656 -12 656 -12 584 -12 c 0,27,28
 459 -12 459 -12 366 3.5 c 128,-1,29
 273 19 273 19 210.5 54.5 c 128,-1,30
 148 90 148 90 117 146 c 128,-1,31
 86 202 86 202 86 283 c 0,32,33
 86 368 86 368 118.5 468 c 128,-1,34
 151 568 151 568 206 670 c 1,35,36
 216 677 216 677 227 677 c 256,37,38
 238 677 238 677 253.5 667.5 c 128,-1,39
 269 658 269 658 281 641 c 1,40,41
 263 609 263 609 252 583 c 128,-1,42
 241 557 241 557 234 533.5 c 128,-1,43
 227 510 227 510 224.5 488.5 c 128,-1,44
 222 467 222 467 222 446 c 0,45,46
 222 405 222 405 237 373 c 128,-1,47
 252 341 252 341 298.5 319 c 128,-1,48
 345 297 345 297 431.5 285.5 c 128,-1,49
 518 274 518 274 660 274 c 256,50,51
 802 274 802 274 897.5 279.5 c 128,-1,52
 993 285 993 285 1054.5 296 c 128,-1,53
 1116 307 1116 307 1149.5 323.5 c 128,-1,54
 1183 340 1183 340 1201 362 c 1,55,56
 1166 470 1166 470 1073.5 550.5 c 128,-1,57
 981 631 981 631 820 694 c 1,58,59
 820 743 820 743 823.5 794.5 c 128,-1,60
 827 846 827 846 832.5 891.5 c 128,-1,61
 838 937 838 937 844.5 974.5 c 128,-1,62
 851 1012 851 1012 857 1034 c 1,63,64
 896 1065 896 1065 962 1101 c 128,-1,65
 1028 1137 1028 1137 1107 1173 c 128,-1,66
 1186 1209 1186 1209 1271.5 1243 c 128,-1,67
 1357 1277 1357 1277 1435.5 1304.5 c 128,-1,68
 1514 1332 1514 1332 1578.5 1350.5 c 128,-1,69
 1643 1369 1643 1369 1681 1375 c 1,70,-1
 1561 1111 l 1,71,72
 1535 1107 1535 1107 1489 1093.5 c 128,-1,73
 1443 1080 1443 1080 1386.5 1060 c 128,-1,74
 1330 1040 1330 1040 1267.5 1015.5 c 128,-1,75
 1205 991 1205 991 1145 966 c 128,-1,76
 1085 941 1085 941 1032.5 916 c 128,-1,77
 980 891 980 891 944 871 c 1,78,79
 991 853 991 853 1043 824.5 c 128,-1,80
 1095 796 1095 796 1147.5 760.5 c 128,-1,81
 1200 725 1200 725 1251.5 685.5 c 128,-1,82
 1303 646 1303 646 1350.5 605.5 c 128,-1,83
 1398 565 1398 565 1439 525.5 c 128,-1,84
 1480 486 1480 486 1512 452 c 0,85,86
 1561 396 1561 396 1598.5 362 c 128,-1,87
 1636 328 1636 328 1663.5 309 c 128,-1,88
 1691 290 1691 290 1711.5 283.5 c 128,-1,89
 1732 277 1732 277 1748 277 c 2,90,-1
 1786 277 l 2,91,92
 1803 277 1803 277 1809.5 268 c 128,-1,93
 1816 259 1816 259 1816 246 c 2,94,-1
 1816 36 l 1,95,-1
 1816 36 l 1,0,1
EndSplineSet
EndChar

StartChar: afii52305
Encoding: 64400 64400 221
Width: 873
GlyphClass: 2
Flags: W
AnchorPoint: "Anchor-3" 195 -495 basechar 0
AnchorPoint: "Anchor-2" 240 1380 basechar 0
LayerCount: 2
Fore
SplineSet
407 360 m 1,0,1
 392 408 392 408 364 452 c 128,-1,2
 336 496 336 496 291 536.5 c 128,-1,3
 246 577 246 577 181 614.5 c 128,-1,4
 116 652 116 652 26 688 c 1,5,6
 26 737 26 737 29.5 790.5 c 128,-1,7
 33 844 33 844 38.5 893 c 128,-1,8
 44 942 44 942 50.5 982.5 c 128,-1,9
 57 1023 57 1023 63 1046 c 1,10,11
 106 1073 106 1073 170 1106 c 128,-1,12
 234 1139 234 1139 309 1173 c 128,-1,13
 384 1207 384 1207 463.5 1240 c 128,-1,14
 543 1273 543 1273 616.5 1300 c 128,-1,15
 690 1327 690 1327 751.5 1345.5 c 128,-1,16
 813 1364 813 1364 852 1370 c 1,17,-1
 728 1101 l 1,18,19
 698 1095 698 1095 652 1080.5 c 128,-1,20
 606 1066 606 1066 551.5 1046.5 c 128,-1,21
 497 1027 497 1027 437.5 1004 c 128,-1,22
 378 981 378 981 322 957 c 128,-1,23
 266 933 266 933 217 909.5 c 128,-1,24
 168 886 168 886 133 867 c 1,25,26
 194 849 194 849 255.5 815 c 128,-1,27
 317 781 317 781 369.5 739 c 128,-1,28
 422 697 422 697 460 651.5 c 128,-1,29
 498 606 498 606 511 566 c 1,30,31
 511 531 511 531 508.5 475 c 128,-1,32
 506 419 506 419 499 360 c 0,33,34
 494 312 494 312 491 271.5 c 128,-1,35
 488 231 488 231 482 208 c 1,36,37
 425 148 425 148 374 108 c 128,-1,38
 323 68 323 68 269 44 c 128,-1,39
 215 20 215 20 152 10 c 128,-1,40
 89 0 89 0 8 0 c 2,41,-1
 -10 0 l 2,42,43
 -27 0 -27 0 -33 9 c 128,-1,44
 -39 18 -39 18 -39 32 c 2,45,-1
 -39 242 l 2,46,47
 -39 255 -39 255 -32.5 264.5 c 128,-1,48
 -26 274 -26 274 -8 274 c 2,49,-1
 65 274 l 2,50,51
 143 274 143 274 200.5 280 c 128,-1,52
 258 286 258 286 299 297 c 128,-1,53
 340 308 340 308 366 324 c 128,-1,54
 392 340 392 340 407 360 c 1,0,1
EndSplineSet
EndChar

StartChar: afii52306
Encoding: 64401 64401 222
Width: 983
GlyphClass: 2
Flags: W
AnchorPoint: "Anchor-3" 480 -480 basechar 0
AnchorPoint: "Anchor-2" 225 1350 basechar 0
LayerCount: 2
Fore
SplineSet
-39 242 m 1,0,1
 -39 255 -39 255 -32.5 264.5 c 128,-1,2
 -26 274 -26 274 -8 274 c 2,3,-1
 28 274 l 2,4,5
 188 274 188 274 282 295.5 c 128,-1,6
 376 317 376 317 407 358 c 1,7,8
 372 466 372 466 279.5 546.5 c 128,-1,9
 187 627 187 627 26 690 c 1,10,11
 26 739 26 739 29.5 790.5 c 128,-1,12
 33 842 33 842 38.5 888 c 128,-1,13
 44 934 44 934 50.5 971.5 c 128,-1,14
 57 1009 57 1009 63 1030 c 1,15,16
 102 1061 102 1061 168 1097 c 128,-1,17
 234 1133 234 1133 313 1169 c 128,-1,18
 392 1205 392 1205 477.5 1238.5 c 128,-1,19
 563 1272 563 1272 641.5 1299.5 c 128,-1,20
 720 1327 720 1327 784.5 1345.5 c 128,-1,21
 849 1364 849 1364 887 1370 c 1,22,-1
 767 1107 l 1,23,24
 742 1103 742 1103 696.5 1089.5 c 128,-1,25
 651 1076 651 1076 594 1056 c 128,-1,26
 537 1036 537 1036 474 1012 c 128,-1,27
 411 988 411 988 351 962.5 c 128,-1,28
 291 937 291 937 238.5 912 c 128,-1,29
 186 887 186 887 150 867 c 1,30,31
 197 849 197 849 248.5 820.5 c 128,-1,32
 300 792 300 792 352.5 757 c 128,-1,33
 405 722 405 722 457 682 c 128,-1,34
 509 642 509 642 556.5 601.5 c 128,-1,35
 604 561 604 561 645 521.5 c 128,-1,36
 686 482 686 482 718 448 c 0,37,38
 767 393 767 393 804.5 359 c 128,-1,39
 842 325 842 325 870.5 306 c 128,-1,40
 899 287 899 287 919 280.5 c 128,-1,41
 939 274 939 274 953 274 c 2,42,-1
 991 274 l 2,43,44
 1009 274 1009 274 1015.5 264.5 c 128,-1,45
 1022 255 1022 255 1022 242 c 2,46,-1
 1022 32 l 2,47,48
 1022 18 1022 18 1016 9 c 128,-1,49
 1010 0 1010 0 993 0 c 2,50,-1
 975 0 l 2,51,52
 940 0 940 0 906.5 9 c 128,-1,53
 873 18 873 18 839.5 38 c 128,-1,54
 806 58 806 58 770.5 91.5 c 128,-1,55
 735 125 735 125 698 175 c 0,56,57
 670 211 670 211 641 246 c 128,-1,58
 612 281 612 281 585 310.5 c 128,-1,59
 558 340 558 340 534 363.5 c 128,-1,60
 510 387 510 387 492 401 c 1,61,62
 493 381 493 381 495 366.5 c 128,-1,63
 497 352 497 352 497 334 c 0,64,65
 497 328 497 328 496.5 312.5 c 128,-1,66
 496 297 496 297 495 278.5 c 128,-1,67
 494 260 494 260 491.5 240.5 c 128,-1,68
 489 221 489 221 486 206 c 1,69,70
 433 149 433 149 382.5 110 c 128,-1,71
 332 71 332 71 276 46.5 c 128,-1,72
 220 22 220 22 155 11 c 128,-1,73
 90 0 90 0 8 0 c 2,74,-1
 -10 0 l 2,75,76
 -27 0 -27 0 -33 9 c 128,-1,77
 -39 18 -39 18 -39 32 c 2,78,-1
 -39 242 l 1,79,-1
 -39 242 l 1,0,1
EndSplineSet
EndChar

StartChar: afii57509
Encoding: 1711 1711 223
Width: 1660
GlyphClass: 2
Flags: W
AnchorPoint: "Anchor-3" 645 -435 basechar 0
AnchorPoint: "Anchor-2" 465 1110 basechar 0
LayerCount: 2
Fore
SplineSet
1529 934 m 1,0,1
 1491 932 1491 932 1439.5 927 c 128,-1,2
 1388 922 1388 922 1329.5 914 c 128,-1,3
 1271 906 1271 906 1209.5 895.5 c 128,-1,4
 1148 885 1148 885 1090 872.5 c 128,-1,5
 1032 860 1032 860 980.5 845.5 c 128,-1,6
 929 831 929 831 891 816 c 1,7,-1
 891 812 l 1,8,9
 951 794 951 794 1015 767 c 128,-1,10
 1079 740 1079 740 1135.5 707 c 128,-1,11
 1192 674 1192 674 1236.5 635.5 c 128,-1,12
 1281 597 1281 597 1304 555 c 1,13,14
 1304 521 1304 521 1300.5 471.5 c 128,-1,15
 1297 422 1297 422 1292 371 c 128,-1,16
 1287 320 1287 320 1281.5 275.5 c 128,-1,17
 1276 231 1276 231 1272 206 c 1,18,19
 1251 183 1251 183 1222.5 158 c 128,-1,20
 1194 133 1194 133 1161 109.5 c 128,-1,21
 1128 86 1128 86 1092 67 c 128,-1,22
 1056 48 1056 48 1020 36 c 0,23,24
 978 22 978 22 931.5 12.5 c 128,-1,25
 885 3 885 3 831.5 -2.5 c 128,-1,26
 778 -8 778 -8 717 -10 c 128,-1,27
 656 -12 656 -12 584 -12 c 0,28,29
 459 -12 459 -12 366 3.5 c 128,-1,30
 273 19 273 19 210.5 54.5 c 128,-1,31
 148 90 148 90 117 146 c 128,-1,32
 86 202 86 202 86 283 c 0,33,34
 86 368 86 368 118.5 468 c 128,-1,35
 151 568 151 568 206 670 c 1,36,37
 216 677 216 677 227 677 c 256,38,39
 238 677 238 677 253.5 667.5 c 128,-1,40
 269 658 269 658 281 641 c 1,41,42
 263 609 263 609 252 583 c 128,-1,43
 241 557 241 557 234 533.5 c 128,-1,44
 227 510 227 510 224.5 488.5 c 128,-1,45
 222 467 222 467 222 446 c 0,46,47
 222 405 222 405 237 373 c 128,-1,48
 252 341 252 341 298.5 319 c 128,-1,49
 345 297 345 297 431.5 285.5 c 128,-1,50
 518 274 518 274 660 274 c 0,51,52
 801 274 801 274 896.5 279.5 c 128,-1,53
 992 285 992 285 1053.5 295.5 c 128,-1,54
 1115 306 1115 306 1148 322.5 c 128,-1,55
 1181 339 1181 339 1197 362 c 1,56,57
 1185 401 1185 401 1160.5 433.5 c 128,-1,58
 1136 466 1136 466 1092 497.5 c 128,-1,59
 1048 529 1048 529 979.5 561.5 c 128,-1,60
 911 594 911 594 812 633 c 1,61,62
 812 681 812 681 814.5 734 c 128,-1,63
 817 787 817 787 821.5 835.5 c 128,-1,64
 826 884 826 884 832 924 c 128,-1,65
 838 964 838 964 846 985 c 1,66,67
 891 1003 891 1003 955 1023 c 128,-1,68
 1019 1043 1019 1043 1092 1063.5 c 128,-1,69
 1165 1084 1165 1084 1243 1103 c 128,-1,70
 1321 1122 1321 1122 1394 1138 c 128,-1,71
 1467 1154 1467 1154 1530.5 1165 c 128,-1,72
 1594 1176 1594 1176 1638 1180 c 1,73,-1
 1529 934 l 1,0,1
983 1236 m 1,74,75
 1013 1246 1013 1246 1057 1258.5 c 128,-1,76
 1101 1271 1101 1271 1153 1284 c 128,-1,77
 1205 1297 1205 1297 1262 1310 c 128,-1,78
 1319 1323 1319 1323 1375.5 1334.5 c 128,-1,79
 1432 1346 1432 1346 1485 1355 c 128,-1,80
 1538 1364 1538 1364 1583 1370 c 1,81,-1
 1538 1270 l 1,82,83
 1498 1266 1498 1266 1448 1257.5 c 128,-1,84
 1398 1249 1398 1249 1343.5 1238 c 128,-1,85
 1289 1227 1289 1227 1234 1213.5 c 128,-1,86
 1179 1200 1179 1200 1129 1186.5 c 128,-1,87
 1079 1173 1079 1173 1037.5 1160 c 128,-1,88
 996 1147 996 1147 970 1137 c 1,89,-1
 983 1236 l 1,74,75
EndSplineSet
Substitution2: "'fina' Terminal Forms in Arabic lookup 3 subtable" afii62967
Substitution2: "'medi' Medial Forms in Arabic lookup 2 subtable" afii62966
Substitution2: "'init' Initial Forms in Arabic lookup 1 subtable" afii62965
EndChar

StartChar: afii62967
Encoding: 64403 64403 224
Width: 1767
GlyphClass: 2
Flags: W
AnchorPoint: "Anchor-3" 645 -435 basechar 0
AnchorPoint: "Anchor-2" 525 1230 basechar 0
LayerCount: 2
Fore
SplineSet
987 1236 m 1,0,1
 1016 1247 1016 1247 1065.5 1261 c 128,-1,2
 1115 1275 1115 1275 1174.5 1289.5 c 128,-1,3
 1234 1304 1234 1304 1299 1318 c 128,-1,4
 1364 1332 1364 1332 1426 1343 c 128,-1,5
 1488 1354 1488 1354 1541.5 1361.5 c 128,-1,6
 1595 1369 1595 1369 1632 1370 c 1,7,-1
 1587 1270 l 1,8,9
 1563 1270 1563 1270 1516 1263.5 c 128,-1,10
 1469 1257 1469 1257 1410.5 1246 c 128,-1,11
 1352 1235 1352 1235 1287.5 1221 c 128,-1,12
 1223 1207 1223 1207 1162.5 1192.5 c 128,-1,13
 1102 1178 1102 1178 1052 1163.5 c 128,-1,14
 1002 1149 1002 1149 973 1137 c 1,15,-1
 987 1236 l 1,0,1
1807 32 m 2,16,17
 1807 18 1807 18 1799 9 c 128,-1,18
 1791 0 1791 0 1777 0 c 2,19,-1
 1760 0 l 2,20,21
 1726 0 1726 0 1691.5 9 c 128,-1,22
 1657 18 1657 18 1622 38 c 128,-1,23
 1587 58 1587 58 1552 91.5 c 128,-1,24
 1517 125 1517 125 1482 175 c 0,25,26
 1454 211 1454 211 1425 246 c 128,-1,27
 1396 281 1396 281 1369 310.5 c 128,-1,28
 1342 340 1342 340 1318 363.5 c 128,-1,29
 1294 387 1294 387 1276 401 c 1,30,31
 1278 381 1278 381 1280 366.5 c 128,-1,32
 1282 352 1282 352 1282 334 c 0,33,34
 1282 327 1282 327 1281 312 c 128,-1,35
 1280 297 1280 297 1278.5 278.5 c 128,-1,36
 1277 260 1277 260 1274.5 241 c 128,-1,37
 1272 222 1272 222 1270 206 c 1,38,39
 1249 183 1249 183 1220.5 158 c 128,-1,40
 1192 133 1192 133 1159.5 109.5 c 128,-1,41
 1127 86 1127 86 1091.5 67 c 128,-1,42
 1056 48 1056 48 1020 36 c 0,43,44
 978 22 978 22 931.5 12.5 c 128,-1,45
 885 3 885 3 831.5 -2.5 c 128,-1,46
 778 -8 778 -8 717 -10 c 128,-1,47
 656 -12 656 -12 584 -12 c 0,48,49
 459 -12 459 -12 366 3.5 c 128,-1,50
 273 19 273 19 210.5 54.5 c 128,-1,51
 148 90 148 90 117 146 c 128,-1,52
 86 202 86 202 86 283 c 0,53,54
 86 368 86 368 118.5 468 c 128,-1,55
 151 568 151 568 206 670 c 1,56,57
 216 677 216 677 227 677 c 256,58,59
 238 677 238 677 253.5 667.5 c 128,-1,60
 269 658 269 658 281 641 c 1,61,62
 263 609 263 609 252 583 c 128,-1,63
 241 557 241 557 234 533.5 c 128,-1,64
 227 510 227 510 224.5 488.5 c 128,-1,65
 222 467 222 467 222 446 c 0,66,67
 222 405 222 405 237 373 c 128,-1,68
 252 341 252 341 298.5 319 c 128,-1,69
 345 297 345 297 431.5 285.5 c 128,-1,70
 518 274 518 274 660 274 c 256,71,72
 802 274 802 274 897.5 279.5 c 128,-1,73
 993 285 993 285 1054.5 296 c 128,-1,74
 1116 307 1116 307 1149.5 323.5 c 128,-1,75
 1183 340 1183 340 1201 362 c 1,76,77
 1187 401 1187 401 1163 433.5 c 128,-1,78
 1139 466 1139 466 1095.5 497 c 128,-1,79
 1052 528 1052 528 984.5 560.5 c 128,-1,80
 917 593 917 593 816 633 c 1,81,82
 816 681 816 681 818 734 c 128,-1,83
 820 787 820 787 824.5 835.5 c 128,-1,84
 829 884 829 884 835.5 924 c 128,-1,85
 842 964 842 964 850 985 c 1,86,87
 890 1003 890 1003 951 1023.5 c 128,-1,88
 1012 1044 1012 1044 1084.5 1065 c 128,-1,89
 1157 1086 1157 1086 1237.5 1106 c 128,-1,90
 1318 1126 1318 1126 1396 1141.5 c 128,-1,91
 1474 1157 1474 1157 1546 1167.5 c 128,-1,92
 1618 1178 1618 1178 1675 1180 c 1,93,-1
 1567 934 l 1,94,95
 1528 936 1528 936 1473 932.5 c 128,-1,96
 1418 929 1418 929 1355 921 c 128,-1,97
 1292 913 1292 913 1225.5 901.5 c 128,-1,98
 1159 890 1159 890 1097.5 876 c 128,-1,99
 1036 862 1036 862 983 846.5 c 128,-1,100
 930 831 930 831 895 816 c 1,101,-1
 895 812 l 1,102,103
 942 800 942 800 996 778 c 128,-1,104
 1050 756 1050 756 1106 726.5 c 128,-1,105
 1162 697 1162 697 1218 662 c 128,-1,106
 1274 627 1274 627 1325.5 590.5 c 128,-1,107
 1377 554 1377 554 1421.5 517.5 c 128,-1,108
 1466 481 1466 481 1499 448 c 0,109,110
 1547 401 1547 401 1584.5 368 c 128,-1,111
 1622 335 1622 335 1652 314 c 128,-1,112
 1682 293 1682 293 1704.5 283.5 c 128,-1,113
 1727 274 1727 274 1744 274 c 2,114,-1
 1775 274 l 2,115,116
 1793 274 1793 274 1800 264.5 c 128,-1,117
 1807 255 1807 255 1807 242 c 2,118,-1
 1807 32 l 2,16,17
EndSplineSet
EndChar

StartChar: afii62965
Encoding: 64404 64404 225
Width: 873
GlyphClass: 2
Flags: W
AnchorPoint: "Anchor-3" 195 -465 basechar 0
AnchorPoint: "Anchor-2" 255 1410 basechar 0
LayerCount: 2
Fore
SplineSet
197 1236 m 1,0,1
 227 1246 227 1246 271 1258.5 c 128,-1,2
 315 1271 315 1271 367 1284 c 128,-1,3
 419 1297 419 1297 476 1310 c 128,-1,4
 533 1323 533 1323 589.5 1334.5 c 128,-1,5
 646 1346 646 1346 699 1355 c 128,-1,6
 752 1364 752 1364 796 1370 c 1,7,-1
 751 1270 l 1,8,9
 712 1266 712 1266 662.5 1257.5 c 128,-1,10
 613 1249 613 1249 558.5 1238 c 128,-1,11
 504 1227 504 1227 448.5 1213.5 c 128,-1,12
 393 1200 393 1200 342.5 1186.5 c 128,-1,13
 292 1173 292 1173 250.5 1160 c 128,-1,14
 209 1147 209 1147 182 1137 c 1,15,-1
 197 1236 l 1,0,1
-39 242 m 2,16,17
 -39 255 -39 255 -32.5 264.5 c 128,-1,18
 -26 274 -26 274 -8 274 c 2,19,-1
 65 274 l 2,20,21
 143 274 143 274 200.5 280 c 128,-1,22
 258 286 258 286 299.5 297 c 128,-1,23
 341 308 341 308 367.5 324.5 c 128,-1,24
 394 341 394 341 411 362 c 1,25,26
 399 401 399 401 375 433.5 c 128,-1,27
 351 466 351 466 306.5 497.5 c 128,-1,28
 262 529 262 529 194 561.5 c 128,-1,29
 126 594 126 594 26 633 c 1,30,31
 26 680 26 680 28.5 733.5 c 128,-1,32
 31 787 31 787 35 836 c 128,-1,33
 39 885 39 885 45 924.5 c 128,-1,34
 51 964 51 964 59 985 c 1,35,36
 104 1003 104 1003 168 1023 c 128,-1,37
 232 1043 232 1043 305.5 1063.5 c 128,-1,38
 379 1084 379 1084 457.5 1103 c 128,-1,39
 536 1122 536 1122 609 1138 c 128,-1,40
 682 1154 682 1154 745.5 1165 c 128,-1,41
 809 1176 809 1176 852 1180 c 1,42,-1
 743 934 l 1,43,44
 705 932 705 932 653 926.5 c 128,-1,45
 601 921 601 921 543 913 c 128,-1,46
 485 905 485 905 423.5 894.5 c 128,-1,47
 362 884 362 884 304 871.5 c 128,-1,48
 246 859 246 859 194.5 845 c 128,-1,49
 143 831 143 831 105 816 c 1,50,-1
 105 812 l 1,51,52
 166 794 166 794 230 767.5 c 128,-1,53
 294 741 294 741 350 707.5 c 128,-1,54
 406 674 406 674 450.5 635.5 c 128,-1,55
 495 597 495 597 517 555 c 1,56,57
 517 521 517 521 513.5 471.5 c 128,-1,58
 510 422 510 422 505.5 371 c 128,-1,59
 501 320 501 320 495.5 275.5 c 128,-1,60
 490 231 490 231 486 206 c 1,61,62
 430 146 430 146 378 106 c 128,-1,63
 326 66 326 66 270.5 42.5 c 128,-1,64
 215 19 215 19 151 9.5 c 128,-1,65
 87 0 87 0 8 0 c 2,66,-1
 -10 0 l 2,67,68
 -27 0 -27 0 -33 9 c 128,-1,69
 -39 18 -39 18 -39 32 c 2,70,-1
 -39 242 l 2,16,17
EndSplineSet
EndChar

StartChar: afii62966
Encoding: 64405 64405 226
Width: 983
GlyphClass: 2
Flags: W
AnchorPoint: "Anchor-3" 510 -480 basechar 0
AnchorPoint: "Anchor-2" 300 1410 basechar 0
LayerCount: 2
Fore
SplineSet
203 1236 m 1,0,1
 233 1246 233 1246 282.5 1259.5 c 128,-1,2
 332 1273 332 1273 391 1287.5 c 128,-1,3
 450 1302 450 1302 515 1316 c 128,-1,4
 580 1330 580 1330 641.5 1341 c 128,-1,5
 703 1352 703 1352 757 1360 c 128,-1,6
 811 1368 811 1368 848 1370 c 1,7,-1
 803 1270 l 1,8,9
 780 1270 780 1270 733.5 1263.5 c 128,-1,10
 687 1257 687 1257 628.5 1246 c 128,-1,11
 570 1235 570 1235 505 1221 c 128,-1,12
 440 1207 440 1207 379.5 1192.5 c 128,-1,13
 319 1178 319 1178 268.5 1163.5 c 128,-1,14
 218 1149 218 1149 189 1137 c 1,15,-1
 203 1236 l 1,0,1
-39 242 m 2,16,17
 -39 255 -39 255 -32.5 264.5 c 128,-1,18
 -26 274 -26 274 -8 274 c 2,19,-1
 28 274 l 2,20,21
 188 274 188 274 282.5 296 c 128,-1,22
 377 318 377 318 417 362 c 1,23,24
 405 401 405 401 381 433.5 c 128,-1,25
 357 466 357 466 312.5 497.5 c 128,-1,26
 268 529 268 529 200 561.5 c 128,-1,27
 132 594 132 594 32 633 c 1,28,29
 32 682 32 682 35 734.5 c 128,-1,30
 38 787 38 787 42.5 835.5 c 128,-1,31
 47 884 47 884 53 923.5 c 128,-1,32
 59 963 59 963 65 985 c 1,33,34
 106 1002 106 1002 167 1022.5 c 128,-1,35
 228 1043 228 1043 300.5 1064 c 128,-1,36
 373 1085 373 1085 453 1105 c 128,-1,37
 533 1125 533 1125 611 1141 c 128,-1,38
 689 1157 689 1157 761.5 1167.5 c 128,-1,39
 834 1178 834 1178 891 1180 c 1,40,-1
 782 934 l 1,41,42
 743 936 743 936 688 932 c 128,-1,43
 633 928 633 928 570.5 920 c 128,-1,44
 508 912 508 912 441.5 900.5 c 128,-1,45
 375 889 375 889 313.5 875 c 128,-1,46
 252 861 252 861 199 846 c 128,-1,47
 146 831 146 831 110 816 c 1,48,-1
 110 812 l 1,49,50
 157 800 157 800 211 778 c 128,-1,51
 265 756 265 756 321 726.5 c 128,-1,52
 377 697 377 697 433 662 c 128,-1,53
 489 627 489 627 540.5 590.5 c 128,-1,54
 592 554 592 554 636 517.5 c 128,-1,55
 680 481 680 481 713 448 c 0,56,57
 763 401 763 401 801.5 368 c 128,-1,58
 840 335 840 335 869 314 c 128,-1,59
 898 293 898 293 920 283.5 c 128,-1,60
 942 274 942 274 959 274 c 2,61,-1
 991 274 l 2,62,63
 1009 274 1009 274 1015.5 264.5 c 128,-1,64
 1022 255 1022 255 1022 242 c 2,65,-1
 1022 32 l 2,66,67
 1022 18 1022 18 1016 9 c 128,-1,68
 1010 0 1010 0 993 0 c 2,69,-1
 975 0 l 2,70,71
 940 0 940 0 906.5 9 c 128,-1,72
 873 18 873 18 839.5 38 c 128,-1,73
 806 58 806 58 770.5 91.5 c 128,-1,74
 735 125 735 125 698 175 c 0,75,76
 670 211 670 211 641 246 c 128,-1,77
 612 281 612 281 585 310.5 c 128,-1,78
 558 340 558 340 534 363.5 c 128,-1,79
 510 387 510 387 492 401 c 1,80,81
 493 381 493 381 495 366.5 c 128,-1,82
 497 352 497 352 497 334 c 0,83,84
 497 328 497 328 496.5 312.5 c 128,-1,85
 496 297 496 297 495 278.5 c 128,-1,86
 494 260 494 260 491.5 240.5 c 128,-1,87
 489 221 489 221 486 206 c 1,88,89
 446 161 446 161 393.5 121.5 c 128,-1,90
 341 82 341 82 287 59 c 0,91,92
 246 39 246 39 208.5 27.5 c 128,-1,93
 171 16 171 16 135.5 10 c 128,-1,94
 100 4 100 4 68 2 c 128,-1,95
 36 0 36 0 8 0 c 2,96,-1
 -10 0 l 2,97,98
 -27 0 -27 0 -33 9 c 128,-1,99
 -39 18 -39 18 -39 32 c 2,100,-1
 -39 242 l 2,16,17
EndSplineSet
EndChar

StartChar: afii57555
Encoding: 1740 1740 227
Width: 1439
GlyphClass: 2
Flags: W
AnchorPoint: "Anchor-3" 585 -810 basechar 0
AnchorPoint: "Anchor-2" 585 915 basechar 0
LayerCount: 2
Fore
SplineSet
1278 619 m 1,0,1
 1217 651 1217 651 1156 651 c 0,2,3
 991 651 991 651 889 396 c 1,4,5
 915 366 915 366 970 341.5 c 128,-1,6
 1025 317 1025 317 1115 297 c 0,7,8
 1283 262 1283 262 1315 173 c 1,9,10
 1295 44 1295 44 1272.5 -49.5 c 128,-1,11
 1250 -143 1250 -143 1221 -201 c 1,12,13
 1007 -312 1007 -312 825.5 -366 c 128,-1,14
 644 -420 644 -420 490 -420 c 0,15,16
 73 -420 73 -420 73 -75 c 0,17,18
 73 -41 73 -41 83 12 c 128,-1,19
 93 65 93 65 114 137 c 0,20,21
 165 309 165 309 238 433 c 0,22,23
 243 435 243 435 247 436 c 128,-1,24
 251 437 251 437 255 437 c 0,25,26
 272 437 272 437 285.5 428 c 128,-1,27
 299 419 299 419 311 403 c 1,28,29
 296 375 296 375 282.5 336.5 c 128,-1,30
 269 298 269 298 255 246 c 0,31,32
 244 195 244 195 238 155.5 c 128,-1,33
 232 116 232 116 232 84 c 0,34,35
 232 -148 232 -148 546 -148 c 0,36,37
 615 -148 615 -148 700 -135 c 128,-1,38
 785 -122 785 -122 891 -96 c 0,39,40
 990 -73 990 -73 1063.5 -49.5 c 128,-1,41
 1137 -26 1137 -26 1188 0 c 1,42,43
 1170 66 1170 66 1022 92 c 0,44,45
 780 137 780 137 747 216 c 1,46,47
 823 574 823 574 934 741 c 0,48,49
 1050 916 1050 916 1229 916 c 0,50,51
 1325 916 1325 916 1388 887 c 1,52,-1
 1278 619 l 1,0,1
EndSplineSet
Substitution2: "'fina' Terminal Forms in Arabic lookup 3 subtable" afii52364
Substitution2: "'medi' Medial Forms in Arabic lookup 2 subtable" afii62832
Substitution2: "'init' Initial Forms in Arabic lookup 1 subtable" uniFBFE
EndChar

StartChar: afii52364
Encoding: 64509 64509 228
Width: 1287
GlyphClass: 2
Flags: W
AnchorPoint: "Anchor-3" 570 -1020 basechar 0
AnchorPoint: "Anchor-2" 570 630 basechar 0
LayerCount: 2
Fore
SplineSet
1327 32 m 1,0,1
 1327 0 1327 0 1298 0 c 2,2,-1
 1280 0 l 2,3,4
 1231 0 1231 0 1116 30 c 0,5,6
 1059 44 1059 44 1025 51.5 c 128,-1,7
 991 59 991 59 977 59 c 0,8,9
 907 59 907 59 876 -12 c 1,10,11
 903 -27 903 -27 935 -38.5 c 128,-1,12
 967 -50 967 -50 1005 -60 c 0,13,14
 1071 -77 1071 -77 1118.5 -101 c 128,-1,15
 1166 -125 1166 -125 1195 -159 c 1,16,17
 1193 -188 1193 -188 1186 -225 c 128,-1,18
 1179 -262 1179 -262 1164 -311 c 0,19,20
 1147 -359 1147 -359 1132 -394 c 128,-1,21
 1117 -429 1117 -429 1101 -450 c 1,22,23
 1040 -473 1040 -473 963 -492 c 128,-1,24
 886 -511 886 -511 792 -531 c 0,25,26
 687 -552 687 -552 599.5 -562 c 128,-1,27
 512 -572 512 -572 441 -572 c 0,28,29
 47 -572 47 -572 47 -279 c 0,30,31
 47 -186 47 -186 102 -43 c 0,32,33
 131 34 131 34 165.5 97.5 c 128,-1,34
 200 161 200 161 238 212 c 1,35,36
 257 212 257 212 273 203.5 c 128,-1,37
 289 195 289 195 300 175 c 1,38,39
 206 14 206 14 206 -105 c 0,40,41
 206 -319 206 -319 568 -319 c 0,42,43
 620 -319 620 -319 692 -314.5 c 128,-1,44
 764 -310 764 -310 859 -300 c 0,45,46
 945 -293 945 -293 999.5 -286.5 c 128,-1,47
 1054 -280 1054 -280 1077 -276 c 1,48,49
 1069 -246 1069 -246 949 -214 c 0,50,51
 818 -180 818 -180 767 -130 c 1,52,53
 825 285 825 285 1026 285 c 0,54,55
 1071 285 1071 285 1148 279 c 0,56,57
 1186 277 1186 277 1214 275.5 c 128,-1,58
 1242 274 1242 274 1259 274 c 2,59,-1
 1296 274 l 2,60,61
 1327 274 1327 274 1327 242 c 2,62,-1
 1327 32 l 1,63,-1
 1327 32 l 1,0,1
EndSplineSet
EndChar

StartChar: afii62882
Encoding: 64606 64606 229
Width: 0
GlyphClass: 4
Flags: W
AnchorPoint: "Anchor-2" 0 0 mark 0
AnchorPoint: "Anchor-0" 0 0 mark 0
LayerCount: 2
Fore
SplineSet
165 208 m 2,0,1
 165 121 165 121 139.5 82 c 128,-1,2
 114 43 114 43 73 43 c 0,3,4
 54 43 54 43 38 55 c 128,-1,5
 22 67 22 67 11 84 c 1,6,7
 -9 39 -9 39 -37 19.5 c 128,-1,8
 -65 0 -65 0 -94 0 c 0,9,10
 -129 0 -129 0 -150 32 c 128,-1,11
 -171 64 -171 64 -171 130 c 2,12,-1
 -171 204 l 1,13,-1
 -106 230 l 1,14,-1
 -106 180 l 2,15,16
 -106 151 -106 151 -97 139.5 c 128,-1,17
 -88 128 -88 128 -74 128 c 0,18,19
 -63 128 -63 128 -56 134 c 128,-1,20
 -49 140 -49 140 -43 148 c 0,21,22
 -32 159 -32 159 -31.5 181 c 128,-1,23
 -31 203 -31 203 -31 240 c 1,24,-1
 24 260 l 1,25,26
 33 194 33 194 56 180 c 0,27,28
 63 173 63 173 71 171 c 128,-1,29
 79 169 79 169 87 169 c 0,30,31
 98 169 98 169 99.5 178 c 128,-1,32
 101 187 101 187 101 201 c 256,33,34
 101 215 101 215 99.5 239.5 c 128,-1,35
 98 264 98 264 93 283 c 1,36,-1
 165 311 l 1,37,-1
 165 208 l 2,0,1
172 386 m 1,38,39
 146 399 146 399 126 409 c 128,-1,40
 106 419 106 419 89 427 c 1,41,42
 43 367 43 367 -23.5 330 c 128,-1,43
 -90 293 -90 293 -175 276 c 1,44,45
 -175 315 -175 315 -176.5 344.5 c 128,-1,46
 -178 374 -178 374 -182 392 c 1,47,48
 -208 369 -208 369 -234 354.5 c 128,-1,49
 -260 340 -260 340 -284 332 c 1,50,-1
 -284 463 l 1,51,52
 -247 473 -247 473 -214.5 492.5 c 128,-1,53
 -182 512 -182 512 -151 537 c 1,54,55
 -140 514 -140 514 -134.5 479 c 128,-1,56
 -129 444 -129 444 -124 396 c 1,57,58
 -79 403 -79 403 -45 418.5 c 128,-1,59
 -11 434 -11 434 14 456 c 1,60,61
 -17 468 -17 468 -37 479.5 c 128,-1,62
 -57 491 -57 491 -69.5 503.5 c 128,-1,63
 -82 516 -82 516 -88 530.5 c 128,-1,64
 -94 545 -94 545 -96 564 c 1,65,66
 -90 587 -90 587 -83 606.5 c 128,-1,67
 -76 626 -76 626 -68 649 c 1,68,69
 -33 704 -33 704 11.5 728 c 128,-1,70
 56 752 56 752 110 752 c 1,71,72
 134 735 134 735 147.5 706 c 128,-1,73
 161 677 161 677 161 630 c 0,74,75
 161 606 161 606 157 579.5 c 128,-1,76
 153 553 153 553 142 521 c 1,77,78
 150 517 150 517 157.5 514 c 128,-1,79
 165 511 165 511 172 506 c 1,80,-1
 172 386 l 1,38,39
93 566 m 0,81,82
 93 631 93 631 61 651 c 1,83,84
 4 651 4 651 -21 619 c 1,85,86
 -16 595 -16 595 12.5 575 c 128,-1,87
 41 555 41 555 89 537 c 1,88,89
 91 543 91 543 92 552 c 128,-1,90
 93 561 93 561 93 566 c 0,81,82
EndSplineSet
Ligature2: "'ccmp' Glyph Composition/Decomposition in Arabic lookup 4 subtable" afii57457 afii57452
EndChar

StartChar: afii62883
Encoding: 64607 64607 230
Width: 0
GlyphClass: 4
Flags: W
AnchorPoint: "Anchor-2" 0 0 mark 0
AnchorPoint: "Anchor-0" 0 0 mark 0
LayerCount: 2
Fore
SplineSet
159 624 m 2,0,1
 159 534 159 534 133 496.5 c 128,-1,2
 107 459 107 459 67 459 c 0,3,4
 29 459 29 459 4 500 c 1,5,6
 -15 454 -15 454 -42 434 c 128,-1,7
 -69 414 -69 414 -98 414 c 0,8,9
 -135 414 -135 414 -156 446 c 128,-1,10
 -177 478 -177 478 -177 543 c 2,11,-1
 -177 620 l 1,12,-1
 -111 643 l 1,13,-1
 -111 592 l 2,14,15
 -111 564 -111 564 -102.5 552.5 c 128,-1,16
 -94 541 -94 541 -81 541 c 256,17,18
 -68 541 -68 541 -61.5 547 c 128,-1,19
 -55 553 -55 553 -49 561 c 0,20,21
 -38 573 -38 573 -37.5 595.5 c 128,-1,22
 -37 618 -37 618 -37 654 c 1,23,-1
 18 673 l 1,24,25
 27 608 27 608 50 592 c 0,26,27
 58 588 58 588 65.5 585.5 c 128,-1,28
 73 583 73 583 81 583 c 0,29,30
 92 583 92 583 93.5 591 c 128,-1,31
 95 599 95 599 95 616 c 0,32,33
 95 630 95 630 93 653.5 c 128,-1,34
 91 677 91 677 86 697 c 1,35,-1
 159 724 l 1,36,-1
 159 624 l 2,0,1
-190 4 m 1,37,-1
 -190 88 l 1,38,-1
 185 227 l 1,39,-1
 185 141 l 1,40,-1
 -190 4 l 1,37,-1
-190 167 m 1,41,-1
 -190 252 l 1,42,-1
 185 390 l 1,43,-1
 185 304 l 1,44,-1
 -190 167 l 1,41,-1
EndSplineSet
Ligature2: "'ccmp' Glyph Composition/Decomposition in Arabic lookup 4 subtable" afii57457 afii57453
EndChar

StartChar: afii62884
Encoding: 64608 64608 231
Width: 0
GlyphClass: 4
Flags: W
AnchorPoint: "Anchor-2" 0 0 mark 0
AnchorPoint: "Anchor-0" 0 0 mark 0
LayerCount: 2
Fore
SplineSet
163 207 m 2,0,1
 163 120 163 120 137.5 81 c 128,-1,2
 112 42 112 42 71 42 c 0,3,4
 52 42 52 42 36 54 c 128,-1,5
 20 66 20 66 9 84 c 1,6,7
 -11 38 -11 38 -39 18.5 c 128,-1,8
 -67 -1 -67 -1 -96 -1 c 0,9,10
 -131 -1 -131 -1 -152 31 c 128,-1,11
 -173 63 -173 63 -173 129 c 2,12,-1
 -173 204 l 1,13,-1
 -108 229 l 1,14,-1
 -108 179 l 2,15,16
 -108 150 -108 150 -99 138.5 c 128,-1,17
 -90 127 -90 127 -76 127 c 0,18,19
 -64 127 -64 127 -57.5 133 c 128,-1,20
 -51 139 -51 139 -45 147 c 0,21,22
 -34 158 -34 158 -33.5 180 c 128,-1,23
 -33 202 -33 202 -33 239 c 1,24,-1
 22 259 l 1,25,26
 31 193 31 193 54 179 c 0,27,28
 61 172 61 172 69 170 c 128,-1,29
 77 168 77 168 85 168 c 0,30,31
 96 168 96 168 97.5 177 c 128,-1,32
 99 186 99 186 99 200 c 256,33,34
 99 214 99 214 97.5 238.5 c 128,-1,35
 96 263 96 263 91 282 c 1,36,-1
 163 310 l 1,37,-1
 163 207 l 2,0,1
-190 292 m 1,38,-1
 -190 376 l 1,39,-1
 185 515 l 1,40,-1
 185 429 l 1,41,-1
 -190 292 l 1,38,-1
EndSplineSet
Ligature2: "'ccmp' Glyph Composition/Decomposition in Arabic lookup 4 subtable" afii57457 afii57454
EndChar

StartChar: afii62885
Encoding: 64609 64609 232
Width: 0
GlyphClass: 4
Flags: W
AnchorPoint: "Anchor-2" 0 0 mark 0
AnchorPoint: "Anchor-0" 0 0 mark 0
LayerCount: 2
Fore
SplineSet
157 217 m 2,0,1
 157 130 157 130 131.5 91 c 128,-1,2
 106 52 106 52 65 52 c 0,3,4
 46 52 46 52 30 64 c 128,-1,5
 14 76 14 76 3 93 c 1,6,7
 -17 48 -17 48 -44.5 28.5 c 128,-1,8
 -72 9 -72 9 -102 9 c 0,9,10
 -137 9 -137 9 -158 41 c 128,-1,11
 -179 73 -179 73 -179 138 c 2,12,-1
 -179 213 l 1,13,-1
 -113 239 l 1,14,-1
 -113 188 l 2,15,16
 -113 160 -113 160 -104.5 148 c 128,-1,17
 -96 136 -96 136 -82 136 c 0,18,19
 -70 136 -70 136 -63.5 142.5 c 128,-1,20
 -57 149 -57 149 -51 156 c 0,21,22
 -40 168 -40 168 -39 190 c 128,-1,23
 -38 212 -38 212 -38 249 c 1,24,-1
 16 269 l 1,25,26
 21 235 21 235 29 215.5 c 128,-1,27
 37 196 37 196 48 188 c 0,28,29
 56 182 56 182 64 180 c 128,-1,30
 72 178 72 178 80 178 c 0,31,32
 90 178 90 178 91.5 187 c 128,-1,33
 93 196 93 196 93 209 c 0,34,35
 93 223 93 223 91.5 248 c 128,-1,36
 90 273 90 273 85 292 c 1,37,-1
 157 320 l 1,38,-1
 157 217 l 2,0,1
157 404 m 1,39,40
 138 415 138 415 117.5 423.5 c 128,-1,41
 97 432 97 432 73 440 c 1,42,43
 31 379 31 379 -35 343.5 c 128,-1,44
 -101 308 -101 308 -190 288 c 1,45,-1
 -190 406 l 1,46,47
 -74 421 -74 421 -8 468 c 1,48,49
 -62 484 -62 484 -89.5 511.5 c 128,-1,50
 -117 539 -117 539 -117 573 c 1,51,52
 -112 594 -112 594 -107 614.5 c 128,-1,53
 -102 635 -102 635 -94 656 c 0,54,55
 -66 707 -66 707 -19.5 740.5 c 128,-1,56
 27 774 27 774 78 774 c 1,57,58
 113 757 113 757 128.5 721.5 c 128,-1,59
 144 686 144 686 144 633 c 0,60,61
 144 609 144 609 140 584 c 128,-1,62
 136 559 136 559 129 536 c 1,63,64
 136 534 136 534 143 530.5 c 128,-1,65
 150 527 150 527 157 522 c 1,66,-1
 157 404 l 1,39,40
78 593 m 0,67,68
 78 645 78 645 42 665 c 1,69,70
 14 665 14 665 -10.5 655.5 c 128,-1,71
 -35 646 -35 646 -49 622 c 1,72,73
 -38 600 -38 600 -7.5 583.5 c 128,-1,74
 23 567 23 567 71 556 c 1,75,76
 76 566 76 566 77 574 c 128,-1,77
 78 582 78 582 78 593 c 0,67,68
EndSplineSet
Ligature2: "'ccmp' Glyph Composition/Decomposition in Arabic lookup 4 subtable" afii57457 afii57455
EndChar

StartChar: afii62886
Encoding: 64610 64610 233
Width: 0
GlyphClass: 4
Flags: W
AnchorPoint: "Anchor-2" 0 0 mark 0
AnchorPoint: "Anchor-0" 0 0 mark 0
LayerCount: 2
Fore
SplineSet
-164 0 m 1,0,-1
 -164 105 l 1,1,-1
 182 242 l 1,2,-1
 182 140 l 1,3,-1
 -164 0 l 1,0,-1
166 459 m 2,4,5
 166 369 166 369 140 331.5 c 128,-1,6
 114 294 114 294 74 294 c 0,7,8
 36 294 36 294 11 335 c 1,9,10
 -8 289 -8 289 -35.5 268.5 c 128,-1,11
 -63 248 -63 248 -91 248 c 0,12,13
 -128 248 -128 248 -149 280.5 c 128,-1,14
 -170 313 -170 313 -170 378 c 2,15,-1
 -170 454 l 1,16,-1
 -105 478 l 1,17,-1
 -105 429 l 2,18,19
 -105 400 -105 400 -96 388 c 128,-1,20
 -87 376 -87 376 -74 376 c 0,21,22
 -62 376 -62 376 -55 382 c 128,-1,23
 -48 388 -48 388 -42 396 c 0,24,25
 -31 407 -31 407 -31 430 c 128,-1,26
 -31 453 -31 453 -31 488 c 1,27,-1
 25 510 l 1,28,29
 34 445 34 445 57 429 c 0,30,31
 64 423 64 423 72 420.5 c 128,-1,32
 80 418 80 418 87 418 c 0,33,34
 98 418 98 418 100 426 c 128,-1,35
 102 434 102 434 102 450 c 0,36,37
 102 457 102 457 101.5 467 c 128,-1,38
 101 477 101 477 100 488.5 c 128,-1,39
 99 500 99 500 97.5 511 c 128,-1,40
 96 522 96 522 93 531 c 1,41,-1
 166 559 l 1,42,-1
 166 459 l 2,4,5
EndSplineSet
Ligature2: "'ccmp' Glyph Composition/Decomposition in Arabic lookup 4 subtable" afii57457 afii57456
EndChar

StartChar: afii62945
Encoding: 65554 -1 234
Width: 1701
GlyphClass: 3
Flags: W
LayerCount: 2
Fore
SplineSet
1620 352 m 1,0,1
 1528 0 1528 0 1308 0 c 0,2,3
 1261 0 1261 0 1226 11.5 c 128,-1,4
 1191 23 1191 23 1166 49 c 128,-1,5
 1141 75 1141 75 1124.5 116.5 c 128,-1,6
 1108 158 1108 158 1099 218 c 1,7,-1
 1095 218 l 1,8,9
 1091 123 1091 123 983 43 c 0,10,11
 886 -30 886 -30 790 -30 c 0,12,13
 574 -30 574 -30 568 287 c 1,14,-1
 564 287 l 1,15,16
 553 267 553 267 537.5 243 c 128,-1,17
 522 219 522 219 499 191 c 256,18,19
 476 163 476 163 460.5 144.5 c 128,-1,20
 445 126 445 126 435 118 c 1,21,22
 378 118 378 118 322 129.5 c 128,-1,23
 266 141 266 141 208 167 c 0,24,25
 156 190 156 190 121 213.5 c 128,-1,26
 86 237 86 237 67 265 c 1,27,28
 72 309 72 309 91 364 c 128,-1,29
 110 419 110 419 148 486 c 1,30,31
 170 505 170 505 215 528 c 128,-1,32
 260 551 260 551 326 580 c 0,33,34
 464 638 464 638 563 653 c 1,35,36
 563 673 563 673 559.5 700 c 128,-1,37
 556 727 556 727 548 765 c 1,38,-1
 698 863 l 1,39,40
 700 821 700 821 701 783 c 128,-1,41
 702 745 702 745 702 711 c 0,42,43
 702 704 702 704 701 683 c 128,-1,44
 700 662 700 662 698 627 c 0,45,46
 696 593 696 593 696 567 c 128,-1,47
 696 541 696 541 696 525 c 0,48,49
 696 353 696 353 724 295 c 0,50,51
 749 244 749 244 828 244 c 0,52,53
 852 244 852 244 880.5 251.5 c 128,-1,54
 909 259 909 259 936.5 271.5 c 128,-1,55
 964 284 964 284 987.5 301 c 128,-1,56
 1011 318 1011 318 1026 336 c 1,57,58
 1028 486 1028 486 1023.5 600 c 128,-1,59
 1019 714 1019 714 1009 794 c 1,60,-1
 1188 897 l 1,61,-1
 1184 431 l 2,62,63
 1184 274 1184 274 1321 274 c 0,64,65
 1339 274 1339 274 1358 278 c 128,-1,66
 1377 282 1377 282 1400 293 c 0,67,68
 1452 313 1452 313 1473 344 c 1,69,70
 1473 467 1473 467 1458 624.5 c 128,-1,71
 1443 782 1443 782 1414 977 c 1,72,-1
 1583 1158 l 1,73,74
 1602 916 1602 916 1611 715.5 c 128,-1,75
 1620 515 1620 515 1620 352 c 1,0,1
568 338 m 1,76,77
 568 401 568 401 566.5 453 c 128,-1,78
 565 505 565 505 563 544 c 1,79,80
 323 502 323 502 222 401 c 1,81,82
 239 387 239 387 268 375 c 128,-1,83
 297 363 297 363 342 352 c 0,84,85
 385 341 385 341 422 336.5 c 128,-1,86
 459 332 459 332 492 332 c 0,87,88
 526 332 526 332 568 338 c 1,76,77
EndSplineSet
EndChar

StartChar: afii64184
Encoding: 65010 65010 235
Width: 1701
GlyphClass: 3
Flags: W
AnchorPoint: "Anchor-1" 1500 -315 baselig 0
AnchorPoint: "Anchor-0" 1455 1275 baselig 0
AnchorPoint: "Anchor-1" 1035 -375 baselig 1
AnchorPoint: "Anchor-0" 1155 975 baselig 1
AnchorPoint: "Anchor-1" 585 -420 baselig 2
AnchorPoint: "Anchor-0" 390 975 baselig 2
LayerCount: 2
Fore
SplineSet
1620 352 m 1,0,1
 1528 0 1528 0 1308 0 c 0,2,3
 1261 0 1261 0 1226 11.5 c 128,-1,4
 1191 23 1191 23 1166 49 c 128,-1,5
 1141 75 1141 75 1124.5 116.5 c 128,-1,6
 1108 158 1108 158 1099 218 c 1,7,-1
 1095 218 l 1,8,9
 1091 123 1091 123 983 43 c 0,10,11
 886 -30 886 -30 790 -30 c 0,12,13
 574 -30 574 -30 568 287 c 1,14,-1
 564 287 l 1,15,16
 553 267 553 267 537.5 243 c 128,-1,17
 522 219 522 219 499 191 c 256,18,19
 476 163 476 163 460.5 144.5 c 128,-1,20
 445 126 445 126 435 118 c 1,21,22
 378 118 378 118 322 129.5 c 128,-1,23
 266 141 266 141 208 167 c 0,24,25
 156 190 156 190 121 213.5 c 128,-1,26
 86 237 86 237 67 265 c 1,27,28
 72 309 72 309 91 364 c 128,-1,29
 110 419 110 419 148 486 c 1,30,31
 170 505 170 505 215 528 c 128,-1,32
 260 551 260 551 326 580 c 0,33,34
 464 638 464 638 563 653 c 1,35,36
 563 673 563 673 559.5 700 c 128,-1,37
 556 727 556 727 548 765 c 1,38,-1
 698 863 l 1,39,40
 700 821 700 821 701 783 c 128,-1,41
 702 745 702 745 702 711 c 0,42,43
 702 704 702 704 701 683 c 128,-1,44
 700 662 700 662 698 627 c 0,45,46
 696 593 696 593 696 567 c 128,-1,47
 696 541 696 541 696 525 c 0,48,49
 696 353 696 353 724 295 c 0,50,51
 749 244 749 244 828 244 c 0,52,53
 852 244 852 244 880.5 251.5 c 128,-1,54
 909 259 909 259 936.5 271.5 c 128,-1,55
 964 284 964 284 987.5 301 c 128,-1,56
 1011 318 1011 318 1026 336 c 1,57,58
 1028 486 1028 486 1023.5 600 c 128,-1,59
 1019 714 1019 714 1009 794 c 1,60,-1
 1188 897 l 1,61,-1
 1184 431 l 2,62,63
 1184 274 1184 274 1321 274 c 0,64,65
 1339 274 1339 274 1358 278 c 128,-1,66
 1377 282 1377 282 1400 293 c 0,67,68
 1452 313 1452 313 1473 344 c 1,69,70
 1473 467 1473 467 1458 624.5 c 128,-1,71
 1443 782 1443 782 1414 977 c 1,72,-1
 1583 1158 l 1,73,74
 1602 916 1602 916 1611 715.5 c 128,-1,75
 1620 515 1620 515 1620 352 c 1,0,1
568 338 m 1,76,77
 568 401 568 401 566.5 453 c 128,-1,78
 565 505 565 505 563 544 c 1,79,80
 323 502 323 502 222 401 c 1,81,82
 239 387 239 387 268 375 c 128,-1,83
 297 363 297 363 342 352 c 0,84,85
 385 341 385 341 422 336.5 c 128,-1,86
 459 332 459 332 492 332 c 0,87,88
 526 332 526 332 568 338 c 1,76,77
1257 1148 m 2,89,90
 1257 1061 1257 1061 1230.5 1022 c 128,-1,91
 1204 983 1204 983 1164 983 c 0,92,93
 1145 983 1145 983 1128.5 994.5 c 128,-1,94
 1112 1006 1112 1006 1101 1024 c 1,95,96
 1081 982 1081 982 1053.5 961 c 128,-1,97
 1026 940 1026 940 996 940 c 0,98,99
 961 940 961 940 940.5 972 c 128,-1,100
 920 1004 920 1004 920 1069 c 2,101,-1
 920 1146 l 1,102,-1
 985 1170 l 1,103,-1
 985 1118 l 2,104,105
 985 1090 985 1090 994 1079 c 128,-1,106
 1003 1068 1003 1068 1017 1068 c 0,107,108
 1028 1068 1028 1068 1035 1074 c 128,-1,109
 1042 1080 1042 1080 1048 1088 c 0,110,111
 1059 1099 1059 1099 1059.5 1122 c 128,-1,112
 1060 1145 1060 1145 1060 1180 c 1,113,-1
 1115 1199 l 1,114,115
 1119 1167 1119 1167 1127.5 1146.5 c 128,-1,116
 1136 1126 1136 1126 1146 1118 c 0,117,118
 1152 1113 1152 1113 1161 1111 c 128,-1,119
 1170 1109 1170 1109 1178 1109 c 0,120,121
 1188 1109 1188 1109 1189.5 1117 c 128,-1,122
 1191 1125 1191 1125 1191 1142 c 0,123,124
 1191 1154 1191 1154 1189.5 1178.5 c 128,-1,125
 1188 1203 1188 1203 1184 1223 c 1,126,-1
 1257 1251 l 1,127,-1
 1257 1148 l 2,89,90
1050 1229 m 1,128,129
 1050 1314 1050 1314 1032 1378.5 c 128,-1,130
 1014 1443 1014 1443 977 1486 c 1,131,-1
 1069 1567 l 1,132,133
 1120 1504 1120 1504 1120 1355 c 2,134,-1
 1120 1292 l 1,135,-1
 1050 1229 l 1,128,129
EndSplineSet
Ligature2: "'rlig' Required Ligatures in Arabic lookup 6 subtable" afii62817 afii62818 uni06C1
Ligature2: "'rlig' Required Ligatures in Arabic lookup 5 subtable" afii62817 afii62818 uniFC63 afii62828
Ligature2: "'rlig' Required Ligatures in Arabic lookup 5 subtable" afii62817 afii62818 afii57457 uni0670 afii62828
EndChar

StartChar: afii57415.001
Encoding: 1575 1575 249
Width: 492
GlyphClass: 2
Flags: W
AnchorPoint: "Anchor-3" 285 -345 basechar 0
AnchorPoint: "Anchor-2" 255 1470 basechar 0
LayerCount: 2
Fore
SplineSet
400 989 m 0,0,1
 400 795 400 795 387 571.5 c 128,-1,2
 374 348 374 348 348 88 c 1,3,-1
 218 -81 l 1,4,5
 224 102 224 102 224 159 c 0,6,7
 224 342 224 342 215 506 c 128,-1,8
 206 670 206 670 186 820 c 0,9,10
 157 1073 157 1073 120 1144 c 1,11,-1
 368 1355 l 1,12,13
 384 1261 384 1261 392 1170.5 c 128,-1,14
 400 1080 400 1080 400 989 c 0,0,1
EndSplineSet
Substitution2: "'fina' Terminal Forms in Arabic lookup 3 subtable" afii62760
PairPos2: "'kern' Horizontal Kerning in Arabic lookup 0 subtable" uni06FB.init dx=-60 dy=0 dh=-60 dv=0 dx=0 dy=0 dh=0 dv=0
PairPos2: "'kern' Horizontal Kerning in Arabic lookup 0 subtable" uni06FA.init dx=-60 dy=0 dh=-60 dv=0 dx=0 dy=0 dh=0 dv=0
PairPos2: "'kern' Horizontal Kerning in Arabic lookup 0 subtable" uni06AE.init dx=-60 dy=0 dh=-60 dv=0 dx=0 dy=0 dh=0 dv=0
PairPos2: "'kern' Horizontal Kerning in Arabic lookup 0 subtable" uniFBD5 dx=-60 dy=0 dh=-60 dv=0 dx=0 dy=0 dh=0 dv=0
PairPos2: "'kern' Horizontal Kerning in Arabic lookup 0 subtable" uni06AB.init dx=-60 dy=0 dh=-60 dv=0 dx=0 dy=0 dh=0 dv=0
PairPos2: "'kern' Horizontal Kerning in Arabic lookup 0 subtable" uni06AB.init dx=-60 dy=0 dh=-60 dv=0 dx=0 dy=0 dh=0 dv=0
PairPos2: "'kern' Horizontal Kerning in Arabic lookup 0 subtable" uni06AB.001 dx=-60 dy=0 dh=-60 dv=0 dx=0 dy=0 dh=0 dv=0
PairPos2: "'kern' Horizontal Kerning in Arabic lookup 0 subtable" uni069E.init dx=-60 dy=0 dh=-60 dv=0 dx=0 dy=0 dh=0 dv=0
PairPos2: "'kern' Horizontal Kerning in Arabic lookup 0 subtable" uni069D.init dx=-60 dy=0 dh=-60 dv=0 dx=0 dy=0 dh=0 dv=0
PairPos2: "'kern' Horizontal Kerning in Arabic lookup 0 subtable" uni069C.init dx=-60 dy=0 dh=-60 dv=0 dx=0 dy=0 dh=0 dv=0
PairPos2: "'kern' Horizontal Kerning in Arabic lookup 0 subtable" uni069B.init dx=-60 dy=0 dh=-60 dv=0 dx=0 dy=0 dh=0 dv=0
PairPos2: "'kern' Horizontal Kerning in Arabic lookup 0 subtable" uni069A.init dx=-60 dy=0 dh=-60 dv=0 dx=0 dy=0 dh=0 dv=0
PairPos2: "'kern' Horizontal Kerning in Arabic lookup 0 subtable" uni0687 dx=-60 dy=0 dh=-60 dv=0 dx=0 dy=0 dh=0 dv=0
PairPos2: "'kern' Horizontal Kerning in Arabic lookup 0 subtable" uni0685 dx=-60 dy=0 dh=-60 dv=0 dx=0 dy=0 dh=0 dv=0
PairPos2: "'kern' Horizontal Kerning in Arabic lookup 0 subtable" uni0684 dx=-60 dy=0 dh=-60 dv=0 dx=0 dy=0 dh=0 dv=0
PairPos2: "'kern' Horizontal Kerning in Arabic lookup 0 subtable" uni0683 dx=-60 dy=0 dh=-60 dv=0 dx=0 dy=0 dh=0 dv=0
PairPos2: "'kern' Horizontal Kerning in Arabic lookup 0 subtable" uni0682 dx=-60 dy=0 dh=-60 dv=0 dx=0 dy=0 dh=0 dv=0
PairPos2: "'kern' Horizontal Kerning in Arabic lookup 0 subtable" uni0681 dx=-60 dy=0 dh=-60 dv=0 dx=0 dy=0 dh=0 dv=0
PairPos2: "'kern' Horizontal Kerning in Arabic lookup 0 subtable" afii57410 dx=-60 dy=0 dh=-60 dv=0 dx=0 dy=0 dh=0 dv=0
PairPos2: "'kern' Horizontal Kerning in Arabic lookup 0 subtable" afii62793 dx=-60 dy=0 dh=-60 dv=0 dx=0 dy=0 dh=0 dv=0
PairPos2: "'kern' Horizontal Kerning in Arabic lookup 0 subtable" afii62790 dx=-60 dy=0 dh=-60 dv=0 dx=0 dy=0 dh=0 dv=0
PairPos2: "'kern' Horizontal Kerning in Arabic lookup 0 subtable" afii62787 dx=-60 dy=0 dh=-60 dv=0 dx=0 dy=0 dh=0 dv=0
PairPos2: "'kern' Horizontal Kerning in Arabic lookup 0 subtable" afii62784 dx=-60 dy=0 dh=-60 dv=0 dx=0 dy=0 dh=0 dv=0
PairPos2: "'kern' Horizontal Kerning in Arabic lookup 0 subtable" afii57422 dx=-60 dy=0 dh=-60 dv=0 dx=0 dy=0 dh=0 dv=0
PairPos2: "'kern' Horizontal Kerning in Arabic lookup 0 subtable" afii57421 dx=-60 dy=0 dh=-60 dv=0 dx=0 dy=0 dh=0 dv=0
PairPos2: "'kern' Horizontal Kerning in Arabic lookup 0 subtable" afii57420 dx=-60 dy=0 dh=-60 dv=0 dx=0 dy=0 dh=0 dv=0
PairPos2: "'kern' Horizontal Kerning in Arabic lookup 0 subtable" afii52305 dx=-60 dy=0 dh=-60 dv=0 dx=0 dy=0 dh=0 dv=0
PairPos2: "'kern' Horizontal Kerning in Arabic lookup 0 subtable" afii57567 dx=-60 dy=0 dh=-60 dv=0 dx=0 dy=0 dh=0 dv=0
PairPos2: "'kern' Horizontal Kerning in Arabic lookup 0 subtable" afii57507 dx=-60 dy=0 dh=-60 dv=0 dx=0 dy=0 dh=0 dv=0
EndChar

StartChar: afii62760.001
Encoding: 65555 -1 250
Width: 437
GlyphClass: 2
Flags: W
LayerCount: 2
Fore
SplineSet
476 32 m 1,0,1
 476 0 476 0 446 0 c 2,2,-1
 428 0 l 2,3,4
 322 0 322 0 248 65 c 0,5,6
 141 160 141 160 141 375 c 0,7,8
 141 1027 141 1027 47 1154 c 1,9,-1
 236 1355 l 1,10,11
 293 1251 293 1251 300 959 c 1,12,-1
 300 548 l 2,13,14
 300 274 300 274 407 274 c 2,15,-1
 444 274 l 2,16,17
 476 274 476 274 476 242 c 2,18,-1
 476 32 l 1,19,-1
 476 32 l 1,0,1
EndSplineSet
EndChar

StartChar: afii57421
Encoding: 1581 1581 269
Width: 1300
GlyphClass: 2
Flags: W
AnchorPoint: "Anchor-3" 585 -1035 basechar 0
AnchorPoint: "Anchor-2" 600 1125 basechar 0
LayerCount: 2
Fore
SplineSet
1189 -503 m 1,0,1
 1048 -537 1048 -537 900 -554.5 c 128,-1,2
 752 -572 752 -572 593 -572 c 0,3,4
 491 -572 491 -572 404.5 -551.5 c 128,-1,5
 318 -531 318 -531 246 -492 c 0,6,7
 149 -437 149 -437 101 -354.5 c 128,-1,8
 53 -272 53 -272 53 -157 c 0,9,10
 53 13 53 13 193 185 c 0,11,12
 331 358 331 358 580 480 c 1,13,-1
 580 484 l 1,14,-1
 572 484 l 1,15,16
 530 489 530 489 480.5 500 c 128,-1,17
 431 511 431 511 373 531 c 0,18,19
 313 550 313 550 287 550 c 0,20,21
 267 550 267 550 252.5 543 c 128,-1,22
 238 536 238 536 224 523 c 0,23,24
 194 487 194 487 159 390 c 1,25,26
 117 390 117 390 90 411 c 1,27,28
 193 672 193 672 242 747 c 0,29,30
 277 804 277 804 319 804 c 0,31,32
 354 804 354 804 439 775 c 0,33,34
 493 755 493 755 538 741.5 c 128,-1,35
 583 728 583 728 617 720 c 0,36,37
 750 690 750 690 902 690 c 0,38,39
 974 690 974 690 1042.5 693 c 128,-1,40
 1111 696 1111 696 1176 704 c 1,41,-1
 1020 458 l 1,42,43
 984 464 984 464 895 464 c 0,44,45
 772 464 772 464 643 415 c 0,46,47
 570 386 570 386 510 345.5 c 128,-1,48
 450 305 450 305 401 248 c 0,49,50
 291 123 291 123 291 -26 c 0,51,52
 291 -390 291 -390 953 -390 c 0,53,54
 1050 -390 1050 -390 1128.5 -385 c 128,-1,55
 1207 -380 1207 -380 1270 -372 c 1,56,-1
 1189 -503 l 1,0,1
EndSplineSet
Substitution2: "'fina' Terminal Forms in Arabic lookup 3 subtable" afii62776
Substitution2: "'medi' Medial Forms in Arabic lookup 2 subtable" afii62775
Substitution2: "'init' Initial Forms in Arabic lookup 1 subtable" afii62774
EndChar

StartChar: afii62776
Encoding: 65186 65186 270
Width: 1201
GlyphClass: 2
Flags: W
AnchorPoint: "Anchor-3" 540 -1005 basechar 0
AnchorPoint: "Anchor-2" 675 1065 basechar 0
LayerCount: 2
Fore
SplineSet
1240 32 m 1,0,1
 1240 0 1240 0 1212 0 c 2,2,-1
 1193 0 l 2,3,4
 750 0 750 0 711 460 c 1,5,6
 615 422 615 422 539.5 371.5 c 128,-1,7
 464 321 464 321 407 257 c 0,8,9
 291 124 291 124 291 -26 c 0,10,11
 291 -390 291 -390 944 -390 c 0,12,13
 1025 -390 1025 -390 1092.5 -385.5 c 128,-1,14
 1160 -381 1160 -381 1215 -373 c 1,15,-1
 1137 -503 l 1,16,17
 1019 -537 1019 -537 881.5 -554.5 c 128,-1,18
 744 -572 744 -572 584 -572 c 0,19,20
 385 -572 385 -572 242 -490 c 0,21,22
 147 -435 147 -435 100 -351.5 c 128,-1,23
 53 -268 53 -268 53 -157 c 0,24,25
 53 15 53 15 182 177 c 0,26,27
 251 262 251 262 347.5 338 c 128,-1,28
 444 414 444 414 572 480 c 1,29,-1
 572 484 l 1,30,31
 530 489 530 489 480.5 500 c 128,-1,32
 431 511 431 511 373 531 c 0,33,34
 313 550 313 550 287 550 c 0,35,36
 267 550 267 550 252.5 543 c 128,-1,37
 238 536 238 536 224 523 c 0,38,39
 194 487 194 487 159 390 c 1,40,41
 117 390 117 390 90 411 c 1,42,43
 193 672 193 672 242 747 c 0,44,45
 277 804 277 804 319 804 c 0,46,47
 354 804 354 804 439 775 c 0,48,49
 493 755 493 755 538 741.5 c 128,-1,50
 583 728 583 728 617 720 c 0,51,52
 750 690 750 690 902 690 c 0,53,54
 1005 690 1005 690 1075.5 694 c 128,-1,55
 1146 698 1146 698 1188 706 c 1,56,-1
 1054 464 l 1,57,-1
 895 464 l 2,58,59
 871 464 871 464 847.5 465 c 128,-1,60
 824 466 824 466 801 468 c 1,61,62
 826 351 826 351 895 313 c 0,63,64
 965 274 965 274 1172 274 c 2,65,-1
 1210 274 l 2,66,67
 1240 274 1240 274 1240 242 c 2,68,-1
 1240 32 l 1,69,-1
 1240 32 l 1,0,1
EndSplineSet
EndChar

StartChar: afii62774
Encoding: 65187 65187 271
Width: 1088
GlyphClass: 2
Flags: W
AnchorPoint: "Anchor-3" 420 -510 basechar 0
AnchorPoint: "Anchor-2" 480 1065 basechar 0
LayerCount: 2
Fore
SplineSet
902 165 m 1,0,1
 861 176 861 176 817 182.5 c 128,-1,2
 773 189 773 189 726 189 c 0,3,4
 637 189 637 189 468 118 c 0,5,6
 189 0 189 0 8 0 c 2,7,-1
 -10 0 l 2,8,9
 -39 0 -39 0 -39 32 c 2,10,-1
 -39 242 l 2,11,12
 -39 274 -39 274 -8 274 c 2,13,-1
 157 274 l 2,14,15
 275 274 275 274 377.5 287 c 128,-1,16
 480 300 480 300 574 328 c 1,17,18
 519 360 519 360 464.5 395 c 128,-1,19
 410 430 410 430 356 472 c 0,20,21
 298 515 298 515 261.5 537 c 128,-1,22
 225 559 225 559 208 559 c 0,23,24
 165 559 165 559 83 411 c 1,25,26
 48 411 48 411 26 444 c 1,27,28
 178 792 178 792 277 792 c 0,29,30
 333 792 333 792 546 619 c 0,31,32
 739 463 739 463 831 422 c 0,33,34
 872 405 872 405 923 396 c 128,-1,35
 974 387 974 387 1040 387 c 1,36,-1
 902 165 l 1,0,1
EndSplineSet
EndChar

StartChar: afii62775
Encoding: 65188 65188 272
Width: 1311
GlyphClass: 2
Flags: W
AnchorPoint: "Anchor-3" 645 -510 basechar 0
AnchorPoint: "Anchor-2" 720 1020 basechar 0
LayerCount: 2
Fore
SplineSet
1351 32 m 1,0,1
 1351 0 1351 0 1321 0 c 2,2,-1
 1304 0 l 2,3,4
 965 0 965 0 861 364 c 1,5,6
 824 344 824 344 753.5 297.5 c 128,-1,7
 683 251 683 251 576 175 c 0,8,9
 330 0 330 0 8 0 c 2,10,-1
 -10 0 l 2,11,12
 -39 0 -39 0 -39 32 c 2,13,-1
 -39 242 l 2,14,15
 -39 274 -39 274 -8 274 c 2,16,-1
 161 274 l 2,17,18
 437 274 437 274 692 444 c 1,19,20
 636 459 636 459 497 509 c 0,21,22
 465 521 465 521 451 526.5 c 128,-1,23
 437 532 437 532 430 535.5 c 128,-1,24
 423 539 423 539 418 541.5 c 128,-1,25
 413 544 413 544 401 549 c 0,26,27
 358 569 358 569 318 569 c 0,28,29
 253 569 253 569 190 415 c 1,30,31
 145 415 145 415 125 443 c 1,32,33
 171 561 171 561 206.5 639 c 128,-1,34
 242 717 242 717 267 755 c 0,35,36
 311 823 311 823 365 823 c 0,37,38
 376 823 376 823 386 821 c 128,-1,39
 396 819 396 819 414 810.5 c 128,-1,40
 432 802 432 802 463 786 c 128,-1,41
 494 770 494 770 548 743 c 0,42,43
 657 688 657 688 741.5 662 c 128,-1,44
 826 636 826 636 887 636 c 0,45,46
 1069 636 1069 636 1270 688 c 1,47,-1
 1162 446 l 1,48,49
 1026 446 1026 446 938 405 c 1,50,51
 983 274 983 274 1282 274 c 2,52,-1
 1319 274 l 2,53,54
 1351 274 1351 274 1351 242 c 2,55,-1
 1351 32 l 1,56,-1
 1351 32 l 1,0,1
EndSplineSet
EndChar

